%TF.GenerationSoftware,KiCad,Pcbnew,8.0.5*%
%TF.CreationDate,2024-12-26T16:36:05+00:00*%
%TF.ProjectId,mallow_adapt_v1.2,6d616c6c-6f77-45f6-9164-6170745f7631,rev?*%
%TF.SameCoordinates,Original*%
%TF.FileFunction,Soldermask,Bot*%
%TF.FilePolarity,Negative*%
%FSLAX46Y46*%
G04 Gerber Fmt 4.6, Leading zero omitted, Abs format (unit mm)*
G04 Created by KiCad (PCBNEW 8.0.5) date 2024-12-26 16:36:05*
%MOMM*%
%LPD*%
G01*
G04 APERTURE LIST*
G04 Aperture macros list*
%AMRoundRect*
0 Rectangle with rounded corners*
0 $1 Rounding radius*
0 $2 $3 $4 $5 $6 $7 $8 $9 X,Y pos of 4 corners*
0 Add a 4 corners polygon primitive as box body*
4,1,4,$2,$3,$4,$5,$6,$7,$8,$9,$2,$3,0*
0 Add four circle primitives for the rounded corners*
1,1,$1+$1,$2,$3*
1,1,$1+$1,$4,$5*
1,1,$1+$1,$6,$7*
1,1,$1+$1,$8,$9*
0 Add four rect primitives between the rounded corners*
20,1,$1+$1,$2,$3,$4,$5,0*
20,1,$1+$1,$4,$5,$6,$7,0*
20,1,$1+$1,$6,$7,$8,$9,0*
20,1,$1+$1,$8,$9,$2,$3,0*%
%AMFreePoly0*
4,1,35,0.535355,0.785355,0.550000,0.750000,0.550000,-0.750000,0.535355,-0.785355,0.500000,-0.800000,0.000000,-0.800000,-0.012286,-0.794911,-0.071157,-0.794911,-0.085244,-0.792886,-0.221795,-0.752791,-0.234740,-0.746879,-0.354462,-0.669938,-0.365217,-0.660618,-0.458414,-0.553063,-0.466109,-0.541091,-0.525228,-0.411637,-0.529237,-0.397982,-0.549491,-0.257116,-0.550000,-0.250000,-0.550000,0.250000,
-0.549491,0.257116,-0.529237,0.397982,-0.525228,0.411637,-0.466109,0.541091,-0.458414,0.553063,-0.365217,0.660618,-0.354462,0.669938,-0.234740,0.746879,-0.221795,0.752791,-0.085244,0.792886,-0.071157,0.794911,-0.012286,0.794911,0.000000,0.800000,0.500000,0.800000,0.535355,0.785355,0.535355,0.785355,$1*%
%AMFreePoly1*
4,1,35,0.012286,0.794911,0.071157,0.794911,0.085244,0.792886,0.221795,0.752791,0.234740,0.746879,0.354462,0.669938,0.365217,0.660618,0.458414,0.553063,0.466109,0.541091,0.525228,0.411637,0.529237,0.397982,0.549491,0.257116,0.550000,0.250000,0.550000,-0.250000,0.549491,-0.257116,0.529237,-0.397982,0.525228,-0.411637,0.466109,-0.541091,0.458414,-0.553063,0.365217,-0.660618,
0.354462,-0.669938,0.234740,-0.746879,0.221795,-0.752791,0.085244,-0.792886,0.071157,-0.794911,0.012286,-0.794911,0.000000,-0.800000,-0.500000,-0.800000,-0.535355,-0.785355,-0.550000,-0.750000,-0.550000,0.750000,-0.535355,0.785355,-0.500000,0.800000,0.000000,0.800000,0.012286,0.794911,0.012286,0.794911,$1*%
G04 Aperture macros list end*
%ADD10C,0.000000*%
%ADD11C,3.700000*%
%ADD12C,5.800000*%
%ADD13RoundRect,0.175000X-0.175000X0.850000X-0.175000X-0.850000X0.175000X-0.850000X0.175000X0.850000X0*%
%ADD14RoundRect,0.250000X-0.275000X0.250000X-0.275000X-0.250000X0.275000X-0.250000X0.275000X0.250000X0*%
%ADD15RoundRect,0.050000X-0.150000X-0.400000X0.150000X-0.400000X0.150000X0.400000X-0.150000X0.400000X0*%
%ADD16RoundRect,0.050000X0.400000X-0.150000X0.400000X0.150000X-0.400000X0.150000X-0.400000X-0.150000X0*%
%ADD17RoundRect,0.050000X0.750000X-0.750000X0.750000X0.750000X-0.750000X0.750000X-0.750000X-0.750000X0*%
%ADD18RoundRect,0.271739X-0.353261X-1.128261X0.353261X-1.128261X0.353261X1.128261X-0.353261X1.128261X0*%
%ADD19C,2.100000*%
%ADD20FreePoly0,180.000000*%
%ADD21FreePoly1,180.000000*%
%ADD22RoundRect,0.225000X-0.225000X-0.300000X0.225000X-0.300000X0.225000X0.300000X-0.225000X0.300000X0*%
%ADD23C,1.120000*%
%ADD24C,1.620000*%
%ADD25C,3.009999*%
%ADD26RoundRect,0.050000X-0.508000X-0.203200X0.508000X-0.203200X0.508000X0.203200X-0.508000X0.203200X0*%
%ADD27RoundRect,0.050000X-1.910500X-1.954499X1.910500X-1.954499X1.910500X1.954499X-1.910500X1.954499X0*%
%ADD28RoundRect,0.250000X0.275000X-0.250000X0.275000X0.250000X-0.275000X0.250000X-0.275000X-0.250000X0*%
%ADD29C,1.450000*%
%ADD30RoundRect,0.050000X-0.937500X-0.937500X0.937500X-0.937500X0.937500X0.937500X-0.937500X0.937500X0*%
%ADD31C,1.975000*%
%ADD32RoundRect,0.050000X0.150000X0.375000X-0.150000X0.375000X-0.150000X-0.375000X0.150000X-0.375000X0*%
%ADD33RoundRect,0.050000X-0.650000X0.450000X-0.650000X-0.450000X0.650000X-0.450000X0.650000X0.450000X0*%
%ADD34RoundRect,0.225000X-0.300000X0.225000X-0.300000X-0.225000X0.300000X-0.225000X0.300000X0.225000X0*%
%ADD35C,1.400000*%
%ADD36C,1.900000*%
%ADD37RoundRect,0.271739X1.128261X-0.353261X1.128261X0.353261X-1.128261X0.353261X-1.128261X-0.353261X0*%
%ADD38RoundRect,0.102000X0.300000X-0.400000X0.300000X0.400000X-0.300000X0.400000X-0.300000X-0.400000X0*%
%ADD39RoundRect,0.050000X-0.850000X0.850000X-0.850000X-0.850000X0.850000X-0.850000X0.850000X0.850000X0*%
%ADD40O,1.800000X1.800000*%
%ADD41RoundRect,0.225000X0.300000X-0.225000X0.300000X0.225000X-0.300000X0.225000X-0.300000X-0.225000X0*%
%ADD42RoundRect,0.250000X0.250000X0.275000X-0.250000X0.275000X-0.250000X-0.275000X0.250000X-0.275000X0*%
%ADD43RoundRect,0.271739X0.353261X0.678261X-0.353261X0.678261X-0.353261X-0.678261X0.353261X-0.678261X0*%
%ADD44RoundRect,0.250000X-0.250000X-0.275000X0.250000X-0.275000X0.250000X0.275000X-0.250000X0.275000X0*%
%ADD45RoundRect,0.272222X-0.340278X-0.652778X0.340278X-0.652778X0.340278X0.652778X-0.340278X0.652778X0*%
%ADD46RoundRect,0.125000X-0.125000X0.662500X-0.125000X-0.662500X0.125000X-0.662500X0.125000X0.662500X0*%
%ADD47C,3.300000*%
%ADD48C,1.600000*%
%ADD49RoundRect,0.225000X0.225000X0.300000X-0.225000X0.300000X-0.225000X-0.300000X0.225000X-0.300000X0*%
%ADD50RoundRect,0.270000X1.105000X-0.405000X1.105000X0.405000X-1.105000X0.405000X-1.105000X-0.405000X0*%
%ADD51C,3.100000*%
%ADD52RoundRect,0.050000X0.950000X-0.950000X0.950000X0.950000X-0.950000X0.950000X-0.950000X-0.950000X0*%
%ADD53C,2.000000*%
%ADD54RoundRect,0.050000X0.300000X0.210000X-0.300000X0.210000X-0.300000X-0.210000X0.300000X-0.210000X0*%
%ADD55O,0.700000X0.520000*%
%ADD56RoundRect,0.050000X-0.900000X0.500000X-0.900000X-0.500000X0.900000X-0.500000X0.900000X0.500000X0*%
%ADD57C,1.300000*%
%ADD58RoundRect,0.264706X-0.635294X-0.635294X0.635294X-0.635294X0.635294X0.635294X-0.635294X0.635294X0*%
%ADD59C,1.800000*%
%ADD60C,2.200000*%
%ADD61RoundRect,0.275000X0.275000X-0.275000X0.275000X0.275000X-0.275000X0.275000X-0.275000X-0.275000X0*%
%ADD62RoundRect,0.050000X0.900000X1.700000X-0.900000X1.700000X-0.900000X-1.700000X0.900000X-1.700000X0*%
%ADD63RoundRect,0.050000X-0.425000X0.150000X-0.425000X-0.150000X0.425000X-0.150000X0.425000X0.150000X0*%
%ADD64RoundRect,0.050000X-0.345000X-1.220000X0.345000X-1.220000X0.345000X1.220000X-0.345000X1.220000X0*%
%ADD65RoundRect,0.050000X0.737500X-0.225000X0.737500X0.225000X-0.737500X0.225000X-0.737500X-0.225000X0*%
%ADD66RoundRect,0.102000X0.400000X0.300000X-0.400000X0.300000X-0.400000X-0.300000X0.400000X-0.300000X0*%
%ADD67RoundRect,0.050000X-0.300000X-0.210000X0.300000X-0.210000X0.300000X0.210000X-0.300000X0.210000X0*%
%ADD68RoundRect,0.050000X-0.850000X-0.850000X0.850000X-0.850000X0.850000X0.850000X-0.850000X0.850000X0*%
%ADD69RoundRect,0.102000X-0.300000X0.400000X-0.300000X-0.400000X0.300000X-0.400000X0.300000X0.400000X0*%
%ADD70RoundRect,0.050000X1.580000X-0.500000X1.580000X0.500000X-1.580000X0.500000X-1.580000X-0.500000X0*%
%ADD71RoundRect,0.250000X-0.250000X-0.400000X0.250000X-0.400000X0.250000X0.400000X-0.250000X0.400000X0*%
%ADD72RoundRect,0.050000X0.850000X0.850000X-0.850000X0.850000X-0.850000X-0.850000X0.850000X-0.850000X0*%
%ADD73RoundRect,0.175000X-0.850000X-0.175000X0.850000X-0.175000X0.850000X0.175000X-0.850000X0.175000X0*%
%ADD74RoundRect,0.050000X-0.625000X0.300000X-0.625000X-0.300000X0.625000X-0.300000X0.625000X0.300000X0*%
%ADD75RoundRect,0.243750X0.406250X-0.243750X0.406250X0.243750X-0.406250X0.243750X-0.406250X-0.243750X0*%
%ADD76RoundRect,0.225000X-0.475000X0.225000X-0.475000X-0.225000X0.475000X-0.225000X0.475000X0.225000X0*%
%ADD77O,1.400000X0.900000*%
%ADD78RoundRect,0.050000X0.700000X-0.150000X0.700000X0.150000X-0.700000X0.150000X-0.700000X-0.150000X0*%
G04 APERTURE END LIST*
D10*
%TO.C,Q7*%
G36*
X139930095Y-98337618D02*
G01*
X138914095Y-98337618D01*
X138914095Y-99201218D01*
X139930095Y-99201218D01*
X139930095Y-99607618D01*
X138914095Y-99607618D01*
X138914095Y-100471218D01*
X139930095Y-100471218D01*
X139930095Y-100877618D01*
X138914095Y-100877618D01*
X138914095Y-101741218D01*
X139930095Y-101741218D01*
X139930095Y-102147618D01*
X138914095Y-102147618D01*
X138914095Y-101995218D01*
X135078695Y-101995218D01*
X135078695Y-98083618D01*
X138914095Y-98083618D01*
X138914095Y-97931218D01*
X139930095Y-97931218D01*
X139930095Y-98337618D01*
G37*
%TO.C,Q15*%
G36*
X166128095Y-100239400D02*
G01*
X165112095Y-100239400D01*
X165112095Y-101103000D01*
X166128095Y-101103000D01*
X166128095Y-101509400D01*
X165112095Y-101509400D01*
X165112095Y-102373000D01*
X166128095Y-102373000D01*
X166128095Y-102779400D01*
X165112095Y-102779400D01*
X165112095Y-103643000D01*
X166128095Y-103643000D01*
X166128095Y-104049400D01*
X165112095Y-104049400D01*
X165112095Y-103897000D01*
X161276695Y-103897000D01*
X161276695Y-99985400D01*
X165112095Y-99985400D01*
X165112095Y-99833000D01*
X166128095Y-99833000D01*
X166128095Y-100239400D01*
G37*
%TD*%
D11*
%TO.C,H1*%
X218651085Y-61778600D03*
D12*
X218651085Y-61778600D03*
%TD*%
D11*
%TO.C,H4*%
X218651085Y-127778600D03*
D12*
X218651085Y-127778600D03*
%TD*%
D11*
%TO.C,H3*%
X124651095Y-127778600D03*
D12*
X124651095Y-127778600D03*
%TD*%
D11*
%TO.C,H2*%
X124651095Y-61778600D03*
D12*
X124651095Y-61778600D03*
%TD*%
D13*
%TO.C,U7*%
X199496095Y-105928600D03*
X200766095Y-105928600D03*
X202036095Y-105928600D03*
X203306095Y-105928600D03*
X203306095Y-110878600D03*
X202036095Y-110878600D03*
X200766095Y-110878600D03*
X199496095Y-110878600D03*
%TD*%
D14*
%TO.C,C24*%
X158001095Y-75728600D03*
X158001095Y-77278600D03*
%TD*%
D15*
%TO.C,IC5*%
X201951095Y-76703600D03*
X201451095Y-76703600D03*
X200951095Y-76703600D03*
X200451095Y-76703600D03*
D16*
X199751095Y-76003600D03*
X199751095Y-75503600D03*
X199751095Y-75003600D03*
X199751095Y-74503600D03*
D15*
X200451095Y-73803600D03*
X200951095Y-73803600D03*
X201451095Y-73803600D03*
X201951095Y-73803600D03*
D16*
X202651095Y-74503600D03*
X202651095Y-75003600D03*
X202651095Y-75503600D03*
X202651095Y-76003600D03*
D17*
X201201095Y-75253600D03*
%TD*%
D18*
%TO.C,C45*%
X136001095Y-119503600D03*
X138951095Y-119503600D03*
%TD*%
D19*
%TO.C,TP5*%
X203751095Y-80253600D03*
%TD*%
D20*
%TO.C,JP2*%
X191051095Y-67503600D03*
D21*
X189751095Y-67503600D03*
%TD*%
D18*
%TO.C,C30*%
X131256095Y-126043600D03*
X134206095Y-126043600D03*
%TD*%
D22*
%TO.C,R17*%
X216101095Y-109003600D03*
X217751095Y-109003600D03*
%TD*%
D23*
%TO.C,J5*%
X185501074Y-121313599D03*
X173501098Y-121313599D03*
D24*
X176501097Y-125253599D03*
X179501096Y-125253599D03*
X182501095Y-125253599D03*
X176501097Y-122253600D03*
X179501096Y-122253600D03*
X182501095Y-122253600D03*
D25*
X174351099Y-123753599D03*
X184651093Y-123753599D03*
%TD*%
D26*
%TO.C,Q7*%
X133580095Y-101944418D03*
X133580095Y-100674418D03*
X133580095Y-99404418D03*
X133580095Y-98134418D03*
X139422095Y-98134418D03*
X139422095Y-99404418D03*
X139422095Y-100674418D03*
D27*
X137003595Y-100038117D03*
D26*
X139422095Y-101944418D03*
%TD*%
D28*
%TO.C,C78*%
X178001095Y-111028600D03*
X178001095Y-109478600D03*
%TD*%
D19*
%TO.C,TP3*%
X150901095Y-83803600D03*
%TD*%
%TO.C,TP13*%
X172751095Y-83253600D03*
%TD*%
D18*
%TO.C,C44*%
X136026095Y-116253600D03*
X138976095Y-116253600D03*
%TD*%
D29*
%TO.C,J4*%
X201751095Y-123413600D03*
D30*
X198001095Y-124753600D03*
D31*
X200501095Y-124753600D03*
X203001095Y-124753600D03*
X205501095Y-124753600D03*
%TD*%
D32*
%TO.C,U11*%
X158701095Y-67003600D03*
X159201095Y-67003600D03*
X159701095Y-67003600D03*
X160201095Y-67003600D03*
X160201095Y-69003600D03*
X159701095Y-69003600D03*
X159201095Y-69003600D03*
X158701095Y-69003600D03*
D33*
X159451095Y-68003600D03*
%TD*%
D34*
%TO.C,R75*%
X200451095Y-69428600D03*
X200451095Y-71078600D03*
%TD*%
D35*
%TO.C,J3*%
X211751095Y-123413600D03*
D36*
X210501095Y-124753600D03*
X213001095Y-124753600D03*
%TD*%
D37*
%TO.C,C48*%
X126001095Y-113978600D03*
X126001095Y-111028600D03*
%TD*%
D18*
%TO.C,C40*%
X131276095Y-119503600D03*
X134226095Y-119503600D03*
%TD*%
%TO.C,C49*%
X131276095Y-122753600D03*
X134226095Y-122753600D03*
%TD*%
D38*
%TO.C,Q13*%
X153651095Y-105163600D03*
X151751095Y-105163600D03*
X152701095Y-103143600D03*
%TD*%
D39*
%TO.C,X19*%
X184171094Y-61278628D03*
D40*
X184171094Y-63818628D03*
X186711094Y-61278628D03*
X186711094Y-63818628D03*
X189251094Y-61278628D03*
X189251094Y-63818628D03*
X191791094Y-61278628D03*
X191791094Y-63818628D03*
X194331094Y-61278628D03*
X194331094Y-63818628D03*
X196871094Y-61278628D03*
X196871094Y-63818628D03*
X199411094Y-61278628D03*
X199411094Y-63818628D03*
X201951094Y-61278628D03*
X201951094Y-63818628D03*
X204491094Y-61278628D03*
X204491094Y-63818628D03*
X207031094Y-61278628D03*
X207031094Y-63818628D03*
X209571094Y-61278628D03*
X209571094Y-63818628D03*
X212111094Y-61278628D03*
X212111094Y-63818628D03*
%TD*%
D41*
%TO.C,R56*%
X182913096Y-82428600D03*
X182913096Y-80778600D03*
%TD*%
D42*
%TO.C,C19*%
X217776095Y-107253600D03*
X216226095Y-107253600D03*
%TD*%
D43*
%TO.C,C51*%
X212001095Y-68753600D03*
X209051095Y-68753600D03*
%TD*%
D41*
%TO.C,R15*%
X181001095Y-82428600D03*
X181001095Y-80778600D03*
%TD*%
D37*
%TO.C,C12*%
X169501095Y-101478600D03*
X169501095Y-98528600D03*
%TD*%
D34*
%TO.C,R71*%
X197451095Y-69428600D03*
X197451095Y-71078600D03*
%TD*%
D44*
%TO.C,C3*%
X191201095Y-119753600D03*
X192751095Y-119753600D03*
%TD*%
D45*
%TO.C,R29*%
X209038595Y-66503600D03*
X211963595Y-66503600D03*
%TD*%
D46*
%TO.C,U17*%
X206251095Y-84228600D03*
X206901095Y-84228600D03*
X207551095Y-84228600D03*
X208201095Y-84228600D03*
X208851095Y-84228600D03*
X209501095Y-84228600D03*
X210151095Y-84228600D03*
X210801095Y-84228600D03*
X210801095Y-89953600D03*
X210151095Y-89953600D03*
X209501095Y-89953600D03*
X208851095Y-89953600D03*
X208201095Y-89953600D03*
X207551095Y-89953600D03*
X206901095Y-89953600D03*
X206251095Y-89953600D03*
%TD*%
D47*
%TO.C,J9*%
X147111095Y-125293600D03*
X147111095Y-113863600D03*
D17*
X153461095Y-124023600D03*
D48*
X156001095Y-122753600D03*
X153461095Y-121483600D03*
X156001095Y-120213600D03*
X153461095Y-118943600D03*
X156001095Y-117673600D03*
X153461095Y-116403600D03*
X156001095Y-115133600D03*
%TD*%
D49*
%TO.C,R68*%
X169576095Y-104003600D03*
X167926095Y-104003600D03*
%TD*%
D44*
%TO.C,C64*%
X165976095Y-72003600D03*
X167526095Y-72003600D03*
%TD*%
D19*
%TO.C,TP11*%
X143501095Y-109003600D03*
%TD*%
D28*
%TO.C,C16*%
X143501095Y-87278600D03*
X143501095Y-85728600D03*
%TD*%
D50*
%TO.C,L2*%
X194251095Y-117553600D03*
X194251095Y-114753600D03*
%TD*%
D51*
%TO.C,J1*%
X148491095Y-81553600D03*
X148491095Y-67953600D03*
D52*
X143451095Y-72653600D03*
D53*
X143451095Y-76853600D03*
X148951095Y-72653600D03*
X148951095Y-76853600D03*
%TD*%
D34*
%TO.C,R77*%
X203451095Y-69428600D03*
X203451095Y-71078600D03*
%TD*%
D28*
%TO.C,C73*%
X184001095Y-111028600D03*
X184001095Y-109478600D03*
%TD*%
D41*
%TO.C,R54*%
X188601096Y-82428600D03*
X188601096Y-80778600D03*
%TD*%
%TO.C,R2*%
X179251095Y-67828600D03*
X179251095Y-66178600D03*
%TD*%
D49*
%TO.C,R24*%
X130851095Y-101483600D03*
X129201095Y-101483600D03*
%TD*%
D54*
%TO.C,U14*%
X210151097Y-75953602D03*
D55*
X210151097Y-76603601D03*
X210151097Y-77253600D03*
X208251095Y-77253600D03*
X208251095Y-76603601D03*
X208251095Y-75953602D03*
%TD*%
D34*
%TO.C,R48*%
X166726095Y-117178600D03*
X166726095Y-118828600D03*
%TD*%
D41*
%TO.C,R72*%
X211751095Y-77328600D03*
X211751095Y-75678600D03*
%TD*%
D56*
%TO.C,Y1*%
X171501095Y-69503600D03*
X171501095Y-67003600D03*
%TD*%
D37*
%TO.C,C29*%
X129501095Y-113978600D03*
X129501095Y-111028600D03*
%TD*%
D28*
%TO.C,C79*%
X204001095Y-90003600D03*
X204001095Y-88453600D03*
%TD*%
D57*
%TO.C,J6*%
X165001095Y-121663600D03*
D58*
X161251095Y-123003600D03*
D59*
X163751095Y-123003600D03*
X166251095Y-123003600D03*
X168751095Y-123003600D03*
X161251095Y-125503600D03*
X163751095Y-125503600D03*
X166251095Y-125503600D03*
X168751095Y-125503600D03*
D60*
X159081097Y-123293599D03*
X170921073Y-123293599D03*
%TD*%
D39*
%TO.C,X10*%
X151151095Y-61278600D03*
D40*
X151151095Y-63818600D03*
X153691095Y-61278600D03*
X153691095Y-63818600D03*
X156231095Y-61278600D03*
X156231095Y-63818600D03*
X158771095Y-61278600D03*
X158771095Y-63818600D03*
X161311095Y-61278600D03*
X161311095Y-63818600D03*
X163851095Y-61278600D03*
X163851095Y-63818600D03*
X166391095Y-61278600D03*
X166391095Y-63818600D03*
X168931095Y-61278600D03*
X168931095Y-63818600D03*
X171471095Y-61278600D03*
X171471095Y-63818600D03*
X174011095Y-61278600D03*
X174011095Y-63818600D03*
X176551095Y-61278600D03*
X176551095Y-63818600D03*
X179091095Y-61278600D03*
X179091095Y-63818600D03*
%TD*%
D18*
%TO.C,C46*%
X136066095Y-122753600D03*
X139016095Y-122753600D03*
%TD*%
D44*
%TO.C,C18*%
X154726095Y-78253600D03*
X156276095Y-78253600D03*
%TD*%
D34*
%TO.C,R70*%
X204951095Y-69428600D03*
X204951095Y-71078600D03*
%TD*%
D42*
%TO.C,C15*%
X217861812Y-118753600D03*
X216311812Y-118753600D03*
%TD*%
D41*
%TO.C,R57*%
X204451095Y-78078600D03*
X204451095Y-76428600D03*
%TD*%
D26*
%TO.C,Q15*%
X159778095Y-103846200D03*
X159778095Y-102576200D03*
X159778095Y-101306200D03*
X159778095Y-100036200D03*
X165620095Y-100036200D03*
X165620095Y-101306200D03*
X165620095Y-102576200D03*
D27*
X163201595Y-101939899D03*
D26*
X165620095Y-103846200D03*
%TD*%
D61*
%TO.C,D6*%
X155251095Y-101003600D03*
X155251095Y-98503600D03*
%TD*%
D28*
%TO.C,C59*%
X157001095Y-101028600D03*
X157001095Y-99478600D03*
%TD*%
D51*
%TO.C,J10*%
X148553596Y-108078600D03*
X148553596Y-86078600D03*
D52*
X143513596Y-90778600D03*
D53*
X143513596Y-94978600D03*
X143513596Y-99178600D03*
X143513596Y-103378600D03*
X149013596Y-90778600D03*
X149013596Y-94978600D03*
X149013596Y-99178600D03*
X149013596Y-103378600D03*
%TD*%
D19*
%TO.C,TP4*%
X207001095Y-80253600D03*
%TD*%
D16*
%TO.C,U16*%
X180026095Y-112253600D03*
X180026095Y-112753600D03*
X180026095Y-113253600D03*
X180026095Y-113753600D03*
X180026095Y-114253600D03*
X180026095Y-114753600D03*
X177026095Y-114753600D03*
X177026095Y-114253600D03*
X177026095Y-113753600D03*
X177026095Y-113253600D03*
X177026095Y-112753600D03*
X177026095Y-112253600D03*
D62*
X178526095Y-113503600D03*
%TD*%
D19*
%TO.C,TP12*%
X156001095Y-70003600D03*
%TD*%
D63*
%TO.C,IC2*%
X154551095Y-76253600D03*
X154551095Y-75753600D03*
X154551095Y-75253600D03*
X154551095Y-74753600D03*
X154551095Y-74253600D03*
X156451095Y-74253600D03*
X156451095Y-74753600D03*
X156451095Y-75253600D03*
X156451095Y-75753600D03*
X156451095Y-76253600D03*
D64*
X155501095Y-75253600D03*
%TD*%
D65*
%TO.C,IC3*%
X189039096Y-84828600D03*
X189039096Y-85478600D03*
X189039096Y-86128600D03*
X189039096Y-86778600D03*
X189039096Y-87428600D03*
X189039096Y-88078600D03*
X189039096Y-88728600D03*
X189039096Y-89378600D03*
X183163096Y-89378600D03*
X183163096Y-88728600D03*
X183163096Y-88078600D03*
X183163096Y-87428600D03*
X183163096Y-86778600D03*
X183163096Y-86128600D03*
X183163096Y-85478600D03*
X183163096Y-84828600D03*
%TD*%
D66*
%TO.C,Q12*%
X168521095Y-107803600D03*
X168521095Y-109703600D03*
X166501095Y-108753600D03*
%TD*%
D42*
%TO.C,C76*%
X179301095Y-117003600D03*
X177751095Y-117003600D03*
%TD*%
D18*
%TO.C,C27*%
X131276095Y-116253600D03*
X134226095Y-116253600D03*
%TD*%
D22*
%TO.C,R25*%
X129201095Y-102983600D03*
X130851095Y-102983600D03*
%TD*%
D49*
%TO.C,R51*%
X157526095Y-103003600D03*
X155876095Y-103003600D03*
%TD*%
D34*
%TO.C,R74*%
X198951095Y-69428600D03*
X198951095Y-71078600D03*
%TD*%
D28*
%TO.C,C74*%
X181751095Y-111028600D03*
X181751095Y-109478600D03*
%TD*%
D29*
%TO.C,J2*%
X191591095Y-122093600D03*
D31*
X190341095Y-123433600D03*
X190341095Y-125933600D03*
X192841095Y-123433600D03*
X192841095Y-125933600D03*
%TD*%
D34*
%TO.C,R55*%
X197651095Y-107278600D03*
X197651095Y-108928600D03*
%TD*%
%TO.C,R50*%
X190101096Y-80778600D03*
X190101096Y-82428600D03*
%TD*%
D14*
%TO.C,C61*%
X197651095Y-110878600D03*
X197651095Y-112428600D03*
%TD*%
D67*
%TO.C,U6*%
X185151095Y-82503599D03*
D55*
X185151095Y-81853600D03*
X185151095Y-81203601D03*
X187051097Y-81203601D03*
X187051097Y-81853600D03*
X187051097Y-82503599D03*
%TD*%
D68*
%TO.C,X5*%
X125651123Y-119778596D03*
D40*
X128191123Y-119778596D03*
X125651123Y-117238596D03*
X128191123Y-117238596D03*
%TD*%
D49*
%TO.C,R20*%
X217901095Y-115503600D03*
X216251095Y-115503600D03*
%TD*%
D69*
%TO.C,Q14*%
X199806690Y-101394537D03*
X201706690Y-101394537D03*
X200756690Y-103414537D03*
%TD*%
D14*
%TO.C,C11*%
X180663096Y-84828600D03*
X180663096Y-86378600D03*
%TD*%
D70*
%TO.C,RL1*%
X154501095Y-93183600D03*
X154501095Y-88103600D03*
X154501095Y-85563600D03*
X154501095Y-83023600D03*
X161741095Y-83023600D03*
X161741095Y-85563600D03*
X161741095Y-88103600D03*
X161741095Y-93183600D03*
%TD*%
D19*
%TO.C,TP1*%
X144251095Y-67753600D03*
%TD*%
D49*
%TO.C,R62*%
X167582572Y-73712849D03*
X165932572Y-73712849D03*
%TD*%
D22*
%TO.C,R18*%
X216101095Y-110503600D03*
X217751095Y-110503600D03*
%TD*%
D34*
%TO.C,R76*%
X201951095Y-69428600D03*
X201951095Y-71078600D03*
%TD*%
D41*
%TO.C,R52*%
X153501095Y-101003600D03*
X153501095Y-99353600D03*
%TD*%
D71*
%TO.C,D7*%
X156851095Y-95753600D03*
X160151095Y-95753600D03*
%TD*%
D14*
%TO.C,C77*%
X204001095Y-84203600D03*
X204001095Y-85753600D03*
%TD*%
%TO.C,C56*%
X169726095Y-117478600D03*
X169726095Y-119028600D03*
%TD*%
D49*
%TO.C,R49*%
X157501095Y-104503600D03*
X155851095Y-104503600D03*
%TD*%
D41*
%TO.C,R22*%
X128026095Y-99869418D03*
X128026095Y-98219418D03*
%TD*%
D49*
%TO.C,R19*%
X217901095Y-117003600D03*
X216251095Y-117003600D03*
%TD*%
D61*
%TO.C,D2*%
X129776095Y-99733600D03*
X129776095Y-97233600D03*
%TD*%
D42*
%TO.C,C65*%
X159751095Y-70753600D03*
X158201095Y-70753600D03*
%TD*%
%TO.C,C71*%
X200903566Y-78448198D03*
X199353566Y-78448198D03*
%TD*%
D72*
%TO.C,X16*%
X217651087Y-67278624D03*
D40*
X215111087Y-67278624D03*
X217651087Y-69818624D03*
X215111087Y-69818624D03*
X217651087Y-72358624D03*
X215111087Y-72358624D03*
X217651087Y-74898624D03*
X215111087Y-74898624D03*
X217651087Y-77438624D03*
X215111087Y-77438624D03*
X217651087Y-79978624D03*
X215111087Y-79978624D03*
X217651087Y-82518624D03*
X215111087Y-82518624D03*
X217651087Y-85058624D03*
X215111087Y-85058624D03*
X217651087Y-87598624D03*
X215111087Y-87598624D03*
X217651087Y-90138624D03*
X215111087Y-90138624D03*
X217651087Y-92678624D03*
X215111087Y-92678624D03*
X217651087Y-95218624D03*
X215111087Y-95218624D03*
%TD*%
D28*
%TO.C,C22*%
X152251095Y-75778600D03*
X152251095Y-74228600D03*
%TD*%
%TO.C,C17*%
X131526095Y-99819418D03*
X131526095Y-98269418D03*
%TD*%
D42*
%TO.C,C4*%
X190301095Y-113753600D03*
X188751095Y-113753600D03*
%TD*%
D41*
%TO.C,R44*%
X173751095Y-105578600D03*
X173751095Y-103928600D03*
%TD*%
D59*
%TO.C,J7*%
X212751095Y-110503600D03*
X212751095Y-113003600D03*
X212751095Y-115503600D03*
X210251095Y-110503600D03*
X210251095Y-113003600D03*
X210251095Y-115503600D03*
%TD*%
D73*
%TO.C,U4*%
X164734193Y-115677257D03*
X164734193Y-114407257D03*
X164734193Y-113137257D03*
X164734193Y-111867257D03*
X169684193Y-111867257D03*
X169684193Y-113137257D03*
X169684193Y-114407257D03*
X169684193Y-115677257D03*
%TD*%
D74*
%TO.C,IC4*%
X188726095Y-117703600D03*
X188726095Y-116753600D03*
X188726095Y-115803600D03*
X191226095Y-115803600D03*
X191226095Y-116753600D03*
X191226095Y-117703600D03*
%TD*%
D75*
%TO.C,L1*%
X182276095Y-114816100D03*
X182276095Y-112691100D03*
%TD*%
D14*
%TO.C,C20*%
X192501095Y-67503600D03*
X192501095Y-69053600D03*
%TD*%
D28*
%TO.C,C2*%
X210751095Y-72828600D03*
X210751095Y-71278600D03*
%TD*%
D19*
%TO.C,TP9*%
X147751095Y-63503600D03*
%TD*%
D44*
%TO.C,C67*%
X165976095Y-66253600D03*
X167526095Y-66253600D03*
%TD*%
D19*
%TO.C,TP2*%
X160251095Y-119003600D03*
%TD*%
D18*
%TO.C,C33*%
X136031095Y-125983600D03*
X138981095Y-125983600D03*
%TD*%
D28*
%TO.C,C80*%
X174001095Y-111028600D03*
X174001095Y-109478600D03*
%TD*%
D76*
%TO.C,J11*%
X209801095Y-101628600D03*
D77*
X209801095Y-102878600D03*
%TD*%
D69*
%TO.C,Q19*%
X206501095Y-70993600D03*
X208401095Y-70993600D03*
X207451095Y-73013600D03*
%TD*%
D34*
%TO.C,R73*%
X206751095Y-74353600D03*
X206751095Y-76003600D03*
%TD*%
D78*
%TO.C,U10*%
X168901095Y-68003600D03*
X168901095Y-68503600D03*
X168901095Y-69003600D03*
X168901095Y-69503600D03*
X168901095Y-70003600D03*
X164501095Y-70003600D03*
X164501095Y-69503600D03*
X164501095Y-69003600D03*
X164501095Y-68503600D03*
X164501095Y-68003600D03*
%TD*%
D14*
%TO.C,C1*%
X212251095Y-71228600D03*
X212251095Y-72778600D03*
%TD*%
D49*
%TO.C,R53*%
X201726095Y-99403600D03*
X200076095Y-99403600D03*
%TD*%
D38*
%TO.C,Q8*%
X126951095Y-103763600D03*
X125051095Y-103763600D03*
X126001095Y-101743600D03*
%TD*%
D19*
%TO.C,TP10*%
X153001095Y-66503600D03*
%TD*%
D14*
%TO.C,C75*%
X184026095Y-112953600D03*
X184026095Y-114503600D03*
%TD*%
D41*
%TO.C,R1*%
X156001095Y-67578600D03*
X156001095Y-65928600D03*
%TD*%
D68*
%TO.C,JP1*%
X160751095Y-115278600D03*
D40*
X160751095Y-112738600D03*
%TD*%
M02*
