M48
; DRILL file {KiCad 8.0.5} date 2024-12-26T16:36:08+0000
; FORMAT={-:-/ absolute / inch / decimal}
; #@! TF.CreationDate,2024-12-26T16:36:08+00:00
; #@! TF.GenerationSoftware,Kicad,Pcbnew,8.0.5
; #@! TF.FileFunction,Plated,1,4,PTH
FMAT,2
INCH
; #@! TA.AperFunction,Plated,PTH,ViaDrill
T1C0.0118
; #@! TA.AperFunction,Plated,PTH,ViaDrill
T2C0.0157
; #@! TA.AperFunction,Plated,PTH,ViaDrill
T3C0.0197
; #@! TA.AperFunction,Plated,PTH,ComponentDrill
T4C0.0197
; #@! TA.AperFunction,Plated,PTH,ComponentDrill
T5C0.0354
; #@! TA.AperFunction,Plated,PTH,ComponentDrill
T6C0.0394
; #@! TA.AperFunction,Plated,PTH,ComponentDrill
T7C0.0402
; #@! TA.AperFunction,Plated,PTH,ComponentDrill
T8C0.0472
; #@! TA.AperFunction,Plated,PTH,ComponentDrill
T9C0.0492
; #@! TA.AperFunction,Plated,PTH,ComponentDrill
T10C0.0551
; #@! TA.AperFunction,Plated,PTH,ComponentDrill
T11C0.0630
; #@! TA.AperFunction,Plated,PTH,ComponentDrill
T12C0.0949
; #@! TA.AperFunction,Plated,PTH,ComponentDrill
T13C0.1260
%
G90
G05
T1
X4.8347Y-3.7797
X4.8347Y-3.8584
X4.8347Y-3.9371
X4.8347Y-4.0159
X4.8347Y-4.0946
X4.8347Y-4.1734
X4.8347Y-4.2521
X4.8347Y-4.3309
X4.8347Y-4.4096
X4.8347Y-4.4883
X4.8347Y-4.5671
X4.8347Y-4.6458
X4.8347Y-4.7246
X4.8347Y-4.8033
X4.8347Y-4.882
X4.8524Y-2.5789
X4.8524Y-2.6576
X4.8918Y-3.7403
X4.9331Y-2.6576
X4.9607Y-4.4293
X4.9705Y-3.7403
X5.0119Y-2.6576
X5.0296Y-4.4883
X5.0493Y-3.7403
X5.0651Y-2.3489
X5.0788Y-4.9945
X5.0906Y-2.6576
X5.128Y-3.7403
X5.1438Y-2.3489
X5.1457Y-5.0828
X5.1675Y-4.768
X5.168Y-4.6381
X5.1684Y-4.9017
X5.1693Y-2.6576
X5.2067Y-3.7403
X5.2225Y-2.3489
X5.2245Y-5.0828
X5.2265Y-4.5764
X5.2265Y-4.9607
X5.227Y-4.8361
X5.2276Y-4.7048
X5.2481Y-2.6576
X5.2855Y-3.7403
X5.3013Y-2.3489
X5.3032Y-5.0828
X5.3268Y-2.6576
X5.3548Y-4.897
X5.3552Y-4.639
X5.3555Y-4.7676
X5.3642Y-3.7403
X5.38Y-2.3489
X5.3819Y-5.0828
X5.4036Y-2.6871
X5.4116Y-4.8327
X5.4134Y-3.6911
X5.4144Y-4.578
X5.4144Y-4.7048
X5.4144Y-4.9612
X5.4371Y-2.756
X5.4371Y-2.8348
X5.4371Y-2.9135
X5.4371Y-2.9923
X5.4371Y-3.071
X5.4371Y-3.1497
X5.4371Y-3.2285
X5.4371Y-3.3072
X5.4371Y-3.386
X5.4371Y-3.4647
X5.4371Y-3.5439
X5.4371Y-3.6226
X5.4588Y-2.3489
X5.4607Y-5.0828
X5.5375Y-2.3489
X5.5394Y-5.0828
X5.6162Y-2.3489
X5.6182Y-5.0828
X5.6402Y-4.9498
X5.695Y-2.3489
X5.6969Y-5.0828
X5.7009Y-4.8902
X5.7737Y-2.3489
X5.7756Y-5.0828
X5.8525Y-2.3489
X5.8544Y-5.0828
X5.9312Y-2.3489
X5.9331Y-5.0828
X5.9341Y-4.9437
X5.9351Y-2.7167
X5.9646Y-3.4942
X5.9745Y-3.7403
X5.9745Y-3.819
X5.9745Y-4.1832
X5.9745Y-4.2423
X6.0099Y-2.3489
X6.0119Y-5.0828
X6.0335Y-2.8264
X6.0335Y-3.0809
X6.0335Y-3.4155
X6.0887Y-2.3489
X6.0906Y-5.0828
X6.1221Y-2.884
X6.1221Y-3.0316
X6.1516Y-3.8289
X6.1516Y-4.1931
X6.1516Y-4.2521
X6.1516Y-4.3112
X6.1674Y-2.3489
X6.1693Y-5.0828
X6.2254Y-2.569
X6.2402Y-4.1537
X6.2462Y-2.3489
X6.2481Y-5.0828
X6.25Y-4.0159
X6.25Y-4.0651
X6.2576Y-3.15
X6.2599Y-3.8781
X6.2613Y-2.7497
X6.2796Y-3.0415
X6.2894Y-4.7836
X6.2993Y-2.8348
X6.3249Y-2.3489
X6.3268Y-5.0828
X6.3386Y-2.7856
X6.3485Y-2.7108
X6.3485Y-3.7305
X6.359Y-2.9013
X6.3718Y-3.2258
X6.3776Y-3.3089
X6.378Y-2.697
X6.3977Y-4.7442
X6.4036Y-2.3489
X6.4056Y-5.0828
X6.4174Y-2.7954
X6.4223Y-3.408
X6.4567Y-2.8249
X6.4567Y-2.9529
X6.4567Y-2.9775
X6.4567Y-3.0021
X6.4567Y-4.7413
X6.4616Y-2.8965
X6.4666Y-3.2285
X6.4666Y-3.8781
X6.4824Y-2.3489
X6.4843Y-5.0828
X6.4864Y-4.3517
X6.4961Y-3.0415
X6.5002Y-2.5578
X6.5012Y-3.7992
X6.5059Y-4.6261
X6.5132Y-4.1904
X6.5355Y-3.1104
X6.5357Y-3.7097
X6.5598Y-2.6496
X6.5611Y-2.3489
X6.563Y-5.0828
X6.5709Y-2.7364
X6.5827Y-3.1419
X6.5945Y-2.5592
X6.6044Y-3.6419
X6.618Y-4.0371
X6.6339Y-4.2816
X6.6339Y-4.7049
X6.6399Y-2.3489
X6.6418Y-5.0828
X6.6437Y-4.1242
X6.6726Y-3.9108
X6.6827Y-4.0503
X6.692Y-3.1606
X6.693Y-2.9332
X6.6969Y-3.0592
X6.7028Y-2.5592
X6.7186Y-2.3489
X6.7205Y-5.0828
X6.7225Y-3.8358
X6.752Y-4.2029
X6.752Y-4.4096
X6.752Y-4.4785
X6.7717Y-4.1537
X6.7845Y-4.5474
X6.7914Y-3.6025
X6.7914Y-3.8092
X6.7963Y-3.8929
X6.7973Y-2.3489
X6.7993Y-5.0828
X6.8353Y-2.7226
X6.8504Y-3.9667
X6.8504Y-4.4194
X6.8638Y-4.5091
X6.8761Y-2.3489
X6.878Y-5.0828
X6.88Y-3.3958
X6.8872Y-3.9739
X6.8922Y-2.6994
X6.8996Y-3.6911
X6.8996Y-4.3112
X6.8996Y-4.3899
X6.9118Y-4.0454
X6.9134Y-4.5316
X6.9287Y-2.6992
X6.9548Y-2.3489
X6.9567Y-5.0828
X6.9625Y-3.3493
X6.963Y-2.6986
X6.9961Y-2.697
X6.9961Y-4.1074
X7.0276Y-3.2482
X7.0336Y-2.3489
X7.0355Y-5.0828
X7.0355Y-3.4405
X7.0374Y-3.5336
X7.0571Y-4.3801
X7.0605Y-4.311
X7.0649Y-3.6103
X7.067Y-3.8879
X7.067Y-4.1143
X7.077Y-4.215
X7.0827Y-2.7049
X7.0843Y-4.5605
X7.0965Y-4.3702
X7.1123Y-2.3489
X7.1142Y-5.0828
X7.1228Y-3.3001
X7.1713Y-3.3912
X7.1752Y-3.6025
X7.1752Y-3.76
X7.1851Y-3.9962
X7.191Y-2.3489
X7.193Y-5.0828
X7.1949Y-2.4608
X7.1949Y-4.3712
X7.2081Y-4.1818
X7.2343Y-3.0316
X7.2373Y-3.1254
X7.243Y-4.2179
X7.2461Y-4.5599
X7.2698Y-2.3489
X7.2703Y-3.3531
X7.2717Y-5.0828
X7.2737Y-3.4352
X7.2894Y-3.4064
X7.3018Y-3.1236
X7.3032Y-3.7836
X7.3229Y-2.9037
X7.3229Y-3.199
X7.3347Y-4.3505
X7.3364Y-3.4979
X7.3426Y-4.4982
X7.3485Y-2.3489
X7.3504Y-5.0828
X7.3787Y-3.1233
X7.3796Y-4.8699
X7.4016Y-2.569
X7.4115Y-3.5631
X7.4273Y-2.3489
X7.4292Y-5.0828
X7.441Y-2.8446
X7.4508Y-3.1399
X7.5Y-2.569
X7.5Y-3.4765
X7.506Y-2.3489
X7.5079Y-3.2826
X7.5079Y-3.3663
X7.5079Y-5.0828
X7.5237Y-3.4155
X7.5493Y-3.3663
X7.5847Y-2.3489
X7.5867Y-5.0828
X7.6103Y-3.5001
X7.6182Y-2.8446
X7.622Y-3.098
X7.628Y-2.6576
X7.636Y-3.5304
X7.6477Y-2.9037
X7.6477Y-4.5671
X7.6619Y-3.1425
X7.6635Y-2.3489
X7.6654Y-5.0828
X7.7048Y-3.76
X7.7067Y-3.1694
X7.7363Y-2.8446
X7.7363Y-4.4293
X7.7363Y-4.4736
X7.7422Y-2.3489
X7.7441Y-5.0828
X7.7658Y-2.9037
X7.7815Y-4.3269
X7.7821Y-4.4736
X7.7953Y-2.569
X7.7953Y-2.9627
X7.8052Y-3.0907
X7.8136Y-2.9346
X7.821Y-2.3489
X7.8229Y-5.0828
X7.8424Y-4.7442
X7.8445Y-3.2482
X7.8581Y-2.8459
X7.8622Y-2.7334
X7.8777Y-4.2767
X7.8928Y-2.8446
X7.8937Y-3.1891
X7.8997Y-2.3489
X7.9016Y-5.0828
X7.9095Y-4.6133
X7.9233Y-3.8387
X7.943Y-3.1399
X7.943Y-4.5572
X7.9433Y-4.7954
X7.9489Y-3.5395
X7.9508Y-2.8446
X7.9528Y-4.4844
X7.9784Y-2.3489
X7.9804Y-5.0828
X7.9818Y-3.0823
X7.9823Y-2.9037
X8.0062Y-3.0349
X8.0217Y-2.9332
X8.0284Y-4.2774
X8.0315Y-2.8742
X8.0315Y-3.2679
X8.0315Y-3.4253
X8.0414Y-4.7442
X8.0572Y-2.3489
X8.0591Y-5.0828
X8.0808Y-2.9655
X8.1004Y-4.3269
X8.1054Y-2.9224
X8.1359Y-2.3489
X8.1378Y-5.0828
X8.1398Y-3.7206
X8.1627Y-2.8277
X8.1666Y-2.7082
X8.1792Y-5.0001
X8.1969Y-3.2521
X8.2087Y-3.4844
X8.2087Y-3.7895
X8.2147Y-2.3489
X8.2166Y-5.0828
X8.2224Y-3.4062
X8.2481Y-3.6517
X8.2491Y-3.2521
X8.2678Y-3.0809
X8.2756Y-3.4057
X8.2874Y-2.6183
X8.2874Y-3.8781
X8.2934Y-2.3489
X8.2953Y-5.0828
X8.3071Y-3.7108
X8.3465Y-3.3171
X8.3563Y-4.1537
X8.3721Y-2.3489
X8.3741Y-5.0828
X8.3859Y-3.7895
X8.3859Y-3.9765
X8.3859Y-4.2226
X8.4509Y-2.3489
X8.4528Y-5.0828
X8.4548Y-4.0553
X8.4548Y-4.2226
X8.4892Y-4.1094
X8.4941Y-4.3899
X8.5158Y-2.8979
X8.5158Y-3.0007
X8.5169Y-3.6018
X8.5176Y-3.4996
X8.5178Y-3.2985
X8.5182Y-3.7059
X8.5182Y-3.8242
X8.5237Y-4.4391
X8.5335Y-3.9371
X8.5434Y-4.7639
X8.5434Y-4.8525
X8.566Y-4.509
X8.5709Y-4.1143
X8.6075Y-4.0013
X8.6075Y-4.1703
X8.6693Y-4.7246
X8.6693Y-4.8033
X8.6693Y-4.882
X8.6693Y-2.5986
X8.6693Y-2.6773
X8.6693Y-2.756
X8.6693Y-2.8348
X8.6693Y-2.9135
X8.6693Y-2.9923
X8.6693Y-3.071
X8.6693Y-3.1497
X8.6693Y-3.2285
X8.6693Y-3.3072
X8.6693Y-3.386
X8.6693Y-3.4647
X8.6693Y-3.5434
X8.6693Y-3.6222
X8.6693Y-3.7009
X8.6693Y-3.7797
X8.6693Y-3.8584
X8.6693Y-3.9371
X8.6693Y-4.0159
X8.6693Y-4.0946
X8.6693Y-4.1734
X8.6693Y-4.2521
X8.6693Y-4.3309
X8.6693Y-4.4096
X8.6693Y-4.4883
X8.6693Y-4.5671
X8.6693Y-4.6458
T2
X5.2264Y-3.9371
X5.2264Y-3.9864
X5.2591Y-3.9371
X5.2591Y-3.9864
X5.3937Y-3.8978
X5.3937Y-3.9765
X5.3938Y-3.9385
X6.1418Y-2.697
X6.2067Y-3.5312
X6.2067Y-3.5824
X6.2067Y-3.6316
X6.2067Y-3.6828
X6.2205Y-3.7501
X6.4272Y-3.9765
X6.4272Y-4.011
X6.4272Y-4.0454
X6.6821Y-4.5868
X7.4115Y-4.2521
X7.4115Y-4.2816
X7.4116Y-4.3112
X7.5886Y-3.0553
T3
X5.817Y-2.5001
X6.045Y-2.6067
X6.063Y-4.2816
X6.063Y-4.321
X6.063Y-4.3997
X6.063Y-4.4391
X6.1713Y-3.3686
X6.1713Y-3.4686
X6.2074Y-3.3686
X6.2107Y-3.4686
X6.2435Y-3.3686
X6.25Y-3.4686
X6.2796Y-3.3686
X6.2894Y-3.4686
X6.8012Y-3.2777
X6.8996Y-4.2127
X7.1221Y-3.9371
X7.13Y-4.1852
X7.1752Y-3.1399
X7.3229Y-4.4194
T4
X8.2599Y-4.0011
X8.2599Y-4.0503
T5
X6.0418Y-4.5828
X6.0418Y-4.6828
X6.0418Y-4.7828
X6.0418Y-4.8828
X6.1418Y-4.5328
X6.1418Y-4.6328
X6.1418Y-4.7328
X6.1418Y-4.8328
T6
X4.9469Y-4.6157
X4.9469Y-4.7157
X5.0469Y-4.6157
X5.0469Y-4.7157
X5.9508Y-2.4125
X5.9508Y-2.5125
X6.0508Y-2.4125
X6.0508Y-2.5125
X6.1508Y-2.4125
X6.1508Y-2.5125
X6.2508Y-2.4125
X6.2508Y-2.5125
X6.3288Y-4.4385
X6.3288Y-4.5385
X6.3508Y-2.4125
X6.3508Y-2.5125
X6.4508Y-2.4125
X6.4508Y-2.5125
X6.5508Y-2.4125
X6.5508Y-2.5125
X6.6508Y-2.4125
X6.6508Y-2.5125
X6.7508Y-2.4125
X6.7508Y-2.5125
X6.8508Y-2.4125
X6.8508Y-2.5125
X6.9508Y-2.4125
X6.9508Y-2.5125
X7.0508Y-2.4125
X7.0508Y-2.5125
X7.2508Y-2.4125
X7.2508Y-2.5125
X7.3508Y-2.4125
X7.3508Y-2.5125
X7.4508Y-2.4125
X7.4508Y-2.5125
X7.5508Y-2.4125
X7.5508Y-2.5125
X7.6508Y-2.4125
X7.6508Y-2.5125
X7.7508Y-2.4125
X7.7508Y-2.5125
X7.8508Y-2.4125
X7.8508Y-2.5125
X7.9508Y-2.4125
X7.9508Y-2.5125
X8.0508Y-2.4125
X8.0508Y-2.5125
X8.1508Y-2.4125
X8.1508Y-2.5125
X8.2508Y-2.4125
X8.2508Y-2.5125
X8.3508Y-2.4125
X8.3508Y-2.5125
X8.4689Y-2.6488
X8.4689Y-2.7488
X8.4689Y-2.8488
X8.4689Y-2.9488
X8.4689Y-3.0488
X8.4689Y-3.1488
X8.4689Y-3.2488
X8.4689Y-3.3488
X8.4689Y-3.4488
X8.4689Y-3.5488
X8.4689Y-3.6488
X8.4689Y-3.7488
X8.5689Y-2.6488
X8.5689Y-2.7488
X8.5689Y-2.8488
X8.5689Y-2.9488
X8.5689Y-3.0488
X8.5689Y-3.1488
X8.5689Y-3.2488
X8.5689Y-3.3488
X8.5689Y-3.4488
X8.5689Y-3.5488
X8.5689Y-3.6488
X8.5689Y-3.7488
T7
X6.9489Y-4.8131
X6.9489Y-4.9312
X7.067Y-4.8131
X7.067Y-4.9312
X7.1851Y-4.8131
X7.1851Y-4.9312
T8
X6.3485Y-4.8427
X6.3485Y-4.9411
X6.4469Y-4.8427
X6.4469Y-4.9411
X6.5453Y-4.8427
X6.5453Y-4.9411
X6.6437Y-4.8427
X6.6437Y-4.9411
X8.2776Y-4.3505
X8.2776Y-4.449
X8.2776Y-4.5474
X8.2874Y-4.9116
X8.376Y-4.3505
X8.376Y-4.449
X8.376Y-4.5474
X8.3859Y-4.9116
T9
X7.4937Y-4.8596
X7.4937Y-4.958
X7.5922Y-4.8596
X7.5922Y-4.958
X7.7953Y-4.9116
X7.8937Y-4.9116
X7.9922Y-4.9116
X8.0906Y-4.9116
T10
X5.6477Y-2.8604
X5.6477Y-3.0257
X5.6501Y-3.574
X5.6501Y-3.7393
X5.6501Y-3.9047
X5.6501Y-4.07
X5.8642Y-2.8604
X5.8642Y-3.0257
X5.8667Y-3.574
X5.8667Y-3.7393
X5.8667Y-3.9047
X5.8667Y-4.07
T11
X6.263Y-4.8541
X6.7292Y-4.8541
T12
X6.8642Y-4.8722
X7.2697Y-4.8722
T13
X4.9075Y-2.4322
X4.9075Y-5.0307
X8.6083Y-2.4322
X8.6083Y-5.0307
M30
