%TF.GenerationSoftware,KiCad,Pcbnew,8.0.5*%
%TF.CreationDate,2024-12-26T16:36:04+00:00*%
%TF.ProjectId,mallow_adapt_v1.2,6d616c6c-6f77-45f6-9164-6170745f7631,rev?*%
%TF.SameCoordinates,Original*%
%TF.FileFunction,Paste,Top*%
%TF.FilePolarity,Positive*%
%FSLAX46Y46*%
G04 Gerber Fmt 4.6, Leading zero omitted, Abs format (unit mm)*
G04 Created by KiCad (PCBNEW 8.0.5) date 2024-12-26 16:36:04*
%MOMM*%
%LPD*%
G01*
G04 APERTURE LIST*
G04 Aperture macros list*
%AMRoundRect*
0 Rectangle with rounded corners*
0 $1 Rounding radius*
0 $2 $3 $4 $5 $6 $7 $8 $9 X,Y pos of 4 corners*
0 Add a 4 corners polygon primitive as box body*
4,1,4,$2,$3,$4,$5,$6,$7,$8,$9,$2,$3,0*
0 Add four circle primitives for the rounded corners*
1,1,$1+$1,$2,$3*
1,1,$1+$1,$4,$5*
1,1,$1+$1,$6,$7*
1,1,$1+$1,$8,$9*
0 Add four rect primitives between the rounded corners*
20,1,$1+$1,$2,$3,$4,$5,0*
20,1,$1+$1,$4,$5,$6,$7,0*
20,1,$1+$1,$6,$7,$8,$9,0*
20,1,$1+$1,$8,$9,$2,$3,0*%
G04 Aperture macros list end*
%ADD10C,0.000000*%
%ADD11RoundRect,0.250000X-0.312500X-0.625000X0.312500X-0.625000X0.312500X0.625000X-0.312500X0.625000X0*%
%ADD12RoundRect,0.250000X-0.325000X-1.100000X0.325000X-1.100000X0.325000X1.100000X-0.325000X1.100000X0*%
%ADD13RoundRect,0.087500X0.337500X0.087500X-0.337500X0.087500X-0.337500X-0.087500X0.337500X-0.087500X0*%
%ADD14RoundRect,0.200000X-0.275000X0.200000X-0.275000X-0.200000X0.275000X-0.200000X0.275000X0.200000X0*%
%ADD15RoundRect,0.200000X0.200000X0.275000X-0.200000X0.275000X-0.200000X-0.275000X0.200000X-0.275000X0*%
%ADD16RoundRect,0.250000X0.325000X1.100000X-0.325000X1.100000X-0.325000X-1.100000X0.325000X-1.100000X0*%
%ADD17RoundRect,0.250000X-0.250000X-0.475000X0.250000X-0.475000X0.250000X0.475000X-0.250000X0.475000X0*%
%ADD18RoundRect,0.225000X0.250000X-0.225000X0.250000X0.225000X-0.250000X0.225000X-0.250000X-0.225000X0*%
%ADD19RoundRect,0.250000X0.450000X-0.262500X0.450000X0.262500X-0.450000X0.262500X-0.450000X-0.262500X0*%
%ADD20RoundRect,0.250000X-0.650000X0.325000X-0.650000X-0.325000X0.650000X-0.325000X0.650000X0.325000X0*%
%ADD21RoundRect,0.200000X0.275000X-0.200000X0.275000X0.200000X-0.275000X0.200000X-0.275000X-0.200000X0*%
%ADD22RoundRect,0.225000X-0.225000X-0.250000X0.225000X-0.250000X0.225000X0.250000X-0.225000X0.250000X0*%
%ADD23RoundRect,0.150000X0.150000X-0.587500X0.150000X0.587500X-0.150000X0.587500X-0.150000X-0.587500X0*%
%ADD24RoundRect,0.150000X-0.587500X-0.150000X0.587500X-0.150000X0.587500X0.150000X-0.587500X0.150000X0*%
%ADD25R,0.800000X0.600000*%
%ADD26R,0.600000X0.800000*%
%ADD27RoundRect,0.250000X-0.625000X0.312500X-0.625000X-0.312500X0.625000X-0.312500X0.625000X0.312500X0*%
%ADD28RoundRect,0.200000X-0.200000X-0.275000X0.200000X-0.275000X0.200000X0.275000X-0.200000X0.275000X0*%
%ADD29RoundRect,0.225000X0.225000X0.250000X-0.225000X0.250000X-0.225000X-0.250000X0.225000X-0.250000X0*%
%ADD30R,0.420000X0.600000*%
%ADD31O,0.420000X0.600000*%
%ADD32RoundRect,0.250000X0.650000X-0.325000X0.650000X0.325000X-0.650000X0.325000X-0.650000X-0.325000X0*%
%ADD33RoundRect,0.250000X1.100000X-0.325000X1.100000X0.325000X-1.100000X0.325000X-1.100000X-0.325000X0*%
%ADD34RoundRect,0.250000X-1.425000X0.362500X-1.425000X-0.362500X1.425000X-0.362500X1.425000X0.362500X0*%
%ADD35RoundRect,0.250000X0.650000X-1.000000X0.650000X1.000000X-0.650000X1.000000X-0.650000X-1.000000X0*%
%ADD36R,1.500000X3.430000*%
%ADD37RoundRect,0.250000X-0.475000X0.250000X-0.475000X-0.250000X0.475000X-0.250000X0.475000X0.250000X0*%
%ADD38R,1.250000X0.600000*%
%ADD39RoundRect,0.250000X0.325000X0.650000X-0.325000X0.650000X-0.325000X-0.650000X0.325000X-0.650000X0*%
%ADD40RoundRect,0.225000X-0.250000X0.225000X-0.250000X-0.225000X0.250000X-0.225000X0.250000X0.225000X0*%
%ADD41R,1.525000X0.700000*%
%ADD42R,2.400000X3.200000*%
%ADD43RoundRect,0.075000X-0.600000X-0.225000X0.600000X-0.225000X0.600000X0.225000X-0.600000X0.225000X0*%
%ADD44RoundRect,0.250000X0.625000X-0.312500X0.625000X0.312500X-0.625000X0.312500X-0.625000X-0.312500X0*%
%ADD45RoundRect,0.150000X-0.150000X0.825000X-0.150000X-0.825000X0.150000X-0.825000X0.150000X0.825000X0*%
%ADD46RoundRect,0.225000X-0.225000X-0.375000X0.225000X-0.375000X0.225000X0.375000X-0.225000X0.375000X0*%
%ADD47RoundRect,0.100000X-0.100000X0.637500X-0.100000X-0.637500X0.100000X-0.637500X0.100000X0.637500X0*%
%ADD48RoundRect,0.150000X0.512500X0.150000X-0.512500X0.150000X-0.512500X-0.150000X0.512500X-0.150000X0*%
%ADD49R,1.016000X0.406400*%
%ADD50R,3.821000X3.908998*%
%ADD51RoundRect,0.250000X0.475000X-0.250000X0.475000X0.250000X-0.475000X0.250000X-0.475000X-0.250000X0*%
G04 APERTURE END LIST*
D10*
%TO.C,Q4*%
G36*
X191840862Y-116096667D02*
G01*
X190762395Y-116096667D01*
X190762395Y-114992800D01*
X191840862Y-114992800D01*
X191840862Y-116096667D01*
G37*
G36*
X191840862Y-117400534D02*
G01*
X190762395Y-117400534D01*
X190762395Y-116296666D01*
X191840862Y-116296666D01*
X191840862Y-117400534D01*
G37*
G36*
X191840862Y-118704400D02*
G01*
X190762395Y-118704400D01*
X190762395Y-117600533D01*
X191840862Y-117600533D01*
X191840862Y-118704400D01*
G37*
G36*
X193119329Y-116096667D02*
G01*
X192040861Y-116096667D01*
X192040861Y-114992800D01*
X193119329Y-114992800D01*
X193119329Y-116096667D01*
G37*
G36*
X193119329Y-117400534D02*
G01*
X192040861Y-117400534D01*
X192040861Y-116296666D01*
X193119329Y-116296666D01*
X193119329Y-117400534D01*
G37*
G36*
X193119329Y-118704400D02*
G01*
X192040861Y-118704400D01*
X192040861Y-117600533D01*
X193119329Y-117600533D01*
X193119329Y-118704400D01*
G37*
G36*
X194397795Y-116096667D02*
G01*
X193319328Y-116096667D01*
X193319328Y-114992800D01*
X194397795Y-114992800D01*
X194397795Y-116096667D01*
G37*
G36*
X194397795Y-117400534D02*
G01*
X193319328Y-117400534D01*
X193319328Y-116296666D01*
X194397795Y-116296666D01*
X194397795Y-117400534D01*
G37*
G36*
X194397795Y-118704400D02*
G01*
X193319328Y-118704400D01*
X193319328Y-117600533D01*
X194397795Y-117600533D01*
X194397795Y-118704400D01*
G37*
G36*
X196009095Y-115146800D02*
G01*
X194993095Y-115146800D01*
X194993095Y-116010400D01*
X196009095Y-116010400D01*
X196009095Y-116416800D01*
X194993095Y-116416800D01*
X194993095Y-117280400D01*
X196009095Y-117280400D01*
X196009095Y-117686800D01*
X194993095Y-117686800D01*
X194993095Y-118550400D01*
X196009095Y-118550400D01*
X196009095Y-118956800D01*
X194993095Y-118956800D01*
X194993095Y-118804400D01*
X191157695Y-118804400D01*
X191157695Y-114892800D01*
X194993095Y-114892800D01*
X194993095Y-114740400D01*
X196009095Y-114740400D01*
X196009095Y-115146800D01*
G37*
%TD*%
D11*
%TO.C,R32*%
X215538595Y-121003600D03*
X218463595Y-121003600D03*
%TD*%
D12*
%TO.C,C47*%
X131276095Y-122753600D03*
X134226095Y-122753600D03*
%TD*%
D13*
%TO.C,U13*%
X168001095Y-99003600D03*
X168001095Y-98353600D03*
X168001095Y-97703600D03*
X165801095Y-97703600D03*
X165801095Y-99003600D03*
%TD*%
D14*
%TO.C,R64*%
X173251095Y-77678600D03*
X173251095Y-79328600D03*
%TD*%
D15*
%TO.C,R35*%
X182326095Y-104503600D03*
X180676095Y-104503600D03*
%TD*%
D16*
%TO.C,C41*%
X128476095Y-123003600D03*
X125526095Y-123003600D03*
%TD*%
D17*
%TO.C,C9*%
X161801095Y-87753600D03*
X163701095Y-87753600D03*
%TD*%
D18*
%TO.C,C70*%
X171501095Y-79278600D03*
X171501095Y-77728600D03*
%TD*%
D19*
%TO.C,R16*%
X195251095Y-125666100D03*
X195251095Y-123841100D03*
%TD*%
D20*
%TO.C,C52*%
X129251095Y-61278600D03*
X129251095Y-64228600D03*
%TD*%
D18*
%TO.C,C28*%
X170255902Y-85446818D03*
X170255902Y-83896818D03*
%TD*%
D21*
%TO.C,R67*%
X170676076Y-98329051D03*
X170676076Y-96679051D03*
%TD*%
D22*
%TO.C,C69*%
X166226095Y-96003600D03*
X167776095Y-96003600D03*
%TD*%
D23*
%TO.C,D5*%
X198251095Y-120753600D03*
X200151095Y-120753600D03*
X199201095Y-118878600D03*
%TD*%
D24*
%TO.C,D3*%
X172476095Y-112803600D03*
X172476095Y-114703600D03*
X174351095Y-113753600D03*
%TD*%
D15*
%TO.C,R47*%
X200076095Y-115753600D03*
X198426095Y-115753600D03*
%TD*%
D25*
%TO.C,Q17*%
X159021095Y-99453600D03*
X159021095Y-97553600D03*
X157001095Y-98503600D03*
%TD*%
D15*
%TO.C,R39*%
X172326095Y-110753600D03*
X170676095Y-110753600D03*
%TD*%
D21*
%TO.C,R4*%
X207351095Y-67828600D03*
X207351095Y-66178600D03*
%TD*%
D26*
%TO.C,Q18*%
X169751095Y-102003600D03*
X171651095Y-102003600D03*
X170701095Y-99983600D03*
%TD*%
%TO.C,Q1*%
X185951095Y-100493600D03*
X184051095Y-100493600D03*
X185001095Y-102513600D03*
%TD*%
D27*
%TO.C,R31*%
X150656095Y-124041100D03*
X150656095Y-126966100D03*
%TD*%
D21*
%TO.C,R60*%
X142628916Y-62995834D03*
X142628916Y-61345834D03*
%TD*%
%TO.C,R26*%
X161251095Y-67403600D03*
X161251095Y-65753600D03*
%TD*%
D28*
%TO.C,R10*%
X185637095Y-113503600D03*
X187287095Y-113503600D03*
%TD*%
D23*
%TO.C,D4*%
X203301095Y-120770959D03*
X205201095Y-120770959D03*
X204251095Y-118895959D03*
%TD*%
D15*
%TO.C,R14*%
X187287095Y-118503600D03*
X185637095Y-118503600D03*
%TD*%
D29*
%TO.C,C25*%
X163051095Y-76503600D03*
X161501095Y-76503600D03*
%TD*%
D30*
%TO.C,U1*%
X216326095Y-113853600D03*
D31*
X216976094Y-113853600D03*
X217626093Y-113853600D03*
X217626093Y-111953598D03*
X216976094Y-111953598D03*
X216326095Y-111953598D03*
%TD*%
D28*
%TO.C,R34*%
X194151095Y-83353600D03*
X195801095Y-83353600D03*
%TD*%
D18*
%TO.C,C37*%
X163751095Y-85278600D03*
X163751095Y-83728600D03*
%TD*%
D32*
%TO.C,C53*%
X142751095Y-126978600D03*
X142751095Y-124028600D03*
%TD*%
D12*
%TO.C,C34*%
X136026095Y-116253600D03*
X138976095Y-116253600D03*
%TD*%
D33*
%TO.C,C32*%
X129501095Y-113978600D03*
X129501095Y-111028600D03*
%TD*%
D15*
%TO.C,R5*%
X185751095Y-98753600D03*
X184101095Y-98753600D03*
%TD*%
%TO.C,R7*%
X168501095Y-91943600D03*
X166851095Y-91943600D03*
%TD*%
D29*
%TO.C,C23*%
X163051095Y-75003600D03*
X161501095Y-75003600D03*
%TD*%
%TO.C,C5*%
X168476095Y-87293600D03*
X166926095Y-87293600D03*
%TD*%
D34*
%TO.C,R28*%
X153251095Y-71791100D03*
X153251095Y-77716100D03*
%TD*%
D26*
%TO.C,Q9*%
X185951095Y-105993600D03*
X184051095Y-105993600D03*
X185001095Y-108013600D03*
%TD*%
%TO.C,Q16*%
X203501095Y-101253600D03*
X201601095Y-101253600D03*
X202551095Y-103273600D03*
%TD*%
D28*
%TO.C,R45*%
X170676095Y-116753600D03*
X172326095Y-116753600D03*
%TD*%
%TO.C,R12*%
X180676095Y-98753600D03*
X182326095Y-98753600D03*
%TD*%
D35*
%TO.C,D1*%
X152501095Y-103253600D03*
X152501095Y-99253600D03*
%TD*%
D15*
%TO.C,R40*%
X182326095Y-108003600D03*
X180676095Y-108003600D03*
%TD*%
D14*
%TO.C,R65*%
X163001095Y-97678600D03*
X163001095Y-99328600D03*
%TD*%
D36*
%TO.C,F1*%
X167376095Y-111753600D03*
X163076095Y-111753600D03*
%TD*%
D16*
%TO.C,C66*%
X168226095Y-72503600D03*
X165276095Y-72503600D03*
%TD*%
D25*
%TO.C,Q2*%
X176501095Y-115103600D03*
X176501095Y-117003600D03*
X178521095Y-116053600D03*
%TD*%
D37*
%TO.C,C14*%
X146251095Y-100303600D03*
X146251095Y-102203600D03*
%TD*%
D15*
%TO.C,R33*%
X185826095Y-104253600D03*
X184176095Y-104253600D03*
%TD*%
%TO.C,R42*%
X205004410Y-117262269D03*
X203354410Y-117262269D03*
%TD*%
D14*
%TO.C,R41*%
X169484193Y-112947257D03*
X169484193Y-114597257D03*
%TD*%
D38*
%TO.C,Q6*%
X182351095Y-117708600D03*
X182351095Y-115798600D03*
X180251095Y-116753600D03*
%TD*%
D26*
%TO.C,Q3*%
X187412095Y-115007263D03*
X185512095Y-115007263D03*
X186462095Y-117027263D03*
%TD*%
D39*
%TO.C,C54*%
X218476095Y-123253600D03*
X215526095Y-123253600D03*
%TD*%
D21*
%TO.C,R66*%
X161251095Y-99328600D03*
X161251095Y-97678600D03*
%TD*%
D12*
%TO.C,C43*%
X136026095Y-126003600D03*
X138976095Y-126003600D03*
%TD*%
D40*
%TO.C,C63*%
X205751095Y-110728600D03*
X205751095Y-112278600D03*
%TD*%
D38*
%TO.C,Q11*%
X178851095Y-107958600D03*
X178851095Y-106048600D03*
X176751095Y-107003600D03*
%TD*%
D22*
%TO.C,C10*%
X178951095Y-119503600D03*
X180501095Y-119503600D03*
%TD*%
D40*
%TO.C,C13*%
X146251095Y-91978600D03*
X146251095Y-93528600D03*
%TD*%
D12*
%TO.C,C38*%
X131276095Y-119503600D03*
X134226095Y-119503600D03*
%TD*%
D17*
%TO.C,C7*%
X193801095Y-121253600D03*
X195701095Y-121253600D03*
%TD*%
D21*
%TO.C,R36*%
X207001095Y-117328600D03*
X207001095Y-115678600D03*
%TD*%
D14*
%TO.C,R58*%
X144001095Y-61353600D03*
X144001095Y-63003600D03*
%TD*%
D40*
%TO.C,C55*%
X191726095Y-77578600D03*
X191726095Y-79128600D03*
%TD*%
D18*
%TO.C,C58*%
X191726095Y-83378600D03*
X191726095Y-81828600D03*
%TD*%
D14*
%TO.C,R61*%
X205751095Y-107428600D03*
X205751095Y-109078600D03*
%TD*%
D15*
%TO.C,R11*%
X168526095Y-90443600D03*
X166876095Y-90443600D03*
%TD*%
D21*
%TO.C,R27*%
X162501095Y-67403600D03*
X162501095Y-65753600D03*
%TD*%
D14*
%TO.C,R37*%
X201751095Y-117178600D03*
X201751095Y-118828600D03*
%TD*%
D41*
%TO.C,IC1*%
X164501095Y-93503600D03*
X164501095Y-92233600D03*
X164501095Y-90963600D03*
X164501095Y-89693600D03*
X159077095Y-89693600D03*
X159077095Y-90963600D03*
X159077095Y-92233600D03*
X159077095Y-93503600D03*
D42*
X161789095Y-91598600D03*
%TD*%
D43*
%TO.C,U2*%
X160566095Y-79053600D03*
X160566095Y-80003600D03*
X160566095Y-80953600D03*
X162936095Y-80953600D03*
X162936095Y-79053600D03*
%TD*%
D22*
%TO.C,C68*%
X166201095Y-100753600D03*
X167751095Y-100753600D03*
%TD*%
D15*
%TO.C,R43*%
X200076095Y-117253600D03*
X198426095Y-117253600D03*
%TD*%
D22*
%TO.C,C8*%
X161751095Y-121253600D03*
X163301095Y-121253600D03*
%TD*%
D15*
%TO.C,R38*%
X195801095Y-77603600D03*
X194151095Y-77603600D03*
%TD*%
D28*
%TO.C,R46*%
X203363503Y-115752859D03*
X205013503Y-115752859D03*
%TD*%
D17*
%TO.C,C6*%
X189801095Y-111253600D03*
X191701095Y-111253600D03*
%TD*%
D44*
%TO.C,R30*%
X131751095Y-64178600D03*
X131751095Y-61253600D03*
%TD*%
D33*
%TO.C,C39*%
X126001095Y-113953600D03*
X126001095Y-111003600D03*
%TD*%
D38*
%TO.C,Q5*%
X178801095Y-102413600D03*
X178801095Y-100503600D03*
X176701095Y-101458600D03*
%TD*%
D45*
%TO.C,U9*%
X203906095Y-105778600D03*
X202636095Y-105778600D03*
X201366095Y-105778600D03*
X200096095Y-105778600D03*
X200096095Y-110728600D03*
X201366095Y-110728600D03*
X202636095Y-110728600D03*
X203906095Y-110728600D03*
%TD*%
D46*
%TO.C,D8*%
X165251095Y-69503600D03*
X168551095Y-69503600D03*
%TD*%
D47*
%TO.C,U5*%
X189976095Y-77628600D03*
X189326095Y-77628600D03*
X188676095Y-77628600D03*
X188026095Y-77628600D03*
X187376095Y-77628600D03*
X186726095Y-77628600D03*
X186076095Y-77628600D03*
X185426095Y-77628600D03*
X185426095Y-83353600D03*
X186076095Y-83353600D03*
X186726095Y-83353600D03*
X187376095Y-83353600D03*
X188026095Y-83353600D03*
X188676095Y-83353600D03*
X189326095Y-83353600D03*
X189976095Y-83353600D03*
%TD*%
D15*
%TO.C,R6*%
X168501095Y-93443600D03*
X166851095Y-93443600D03*
%TD*%
D36*
%TO.C,F2*%
X167376095Y-115753600D03*
X163076095Y-115753600D03*
%TD*%
D47*
%TO.C,U12*%
X169501095Y-75753600D03*
X168851095Y-75753600D03*
X168201095Y-75753600D03*
X167551095Y-75753600D03*
X166901095Y-75753600D03*
X166251095Y-75753600D03*
X165601095Y-75753600D03*
X165601095Y-81478600D03*
X166251095Y-81478600D03*
X166901095Y-81478600D03*
X167551095Y-81478600D03*
X168201095Y-81478600D03*
X168851095Y-81478600D03*
X169501095Y-81478600D03*
%TD*%
D25*
%TO.C,Q10*%
X195683119Y-81411557D03*
X195683119Y-79511557D03*
X193663119Y-80461557D03*
%TD*%
D28*
%TO.C,R69*%
X169926095Y-103753600D03*
X171576095Y-103753600D03*
%TD*%
D21*
%TO.C,R3*%
X205801095Y-67828600D03*
X205801095Y-66178600D03*
%TD*%
D15*
%TO.C,R8*%
X168526095Y-88893600D03*
X166876095Y-88893600D03*
%TD*%
D48*
%TO.C,U3*%
X168138595Y-85453600D03*
X168138595Y-84503600D03*
X168138595Y-83553600D03*
X165863595Y-83553600D03*
X165863595Y-85453600D03*
%TD*%
D15*
%TO.C,R13*%
X180326095Y-113003600D03*
X178676095Y-113003600D03*
%TD*%
D49*
%TO.C,Q4*%
X189659095Y-114943600D03*
X189659095Y-116213600D03*
X189659095Y-117483600D03*
X189659095Y-118753600D03*
X195501095Y-118753600D03*
X195501095Y-117483600D03*
X195501095Y-116213600D03*
D50*
X193082595Y-116849901D03*
D49*
X195501095Y-114943600D03*
%TD*%
D51*
%TO.C,C21*%
X157751095Y-79203600D03*
X157751095Y-77303600D03*
%TD*%
D21*
%TO.C,R9*%
X176751095Y-113328600D03*
X176751095Y-111678600D03*
%TD*%
D12*
%TO.C,C31*%
X131276095Y-116253600D03*
X134226095Y-116253600D03*
%TD*%
%TO.C,C42*%
X131276095Y-126003600D03*
X134226095Y-126003600D03*
%TD*%
D15*
%TO.C,R21*%
X217751095Y-115503600D03*
X216101095Y-115503600D03*
%TD*%
%TO.C,R59*%
X203326095Y-99253600D03*
X201676095Y-99253600D03*
%TD*%
D40*
%TO.C,C60*%
X156001095Y-125003600D03*
X156001095Y-126553600D03*
%TD*%
D15*
%TO.C,R23*%
X217751095Y-110253600D03*
X216101095Y-110253600D03*
%TD*%
D12*
%TO.C,C36*%
X136026095Y-122753600D03*
X138976095Y-122753600D03*
%TD*%
%TO.C,C35*%
X136026095Y-119503600D03*
X138976095Y-119503600D03*
%TD*%
M02*
