%TF.GenerationSoftware,KiCad,Pcbnew,8.0.5*%
%TF.CreationDate,2024-12-26T16:36:05+00:00*%
%TF.ProjectId,mallow_adapt_v1.2,6d616c6c-6f77-45f6-9164-6170745f7631,rev?*%
%TF.SameCoordinates,Original*%
%TF.FileFunction,Soldermask,Top*%
%TF.FilePolarity,Negative*%
%FSLAX46Y46*%
G04 Gerber Fmt 4.6, Leading zero omitted, Abs format (unit mm)*
G04 Created by KiCad (PCBNEW 8.0.5) date 2024-12-26 16:36:05*
%MOMM*%
%LPD*%
G01*
G04 APERTURE LIST*
G04 Aperture macros list*
%AMRoundRect*
0 Rectangle with rounded corners*
0 $1 Rounding radius*
0 $2 $3 $4 $5 $6 $7 $8 $9 X,Y pos of 4 corners*
0 Add a 4 corners polygon primitive as box body*
4,1,4,$2,$3,$4,$5,$6,$7,$8,$9,$2,$3,0*
0 Add four circle primitives for the rounded corners*
1,1,$1+$1,$2,$3*
1,1,$1+$1,$4,$5*
1,1,$1+$1,$6,$7*
1,1,$1+$1,$8,$9*
0 Add four rect primitives between the rounded corners*
20,1,$1+$1,$2,$3,$4,$5,0*
20,1,$1+$1,$4,$5,$6,$7,0*
20,1,$1+$1,$6,$7,$8,$9,0*
20,1,$1+$1,$8,$9,$2,$3,0*%
G04 Aperture macros list end*
%ADD10C,0.000000*%
%ADD11RoundRect,0.272222X-0.340278X-0.652778X0.340278X-0.652778X0.340278X0.652778X-0.340278X0.652778X0*%
%ADD12RoundRect,0.271739X-0.353261X-1.128261X0.353261X-1.128261X0.353261X1.128261X-0.353261X1.128261X0*%
%ADD13RoundRect,0.125000X0.375000X0.125000X-0.375000X0.125000X-0.375000X-0.125000X0.375000X-0.125000X0*%
%ADD14RoundRect,0.225000X-0.300000X0.225000X-0.300000X-0.225000X0.300000X-0.225000X0.300000X0.225000X0*%
%ADD15RoundRect,0.225000X0.225000X0.300000X-0.225000X0.300000X-0.225000X-0.300000X0.225000X-0.300000X0*%
%ADD16RoundRect,0.271739X0.353261X1.128261X-0.353261X1.128261X-0.353261X-1.128261X0.353261X-1.128261X0*%
%ADD17RoundRect,0.275000X-0.275000X-0.500000X0.275000X-0.500000X0.275000X0.500000X-0.275000X0.500000X0*%
%ADD18RoundRect,0.250000X0.275000X-0.250000X0.275000X0.250000X-0.275000X0.250000X-0.275000X-0.250000X0*%
%ADD19RoundRect,0.274390X0.475610X-0.288110X0.475610X0.288110X-0.475610X0.288110X-0.475610X-0.288110X0*%
%ADD20RoundRect,0.271739X-0.678261X0.353261X-0.678261X-0.353261X0.678261X-0.353261X0.678261X0.353261X0*%
%ADD21C,3.700000*%
%ADD22C,5.800000*%
%ADD23RoundRect,0.225000X0.300000X-0.225000X0.300000X0.225000X-0.300000X0.225000X-0.300000X-0.225000X0*%
%ADD24RoundRect,0.250000X-0.250000X-0.275000X0.250000X-0.275000X0.250000X0.275000X-0.250000X0.275000X0*%
%ADD25RoundRect,0.175000X0.175000X-0.612500X0.175000X0.612500X-0.175000X0.612500X-0.175000X-0.612500X0*%
%ADD26RoundRect,0.175000X-0.612500X-0.175000X0.612500X-0.175000X0.612500X0.175000X-0.612500X0.175000X0*%
%ADD27RoundRect,0.102000X0.400000X0.300000X-0.400000X0.300000X-0.400000X-0.300000X0.400000X-0.300000X0*%
%ADD28RoundRect,0.102000X0.300000X-0.400000X0.300000X0.400000X-0.300000X0.400000X-0.300000X-0.400000X0*%
%ADD29C,2.100000*%
%ADD30RoundRect,0.102000X-0.300000X0.400000X-0.300000X-0.400000X0.300000X-0.400000X0.300000X0.400000X0*%
%ADD31RoundRect,0.272222X-0.652778X0.340278X-0.652778X-0.340278X0.652778X-0.340278X0.652778X0.340278X0*%
%ADD32RoundRect,0.225000X-0.225000X-0.300000X0.225000X-0.300000X0.225000X0.300000X-0.225000X0.300000X0*%
%ADD33RoundRect,0.250000X0.250000X0.275000X-0.250000X0.275000X-0.250000X-0.275000X0.250000X-0.275000X0*%
%ADD34RoundRect,0.050000X0.210000X-0.300000X0.210000X0.300000X-0.210000X0.300000X-0.210000X-0.300000X0*%
%ADD35O,0.520000X0.700000*%
%ADD36RoundRect,0.271739X0.678261X-0.353261X0.678261X0.353261X-0.678261X0.353261X-0.678261X-0.353261X0*%
%ADD37RoundRect,0.271739X1.128261X-0.353261X1.128261X0.353261X-1.128261X0.353261X-1.128261X-0.353261X0*%
%ADD38RoundRect,0.270409X-1.454591X0.392091X-1.454591X-0.392091X1.454591X-0.392091X1.454591X0.392091X0*%
%ADD39RoundRect,0.263889X0.686111X-1.036111X0.686111X1.036111X-0.686111X1.036111X-0.686111X-1.036111X0*%
%ADD40RoundRect,0.050000X0.750000X1.715000X-0.750000X1.715000X-0.750000X-1.715000X0.750000X-1.715000X0*%
%ADD41RoundRect,0.102000X-0.400000X-0.300000X0.400000X-0.300000X0.400000X0.300000X-0.400000X0.300000X0*%
%ADD42RoundRect,0.275000X-0.500000X0.275000X-0.500000X-0.275000X0.500000X-0.275000X0.500000X0.275000X0*%
%ADD43RoundRect,0.050000X-0.625000X0.300000X-0.625000X-0.300000X0.625000X-0.300000X0.625000X0.300000X0*%
%ADD44RoundRect,0.271739X0.353261X0.678261X-0.353261X0.678261X-0.353261X-0.678261X0.353261X-0.678261X0*%
%ADD45RoundRect,0.250000X-0.275000X0.250000X-0.275000X-0.250000X0.275000X-0.250000X0.275000X0.250000X0*%
%ADD46RoundRect,0.050000X-0.762500X0.350000X-0.762500X-0.350000X0.762500X-0.350000X0.762500X0.350000X0*%
%ADD47RoundRect,0.050000X1.200000X1.600000X-1.200000X1.600000X-1.200000X-1.600000X1.200000X-1.600000X0*%
%ADD48RoundRect,0.100500X-0.676500X-0.301500X0.676500X-0.301500X0.676500X0.301500X-0.676500X0.301500X0*%
%ADD49RoundRect,0.272222X0.652778X-0.340278X0.652778X0.340278X-0.652778X0.340278X-0.652778X-0.340278X0*%
%ADD50RoundRect,0.175000X-0.175000X0.850000X-0.175000X-0.850000X0.175000X-0.850000X0.175000X0.850000X0*%
%ADD51RoundRect,0.250000X-0.250000X-0.400000X0.250000X-0.400000X0.250000X0.400000X-0.250000X0.400000X0*%
%ADD52RoundRect,0.125000X-0.125000X0.662500X-0.125000X-0.662500X0.125000X-0.662500X0.125000X0.662500X0*%
%ADD53RoundRect,0.175000X0.537500X0.175000X-0.537500X0.175000X-0.537500X-0.175000X0.537500X-0.175000X0*%
%ADD54RoundRect,0.050000X-0.508000X-0.203200X0.508000X-0.203200X0.508000X0.203200X-0.508000X0.203200X0*%
%ADD55RoundRect,0.050000X-1.910500X-1.954499X1.910500X-1.954499X1.910500X1.954499X-1.910500X1.954499X0*%
%ADD56RoundRect,0.275000X0.500000X-0.275000X0.500000X0.275000X-0.500000X0.275000X-0.500000X-0.275000X0*%
%ADD57C,1.120000*%
%ADD58C,1.620000*%
%ADD59C,3.009999*%
%ADD60C,1.450000*%
%ADD61RoundRect,0.050000X-0.937500X-0.937500X0.937500X-0.937500X0.937500X0.937500X-0.937500X0.937500X0*%
%ADD62C,1.975000*%
%ADD63C,1.400000*%
%ADD64C,1.900000*%
%ADD65RoundRect,0.050000X-0.850000X0.850000X-0.850000X-0.850000X0.850000X-0.850000X0.850000X0.850000X0*%
%ADD66O,1.800000X1.800000*%
%ADD67C,3.300000*%
%ADD68RoundRect,0.050000X0.750000X-0.750000X0.750000X0.750000X-0.750000X0.750000X-0.750000X-0.750000X0*%
%ADD69C,1.600000*%
%ADD70C,3.100000*%
%ADD71RoundRect,0.050000X0.950000X-0.950000X0.950000X0.950000X-0.950000X0.950000X-0.950000X-0.950000X0*%
%ADD72C,2.000000*%
%ADD73C,1.300000*%
%ADD74RoundRect,0.264706X-0.635294X-0.635294X0.635294X-0.635294X0.635294X0.635294X-0.635294X0.635294X0*%
%ADD75C,1.800000*%
%ADD76C,2.200000*%
%ADD77RoundRect,0.050000X-0.850000X-0.850000X0.850000X-0.850000X0.850000X0.850000X-0.850000X0.850000X0*%
%ADD78RoundRect,0.050000X0.850000X0.850000X-0.850000X0.850000X-0.850000X-0.850000X0.850000X-0.850000X0*%
%ADD79RoundRect,0.225000X-0.475000X0.225000X-0.475000X-0.225000X0.475000X-0.225000X0.475000X0.225000X0*%
%ADD80O,1.400000X0.900000*%
G04 APERTURE END LIST*
D10*
%TO.C,Q4*%
G36*
X196009095Y-115146800D02*
G01*
X194993095Y-115146800D01*
X194993095Y-116010400D01*
X196009095Y-116010400D01*
X196009095Y-116416800D01*
X194993095Y-116416800D01*
X194993095Y-117280400D01*
X196009095Y-117280400D01*
X196009095Y-117686800D01*
X194993095Y-117686800D01*
X194993095Y-118550400D01*
X196009095Y-118550400D01*
X196009095Y-118956800D01*
X194993095Y-118956800D01*
X194993095Y-118804400D01*
X191157695Y-118804400D01*
X191157695Y-114892800D01*
X194993095Y-114892800D01*
X194993095Y-114740400D01*
X196009095Y-114740400D01*
X196009095Y-115146800D01*
G37*
%TD*%
D11*
%TO.C,R32*%
X215538595Y-121003600D03*
X218463595Y-121003600D03*
%TD*%
D12*
%TO.C,C47*%
X131276095Y-122753600D03*
X134226095Y-122753600D03*
%TD*%
D13*
%TO.C,U13*%
X168001095Y-99003600D03*
X168001095Y-98353600D03*
X168001095Y-97703600D03*
X165801095Y-97703600D03*
X165801095Y-99003600D03*
%TD*%
D14*
%TO.C,R64*%
X173251095Y-77678600D03*
X173251095Y-79328600D03*
%TD*%
D15*
%TO.C,R35*%
X182326095Y-104503600D03*
X180676095Y-104503600D03*
%TD*%
D16*
%TO.C,C41*%
X128476095Y-123003600D03*
X125526095Y-123003600D03*
%TD*%
D17*
%TO.C,C9*%
X161801095Y-87753600D03*
X163701095Y-87753600D03*
%TD*%
D18*
%TO.C,C70*%
X171501095Y-79278600D03*
X171501095Y-77728600D03*
%TD*%
D19*
%TO.C,R16*%
X195251095Y-125666100D03*
X195251095Y-123841100D03*
%TD*%
D20*
%TO.C,C52*%
X129251095Y-61278600D03*
X129251095Y-64228600D03*
%TD*%
D21*
%TO.C,H1*%
X218651085Y-61778600D03*
D22*
X218651085Y-61778600D03*
%TD*%
D18*
%TO.C,C28*%
X170255902Y-85446818D03*
X170255902Y-83896818D03*
%TD*%
D23*
%TO.C,R67*%
X170676076Y-98329051D03*
X170676076Y-96679051D03*
%TD*%
D24*
%TO.C,C69*%
X166226095Y-96003600D03*
X167776095Y-96003600D03*
%TD*%
D25*
%TO.C,D5*%
X198251095Y-120753600D03*
X200151095Y-120753600D03*
X199201095Y-118878600D03*
%TD*%
D26*
%TO.C,D3*%
X172476095Y-112803600D03*
X172476095Y-114703600D03*
X174351095Y-113753600D03*
%TD*%
D15*
%TO.C,R47*%
X200076095Y-115753600D03*
X198426095Y-115753600D03*
%TD*%
D27*
%TO.C,Q17*%
X159021095Y-99453600D03*
X159021095Y-97553600D03*
X157001095Y-98503600D03*
%TD*%
D15*
%TO.C,R39*%
X172326095Y-110753600D03*
X170676095Y-110753600D03*
%TD*%
D23*
%TO.C,R4*%
X207351095Y-67828600D03*
X207351095Y-66178600D03*
%TD*%
D28*
%TO.C,Q18*%
X169751095Y-102003600D03*
X171651095Y-102003600D03*
X170701095Y-99983600D03*
%TD*%
D29*
%TO.C,TP7*%
X147751095Y-63503600D03*
%TD*%
D30*
%TO.C,Q1*%
X185951095Y-100493600D03*
X184051095Y-100493600D03*
X185001095Y-102513600D03*
%TD*%
D31*
%TO.C,R31*%
X150656095Y-124041100D03*
X150656095Y-126966100D03*
%TD*%
D23*
%TO.C,R60*%
X142628916Y-62995834D03*
X142628916Y-61345834D03*
%TD*%
D29*
%TO.C,TP8*%
X172751095Y-83253600D03*
%TD*%
D23*
%TO.C,R26*%
X161251095Y-67403600D03*
X161251095Y-65753600D03*
%TD*%
D32*
%TO.C,R10*%
X185637095Y-113503600D03*
X187287095Y-113503600D03*
%TD*%
D25*
%TO.C,D4*%
X203301095Y-120770959D03*
X205201095Y-120770959D03*
X204251095Y-118895959D03*
%TD*%
D15*
%TO.C,R14*%
X187287095Y-118503600D03*
X185637095Y-118503600D03*
%TD*%
D33*
%TO.C,C25*%
X163051095Y-76503600D03*
X161501095Y-76503600D03*
%TD*%
D34*
%TO.C,U1*%
X216326095Y-113853600D03*
D35*
X216976094Y-113853600D03*
X217626093Y-113853600D03*
X217626093Y-111953598D03*
X216976094Y-111953598D03*
X216326095Y-111953598D03*
%TD*%
D32*
%TO.C,R34*%
X194151095Y-83353600D03*
X195801095Y-83353600D03*
%TD*%
D18*
%TO.C,C37*%
X163751095Y-85278600D03*
X163751095Y-83728600D03*
%TD*%
D36*
%TO.C,C53*%
X142751095Y-126978600D03*
X142751095Y-124028600D03*
%TD*%
D12*
%TO.C,C34*%
X136026095Y-116253600D03*
X138976095Y-116253600D03*
%TD*%
D37*
%TO.C,C32*%
X129501095Y-113978600D03*
X129501095Y-111028600D03*
%TD*%
D15*
%TO.C,R5*%
X185751095Y-98753600D03*
X184101095Y-98753600D03*
%TD*%
D29*
%TO.C,TP6*%
X153501095Y-66503600D03*
%TD*%
D15*
%TO.C,R7*%
X168501095Y-91943600D03*
X166851095Y-91943600D03*
%TD*%
D33*
%TO.C,C23*%
X163051095Y-75003600D03*
X161501095Y-75003600D03*
%TD*%
%TO.C,C5*%
X168476095Y-87293600D03*
X166926095Y-87293600D03*
%TD*%
D38*
%TO.C,R28*%
X153251095Y-71791100D03*
X153251095Y-77716100D03*
%TD*%
D30*
%TO.C,Q9*%
X185951095Y-105993600D03*
X184051095Y-105993600D03*
X185001095Y-108013600D03*
%TD*%
D21*
%TO.C,H4*%
X218651085Y-127778600D03*
D22*
X218651085Y-127778600D03*
%TD*%
D30*
%TO.C,Q16*%
X203501095Y-101253600D03*
X201601095Y-101253600D03*
X202551095Y-103273600D03*
%TD*%
D32*
%TO.C,R45*%
X170676095Y-116753600D03*
X172326095Y-116753600D03*
%TD*%
%TO.C,R12*%
X180676095Y-98753600D03*
X182326095Y-98753600D03*
%TD*%
D39*
%TO.C,D1*%
X152501095Y-103253600D03*
X152501095Y-99253600D03*
%TD*%
D15*
%TO.C,R40*%
X182326095Y-108003600D03*
X180676095Y-108003600D03*
%TD*%
D14*
%TO.C,R65*%
X163001095Y-97678600D03*
X163001095Y-99328600D03*
%TD*%
D40*
%TO.C,F1*%
X167376095Y-111753600D03*
X163076095Y-111753600D03*
%TD*%
D21*
%TO.C,H3*%
X124651095Y-127778600D03*
D22*
X124651095Y-127778600D03*
%TD*%
D16*
%TO.C,C66*%
X168226095Y-72503600D03*
X165276095Y-72503600D03*
%TD*%
D41*
%TO.C,Q2*%
X176501095Y-115103600D03*
X176501095Y-117003600D03*
X178521095Y-116053600D03*
%TD*%
D42*
%TO.C,C14*%
X146251095Y-100303600D03*
X146251095Y-102203600D03*
%TD*%
D15*
%TO.C,R33*%
X185826095Y-104253600D03*
X184176095Y-104253600D03*
%TD*%
%TO.C,R42*%
X205004410Y-117262269D03*
X203354410Y-117262269D03*
%TD*%
D14*
%TO.C,R41*%
X169484193Y-112947257D03*
X169484193Y-114597257D03*
%TD*%
D43*
%TO.C,Q6*%
X182351095Y-117708600D03*
X182351095Y-115798600D03*
X180251095Y-116753600D03*
%TD*%
D30*
%TO.C,Q3*%
X187412095Y-115007263D03*
X185512095Y-115007263D03*
X186462095Y-117027263D03*
%TD*%
D44*
%TO.C,C54*%
X218476095Y-123253600D03*
X215526095Y-123253600D03*
%TD*%
D23*
%TO.C,R66*%
X161251095Y-99328600D03*
X161251095Y-97678600D03*
%TD*%
D12*
%TO.C,C43*%
X136026095Y-126003600D03*
X138976095Y-126003600D03*
%TD*%
D45*
%TO.C,C63*%
X205751095Y-110728600D03*
X205751095Y-112278600D03*
%TD*%
D43*
%TO.C,Q11*%
X178851095Y-107958600D03*
X178851095Y-106048600D03*
X176751095Y-107003600D03*
%TD*%
D24*
%TO.C,C10*%
X178951095Y-119503600D03*
X180501095Y-119503600D03*
%TD*%
D45*
%TO.C,C13*%
X146251095Y-91978600D03*
X146251095Y-93528600D03*
%TD*%
D12*
%TO.C,C38*%
X131276095Y-119503600D03*
X134226095Y-119503600D03*
%TD*%
D17*
%TO.C,C7*%
X193801095Y-121253600D03*
X195701095Y-121253600D03*
%TD*%
D23*
%TO.C,R36*%
X207001095Y-117328600D03*
X207001095Y-115678600D03*
%TD*%
D14*
%TO.C,R58*%
X144001095Y-61353600D03*
X144001095Y-63003600D03*
%TD*%
D45*
%TO.C,C55*%
X191726095Y-77578600D03*
X191726095Y-79128600D03*
%TD*%
D18*
%TO.C,C58*%
X191726095Y-83378600D03*
X191726095Y-81828600D03*
%TD*%
D14*
%TO.C,R61*%
X205751095Y-107428600D03*
X205751095Y-109078600D03*
%TD*%
D15*
%TO.C,R11*%
X168526095Y-90443600D03*
X166876095Y-90443600D03*
%TD*%
D23*
%TO.C,R27*%
X162501095Y-67403600D03*
X162501095Y-65753600D03*
%TD*%
D14*
%TO.C,R37*%
X201751095Y-117178600D03*
X201751095Y-118828600D03*
%TD*%
D46*
%TO.C,IC1*%
X164501095Y-93503600D03*
X164501095Y-92233600D03*
X164501095Y-90963600D03*
X164501095Y-89693600D03*
X159077095Y-89693600D03*
X159077095Y-90963600D03*
X159077095Y-92233600D03*
X159077095Y-93503600D03*
D47*
X161789095Y-91598600D03*
%TD*%
D48*
%TO.C,U2*%
X160566095Y-79053600D03*
X160566095Y-80003600D03*
X160566095Y-80953600D03*
X162936095Y-80953600D03*
X162936095Y-79053600D03*
%TD*%
D24*
%TO.C,C68*%
X166201095Y-100753600D03*
X167751095Y-100753600D03*
%TD*%
D15*
%TO.C,R43*%
X200076095Y-117253600D03*
X198426095Y-117253600D03*
%TD*%
D24*
%TO.C,C8*%
X161751095Y-121253600D03*
X163301095Y-121253600D03*
%TD*%
D15*
%TO.C,R38*%
X195801095Y-77603600D03*
X194151095Y-77603600D03*
%TD*%
D32*
%TO.C,R46*%
X203363503Y-115752859D03*
X205013503Y-115752859D03*
%TD*%
D17*
%TO.C,C6*%
X189801095Y-111253600D03*
X191701095Y-111253600D03*
%TD*%
D49*
%TO.C,R30*%
X131751095Y-64178600D03*
X131751095Y-61253600D03*
%TD*%
D37*
%TO.C,C39*%
X126001095Y-113953600D03*
X126001095Y-111003600D03*
%TD*%
D43*
%TO.C,Q5*%
X178801095Y-102413600D03*
X178801095Y-100503600D03*
X176701095Y-101458600D03*
%TD*%
D50*
%TO.C,U9*%
X203906095Y-105778600D03*
X202636095Y-105778600D03*
X201366095Y-105778600D03*
X200096095Y-105778600D03*
X200096095Y-110728600D03*
X201366095Y-110728600D03*
X202636095Y-110728600D03*
X203906095Y-110728600D03*
%TD*%
D51*
%TO.C,D8*%
X165251095Y-69503600D03*
X168551095Y-69503600D03*
%TD*%
D52*
%TO.C,U5*%
X189976095Y-77628600D03*
X189326095Y-77628600D03*
X188676095Y-77628600D03*
X188026095Y-77628600D03*
X187376095Y-77628600D03*
X186726095Y-77628600D03*
X186076095Y-77628600D03*
X185426095Y-77628600D03*
X185426095Y-83353600D03*
X186076095Y-83353600D03*
X186726095Y-83353600D03*
X187376095Y-83353600D03*
X188026095Y-83353600D03*
X188676095Y-83353600D03*
X189326095Y-83353600D03*
X189976095Y-83353600D03*
%TD*%
D21*
%TO.C,H2*%
X124651095Y-61778600D03*
D22*
X124651095Y-61778600D03*
%TD*%
D15*
%TO.C,R6*%
X168501095Y-93443600D03*
X166851095Y-93443600D03*
%TD*%
D40*
%TO.C,F2*%
X167376095Y-115753600D03*
X163076095Y-115753600D03*
%TD*%
D52*
%TO.C,U12*%
X169501095Y-75753600D03*
X168851095Y-75753600D03*
X168201095Y-75753600D03*
X167551095Y-75753600D03*
X166901095Y-75753600D03*
X166251095Y-75753600D03*
X165601095Y-75753600D03*
X165601095Y-81478600D03*
X166251095Y-81478600D03*
X166901095Y-81478600D03*
X167551095Y-81478600D03*
X168201095Y-81478600D03*
X168851095Y-81478600D03*
X169501095Y-81478600D03*
%TD*%
D27*
%TO.C,Q10*%
X195683119Y-81411557D03*
X195683119Y-79511557D03*
X193663119Y-80461557D03*
%TD*%
D32*
%TO.C,R69*%
X169926095Y-103753600D03*
X171576095Y-103753600D03*
%TD*%
D23*
%TO.C,R3*%
X205801095Y-67828600D03*
X205801095Y-66178600D03*
%TD*%
D15*
%TO.C,R8*%
X168526095Y-88893600D03*
X166876095Y-88893600D03*
%TD*%
D53*
%TO.C,U3*%
X168138595Y-85453600D03*
X168138595Y-84503600D03*
X168138595Y-83553600D03*
X165863595Y-83553600D03*
X165863595Y-85453600D03*
%TD*%
D15*
%TO.C,R13*%
X180326095Y-113003600D03*
X178676095Y-113003600D03*
%TD*%
D54*
%TO.C,Q4*%
X189659095Y-114943600D03*
X189659095Y-116213600D03*
X189659095Y-117483600D03*
X189659095Y-118753600D03*
X195501095Y-118753600D03*
X195501095Y-117483600D03*
X195501095Y-116213600D03*
D55*
X193082595Y-116849901D03*
D54*
X195501095Y-114943600D03*
%TD*%
D56*
%TO.C,C21*%
X157751095Y-79203600D03*
X157751095Y-77303600D03*
%TD*%
D23*
%TO.C,R9*%
X176751095Y-113328600D03*
X176751095Y-111678600D03*
%TD*%
D12*
%TO.C,C31*%
X131276095Y-116253600D03*
X134226095Y-116253600D03*
%TD*%
%TO.C,C42*%
X131276095Y-126003600D03*
X134226095Y-126003600D03*
%TD*%
D15*
%TO.C,R21*%
X217751095Y-115503600D03*
X216101095Y-115503600D03*
%TD*%
%TO.C,R59*%
X203326095Y-99253600D03*
X201676095Y-99253600D03*
%TD*%
D45*
%TO.C,C60*%
X156001095Y-125003600D03*
X156001095Y-126553600D03*
%TD*%
D15*
%TO.C,R23*%
X217751095Y-110253600D03*
X216101095Y-110253600D03*
%TD*%
D12*
%TO.C,C36*%
X136026095Y-122753600D03*
X138976095Y-122753600D03*
%TD*%
%TO.C,C35*%
X136026095Y-119503600D03*
X138976095Y-119503600D03*
%TD*%
D57*
%TO.C,J5*%
X185501074Y-121313599D03*
X173501098Y-121313599D03*
D58*
X176501097Y-125253599D03*
X179501096Y-125253599D03*
X182501095Y-125253599D03*
X176501097Y-122253600D03*
X179501096Y-122253600D03*
X182501095Y-122253600D03*
D59*
X174351099Y-123753599D03*
X184651093Y-123753599D03*
%TD*%
D60*
%TO.C,J4*%
X201751095Y-123413600D03*
D61*
X198001095Y-124753600D03*
D62*
X200501095Y-124753600D03*
X203001095Y-124753600D03*
X205501095Y-124753600D03*
%TD*%
D63*
%TO.C,J3*%
X211751095Y-123413600D03*
D64*
X210501095Y-124753600D03*
X213001095Y-124753600D03*
%TD*%
D65*
%TO.C,X19*%
X184171094Y-61278628D03*
D66*
X184171094Y-63818628D03*
X186711094Y-61278628D03*
X186711094Y-63818628D03*
X189251094Y-61278628D03*
X189251094Y-63818628D03*
X191791094Y-61278628D03*
X191791094Y-63818628D03*
X194331094Y-61278628D03*
X194331094Y-63818628D03*
X196871094Y-61278628D03*
X196871094Y-63818628D03*
X199411094Y-61278628D03*
X199411094Y-63818628D03*
X201951094Y-61278628D03*
X201951094Y-63818628D03*
X204491094Y-61278628D03*
X204491094Y-63818628D03*
X207031094Y-61278628D03*
X207031094Y-63818628D03*
X209571094Y-61278628D03*
X209571094Y-63818628D03*
X212111094Y-61278628D03*
X212111094Y-63818628D03*
%TD*%
D67*
%TO.C,J9*%
X147111095Y-125293600D03*
X147111095Y-113863600D03*
D68*
X153461095Y-124023600D03*
D69*
X156001095Y-122753600D03*
X153461095Y-121483600D03*
X156001095Y-120213600D03*
X153461095Y-118943600D03*
X156001095Y-117673600D03*
X153461095Y-116403600D03*
X156001095Y-115133600D03*
%TD*%
D70*
%TO.C,J1*%
X148491095Y-81553600D03*
X148491095Y-67953600D03*
D71*
X143451095Y-72653600D03*
D72*
X143451095Y-76853600D03*
X148951095Y-72653600D03*
X148951095Y-76853600D03*
%TD*%
D73*
%TO.C,J6*%
X165001095Y-121663600D03*
D74*
X161251095Y-123003600D03*
D75*
X163751095Y-123003600D03*
X166251095Y-123003600D03*
X168751095Y-123003600D03*
X161251095Y-125503600D03*
X163751095Y-125503600D03*
X166251095Y-125503600D03*
X168751095Y-125503600D03*
D76*
X159081097Y-123293599D03*
X170921073Y-123293599D03*
%TD*%
D65*
%TO.C,X10*%
X151151095Y-61278600D03*
D66*
X151151095Y-63818600D03*
X153691095Y-61278600D03*
X153691095Y-63818600D03*
X156231095Y-61278600D03*
X156231095Y-63818600D03*
X158771095Y-61278600D03*
X158771095Y-63818600D03*
X161311095Y-61278600D03*
X161311095Y-63818600D03*
X163851095Y-61278600D03*
X163851095Y-63818600D03*
X166391095Y-61278600D03*
X166391095Y-63818600D03*
X168931095Y-61278600D03*
X168931095Y-63818600D03*
X171471095Y-61278600D03*
X171471095Y-63818600D03*
X174011095Y-61278600D03*
X174011095Y-63818600D03*
X176551095Y-61278600D03*
X176551095Y-63818600D03*
X179091095Y-61278600D03*
X179091095Y-63818600D03*
%TD*%
D70*
%TO.C,J10*%
X148553596Y-108078600D03*
X148553596Y-86078600D03*
D71*
X143513596Y-90778600D03*
D72*
X143513596Y-94978600D03*
X143513596Y-99178600D03*
X143513596Y-103378600D03*
X149013596Y-90778600D03*
X149013596Y-94978600D03*
X149013596Y-99178600D03*
X149013596Y-103378600D03*
%TD*%
D60*
%TO.C,J2*%
X191591095Y-122093600D03*
D62*
X190341095Y-123433600D03*
X190341095Y-125933600D03*
X192841095Y-123433600D03*
X192841095Y-125933600D03*
%TD*%
D77*
%TO.C,X5*%
X125651123Y-119778596D03*
D66*
X128191123Y-119778596D03*
X125651123Y-117238596D03*
X128191123Y-117238596D03*
%TD*%
D78*
%TO.C,X16*%
X217651087Y-67278624D03*
D66*
X215111087Y-67278624D03*
X217651087Y-69818624D03*
X215111087Y-69818624D03*
X217651087Y-72358624D03*
X215111087Y-72358624D03*
X217651087Y-74898624D03*
X215111087Y-74898624D03*
X217651087Y-77438624D03*
X215111087Y-77438624D03*
X217651087Y-79978624D03*
X215111087Y-79978624D03*
X217651087Y-82518624D03*
X215111087Y-82518624D03*
X217651087Y-85058624D03*
X215111087Y-85058624D03*
X217651087Y-87598624D03*
X215111087Y-87598624D03*
X217651087Y-90138624D03*
X215111087Y-90138624D03*
X217651087Y-92678624D03*
X215111087Y-92678624D03*
X217651087Y-95218624D03*
X215111087Y-95218624D03*
%TD*%
D75*
%TO.C,J7*%
X212751095Y-110503600D03*
X212751095Y-113003600D03*
X212751095Y-115503600D03*
X210251095Y-110503600D03*
X210251095Y-113003600D03*
X210251095Y-115503600D03*
%TD*%
D79*
%TO.C,J11*%
X209801095Y-101628600D03*
D80*
X209801095Y-102878600D03*
%TD*%
D77*
%TO.C,JP1*%
X160751095Y-115278600D03*
D66*
X160751095Y-112738600D03*
%TD*%
M02*
