%TF.GenerationSoftware,KiCad,Pcbnew,8.0.5*%
%TF.CreationDate,2024-12-26T16:36:04+00:00*%
%TF.ProjectId,mallow_adapt_v1.2,6d616c6c-6f77-45f6-9164-6170745f7631,rev?*%
%TF.SameCoordinates,Original*%
%TF.FileFunction,Paste,Bot*%
%TF.FilePolarity,Positive*%
%FSLAX46Y46*%
G04 Gerber Fmt 4.6, Leading zero omitted, Abs format (unit mm)*
G04 Created by KiCad (PCBNEW 8.0.5) date 2024-12-26 16:36:04*
%MOMM*%
%LPD*%
G01*
G04 APERTURE LIST*
G04 Aperture macros list*
%AMRoundRect*
0 Rectangle with rounded corners*
0 $1 Rounding radius*
0 $2 $3 $4 $5 $6 $7 $8 $9 X,Y pos of 4 corners*
0 Add a 4 corners polygon primitive as box body*
4,1,4,$2,$3,$4,$5,$6,$7,$8,$9,$2,$3,0*
0 Add four circle primitives for the rounded corners*
1,1,$1+$1,$2,$3*
1,1,$1+$1,$4,$5*
1,1,$1+$1,$6,$7*
1,1,$1+$1,$8,$9*
0 Add four rect primitives between the rounded corners*
20,1,$1+$1,$2,$3,$4,$5,0*
20,1,$1+$1,$4,$5,$6,$7,0*
20,1,$1+$1,$6,$7,$8,$9,0*
20,1,$1+$1,$8,$9,$2,$3,0*%
G04 Aperture macros list end*
%ADD10C,0.175000*%
%ADD11C,0.000000*%
%ADD12RoundRect,0.150000X-0.150000X0.825000X-0.150000X-0.825000X0.150000X-0.825000X0.150000X0.825000X0*%
%ADD13RoundRect,0.225000X-0.250000X0.225000X-0.250000X-0.225000X0.250000X-0.225000X0.250000X0.225000X0*%
%ADD14R,0.300000X0.800000*%
%ADD15R,0.800000X0.300000*%
%ADD16R,1.500000X1.500000*%
%ADD17RoundRect,0.250000X-0.325000X-1.100000X0.325000X-1.100000X0.325000X1.100000X-0.325000X1.100000X0*%
%ADD18RoundRect,0.200000X-0.200000X-0.275000X0.200000X-0.275000X0.200000X0.275000X-0.200000X0.275000X0*%
%ADD19R,1.016000X0.406400*%
%ADD20R,3.821000X3.908998*%
%ADD21RoundRect,0.225000X0.250000X-0.225000X0.250000X0.225000X-0.250000X0.225000X-0.250000X-0.225000X0*%
%ADD22R,0.300000X0.750000*%
%ADD23R,1.300000X0.900000*%
%ADD24RoundRect,0.200000X-0.275000X0.200000X-0.275000X-0.200000X0.275000X-0.200000X0.275000X0.200000X0*%
%ADD25RoundRect,0.250000X1.100000X-0.325000X1.100000X0.325000X-1.100000X0.325000X-1.100000X-0.325000X0*%
%ADD26R,0.600000X0.800000*%
%ADD27RoundRect,0.200000X0.275000X-0.200000X0.275000X0.200000X-0.275000X0.200000X-0.275000X-0.200000X0*%
%ADD28RoundRect,0.225000X0.225000X0.250000X-0.225000X0.250000X-0.225000X-0.250000X0.225000X-0.250000X0*%
%ADD29RoundRect,0.250000X0.325000X0.650000X-0.325000X0.650000X-0.325000X-0.650000X0.325000X-0.650000X0*%
%ADD30RoundRect,0.225000X-0.225000X-0.250000X0.225000X-0.250000X0.225000X0.250000X-0.225000X0.250000X0*%
%ADD31RoundRect,0.250000X-0.312500X-0.625000X0.312500X-0.625000X0.312500X0.625000X-0.312500X0.625000X0*%
%ADD32RoundRect,0.100000X-0.100000X0.637500X-0.100000X-0.637500X0.100000X-0.637500X0.100000X0.637500X0*%
%ADD33RoundRect,0.200000X0.200000X0.275000X-0.200000X0.275000X-0.200000X-0.275000X0.200000X-0.275000X0*%
%ADD34RoundRect,0.250000X1.075000X-0.375000X1.075000X0.375000X-1.075000X0.375000X-1.075000X-0.375000X0*%
%ADD35R,0.600000X0.420000*%
%ADD36O,0.600000X0.420000*%
%ADD37R,1.800000X1.000000*%
%ADD38RoundRect,0.250000X0.250000X-0.250000X0.250000X0.250000X-0.250000X0.250000X-0.250000X-0.250000X0*%
%ADD39R,1.800000X3.400000*%
%ADD40R,0.850000X0.300000*%
%ADD41R,0.690000X2.440000*%
%ADD42R,1.475000X0.450000*%
%ADD43R,0.800000X0.600000*%
%ADD44R,3.160000X1.000000*%
%ADD45RoundRect,0.225000X-0.225000X-0.375000X0.225000X-0.375000X0.225000X0.375000X-0.225000X0.375000X0*%
%ADD46RoundRect,0.150000X-0.825000X-0.150000X0.825000X-0.150000X0.825000X0.150000X-0.825000X0.150000X0*%
%ADD47R,1.250000X0.600000*%
%ADD48RoundRect,0.218750X0.381250X-0.218750X0.381250X0.218750X-0.381250X0.218750X-0.381250X-0.218750X0*%
%ADD49R,1.400000X0.300000*%
G04 APERTURE END LIST*
D10*
G36*
X170998463Y-85238000D02*
G01*
X170839953Y-85238000D01*
X170804461Y-85220254D01*
X170791208Y-85207000D01*
X170773463Y-85171509D01*
X170773463Y-85112821D01*
X170791207Y-85077333D01*
X170804463Y-85064077D01*
X170839951Y-85046333D01*
X170998463Y-85046333D01*
X170998463Y-85238000D01*
G37*
G36*
X174392616Y-85833833D02*
G01*
X170510963Y-85833833D01*
X170510963Y-85092166D01*
X170598463Y-85092166D01*
X170598463Y-85192166D01*
X170600144Y-85209236D01*
X170601347Y-85212140D01*
X170601570Y-85215277D01*
X170607700Y-85231297D01*
X170641033Y-85297964D01*
X170645658Y-85305312D01*
X170646543Y-85307447D01*
X170648515Y-85309850D01*
X170650171Y-85312480D01*
X170651915Y-85313993D01*
X170657425Y-85320706D01*
X170690759Y-85354039D01*
X170697469Y-85359545D01*
X170698982Y-85361290D01*
X170701612Y-85362945D01*
X170704018Y-85364920D01*
X170706153Y-85365804D01*
X170713498Y-85370428D01*
X170780164Y-85403762D01*
X170796183Y-85409892D01*
X170799319Y-85410114D01*
X170802226Y-85411319D01*
X170819296Y-85413000D01*
X170998463Y-85413000D01*
X170998463Y-85658833D01*
X171000144Y-85675903D01*
X171013209Y-85707445D01*
X171037351Y-85731587D01*
X171068893Y-85744652D01*
X171103033Y-85744652D01*
X171134575Y-85731587D01*
X171158717Y-85707445D01*
X171171782Y-85675903D01*
X171173463Y-85658833D01*
X171173463Y-84969777D01*
X171232483Y-84969777D01*
X171236286Y-84986503D01*
X171469620Y-85686503D01*
X171476613Y-85702165D01*
X171480709Y-85706888D01*
X171483506Y-85712481D01*
X171491793Y-85719669D01*
X171498982Y-85727957D01*
X171504574Y-85730753D01*
X171509298Y-85734850D01*
X171519708Y-85738320D01*
X171529520Y-85743226D01*
X171535755Y-85743669D01*
X171541686Y-85745646D01*
X171552630Y-85744868D01*
X171563574Y-85745646D01*
X171569504Y-85743669D01*
X171575741Y-85743226D01*
X171585554Y-85738319D01*
X171595962Y-85734850D01*
X171600685Y-85730753D01*
X171606278Y-85727957D01*
X171613466Y-85719669D01*
X171621754Y-85712481D01*
X171624550Y-85706888D01*
X171628647Y-85702165D01*
X171635640Y-85686503D01*
X171744863Y-85358833D01*
X171898463Y-85358833D01*
X171898463Y-85525500D01*
X171900144Y-85542570D01*
X171901346Y-85545474D01*
X171901570Y-85548613D01*
X171907701Y-85564632D01*
X171941035Y-85631298D01*
X171945658Y-85638642D01*
X171946543Y-85640778D01*
X171948517Y-85643183D01*
X171950173Y-85645814D01*
X171951917Y-85647326D01*
X171957424Y-85654037D01*
X171990757Y-85687371D01*
X171997469Y-85692880D01*
X171998983Y-85694625D01*
X172001612Y-85696280D01*
X172004016Y-85698253D01*
X172006151Y-85699137D01*
X172013499Y-85703763D01*
X172080167Y-85737096D01*
X172096186Y-85743226D01*
X172099322Y-85743448D01*
X172102227Y-85744652D01*
X172119297Y-85746333D01*
X172319297Y-85746333D01*
X172336367Y-85744652D01*
X172339271Y-85743448D01*
X172342409Y-85743226D01*
X172358428Y-85737095D01*
X172425094Y-85703762D01*
X172432437Y-85699139D01*
X172434576Y-85698254D01*
X172436982Y-85696278D01*
X172439610Y-85694625D01*
X172441122Y-85692881D01*
X172447835Y-85687372D01*
X172481169Y-85654038D01*
X172492050Y-85640779D01*
X172505115Y-85609237D01*
X172505115Y-85608429D01*
X172566811Y-85608429D01*
X172566811Y-85642571D01*
X172579876Y-85674113D01*
X172590758Y-85687372D01*
X172624091Y-85720705D01*
X172637350Y-85731587D01*
X172668892Y-85744652D01*
X172668893Y-85744652D01*
X172703033Y-85744652D01*
X172703034Y-85744652D01*
X172734576Y-85731587D01*
X172747835Y-85720705D01*
X172781168Y-85687372D01*
X172792050Y-85674113D01*
X172805115Y-85642571D01*
X172805115Y-85608429D01*
X172792050Y-85576887D01*
X172792045Y-85576882D01*
X172781169Y-85563629D01*
X172747836Y-85530295D01*
X172734577Y-85519413D01*
X172703035Y-85506348D01*
X172703033Y-85506347D01*
X172668891Y-85506347D01*
X172637349Y-85519413D01*
X172624090Y-85530295D01*
X172590757Y-85563629D01*
X172579880Y-85576882D01*
X172579876Y-85576887D01*
X172566811Y-85608429D01*
X172505115Y-85608429D01*
X172505115Y-85575095D01*
X172492050Y-85543553D01*
X172467910Y-85519413D01*
X172436368Y-85506348D01*
X172402226Y-85506348D01*
X172370684Y-85519413D01*
X172357425Y-85530294D01*
X172334130Y-85553589D01*
X172298642Y-85571333D01*
X172139954Y-85571333D01*
X172104461Y-85553587D01*
X172091208Y-85540334D01*
X172073463Y-85504843D01*
X172073463Y-85379489D01*
X172083791Y-85358833D01*
X172898463Y-85358833D01*
X172898463Y-85525500D01*
X172900144Y-85542570D01*
X172901346Y-85545474D01*
X172901570Y-85548613D01*
X172907701Y-85564632D01*
X172941035Y-85631298D01*
X172945658Y-85638642D01*
X172946543Y-85640778D01*
X172948517Y-85643183D01*
X172950173Y-85645814D01*
X172951917Y-85647326D01*
X172957424Y-85654037D01*
X172990757Y-85687371D01*
X172997469Y-85692880D01*
X172998983Y-85694625D01*
X173001612Y-85696280D01*
X173004016Y-85698253D01*
X173006151Y-85699137D01*
X173013499Y-85703763D01*
X173080167Y-85737096D01*
X173096186Y-85743226D01*
X173099322Y-85743448D01*
X173102227Y-85744652D01*
X173119297Y-85746333D01*
X173319297Y-85746333D01*
X173336367Y-85744652D01*
X173339271Y-85743448D01*
X173342409Y-85743226D01*
X173358428Y-85737095D01*
X173425094Y-85703762D01*
X173432437Y-85699139D01*
X173434576Y-85698254D01*
X173436982Y-85696278D01*
X173439610Y-85694625D01*
X173441122Y-85692881D01*
X173447835Y-85687372D01*
X173481169Y-85654038D01*
X173492050Y-85640779D01*
X173505115Y-85609237D01*
X173505115Y-85575095D01*
X173492050Y-85543553D01*
X173467910Y-85519413D01*
X173436368Y-85506348D01*
X173402226Y-85506348D01*
X173370684Y-85519413D01*
X173357425Y-85530294D01*
X173334130Y-85553589D01*
X173298642Y-85571333D01*
X173139954Y-85571333D01*
X173104461Y-85553587D01*
X173091208Y-85540334D01*
X173073463Y-85504843D01*
X173073463Y-85379489D01*
X173075659Y-85375096D01*
X173600145Y-85375096D01*
X173600145Y-85409236D01*
X173613210Y-85440778D01*
X173637352Y-85464920D01*
X173668894Y-85477985D01*
X173685964Y-85479666D01*
X173865130Y-85479666D01*
X173865130Y-85658833D01*
X173866811Y-85675903D01*
X173879876Y-85707445D01*
X173904018Y-85731587D01*
X173935560Y-85744652D01*
X173969700Y-85744652D01*
X174001242Y-85731587D01*
X174025384Y-85707445D01*
X174038449Y-85675903D01*
X174040130Y-85658833D01*
X174040130Y-85479666D01*
X174219297Y-85479666D01*
X174236367Y-85477985D01*
X174267909Y-85464920D01*
X174292051Y-85440778D01*
X174305116Y-85409236D01*
X174305116Y-85375096D01*
X174292051Y-85343554D01*
X174267909Y-85319412D01*
X174236367Y-85306347D01*
X174219297Y-85304666D01*
X174040130Y-85304666D01*
X174040130Y-85125500D01*
X174038449Y-85108430D01*
X174025384Y-85076888D01*
X174001242Y-85052746D01*
X173969700Y-85039681D01*
X173935560Y-85039681D01*
X173904018Y-85052746D01*
X173879876Y-85076888D01*
X173866811Y-85108430D01*
X173865130Y-85125500D01*
X173865130Y-85304666D01*
X173685964Y-85304666D01*
X173668894Y-85306347D01*
X173637352Y-85319412D01*
X173613210Y-85343554D01*
X173600145Y-85375096D01*
X173075659Y-85375096D01*
X173091208Y-85343998D01*
X173104460Y-85330746D01*
X173139954Y-85313000D01*
X173219297Y-85313000D01*
X173228325Y-85312110D01*
X173230622Y-85312264D01*
X173232203Y-85311728D01*
X173236367Y-85311319D01*
X173249498Y-85305879D01*
X173262963Y-85301326D01*
X173265183Y-85299382D01*
X173267909Y-85298254D01*
X173277953Y-85288209D01*
X173288656Y-85278845D01*
X173289965Y-85276197D01*
X173292051Y-85274112D01*
X173297488Y-85260983D01*
X173303790Y-85248242D01*
X173303986Y-85245297D01*
X173305116Y-85242570D01*
X173305116Y-85228350D01*
X173306061Y-85214175D01*
X173305116Y-85211380D01*
X173305116Y-85208430D01*
X173299676Y-85195298D01*
X173295123Y-85181834D01*
X173292690Y-85178431D01*
X173292051Y-85176888D01*
X173290422Y-85175259D01*
X173285147Y-85167881D01*
X173178792Y-85046333D01*
X173419297Y-85046333D01*
X173436367Y-85044652D01*
X173467909Y-85031587D01*
X173492051Y-85007445D01*
X173505116Y-84975903D01*
X173505116Y-84941763D01*
X173492051Y-84910221D01*
X173467909Y-84886079D01*
X173436367Y-84873014D01*
X173419297Y-84871333D01*
X172985963Y-84871333D01*
X172976934Y-84872222D01*
X172974638Y-84872069D01*
X172973056Y-84872604D01*
X172968893Y-84873014D01*
X172955761Y-84878453D01*
X172942297Y-84883007D01*
X172940076Y-84884950D01*
X172937351Y-84886079D01*
X172927306Y-84896123D01*
X172916604Y-84905488D01*
X172915294Y-84908135D01*
X172913209Y-84910221D01*
X172907771Y-84923349D01*
X172901470Y-84936091D01*
X172901273Y-84939035D01*
X172900144Y-84941763D01*
X172900144Y-84955982D01*
X172899199Y-84970158D01*
X172900144Y-84972952D01*
X172900144Y-84975903D01*
X172905583Y-84989034D01*
X172910137Y-85002499D01*
X172912569Y-85005901D01*
X172913209Y-85007445D01*
X172914837Y-85009073D01*
X172920113Y-85016452D01*
X173048433Y-85163103D01*
X173013499Y-85180570D01*
X173006153Y-85185193D01*
X173004017Y-85186079D01*
X173001611Y-85188053D01*
X172998983Y-85189708D01*
X172997470Y-85191451D01*
X172990758Y-85196961D01*
X172957425Y-85230294D01*
X172951918Y-85237003D01*
X172950172Y-85238518D01*
X172948516Y-85241148D01*
X172946543Y-85243553D01*
X172945657Y-85245690D01*
X172941035Y-85253035D01*
X172907701Y-85319701D01*
X172901570Y-85335721D01*
X172901347Y-85338858D01*
X172900144Y-85341763D01*
X172898463Y-85358833D01*
X172083791Y-85358833D01*
X172091208Y-85343998D01*
X172104460Y-85330746D01*
X172139954Y-85313000D01*
X172219297Y-85313000D01*
X172228325Y-85312110D01*
X172230622Y-85312264D01*
X172232203Y-85311728D01*
X172236367Y-85311319D01*
X172249498Y-85305879D01*
X172262963Y-85301326D01*
X172265183Y-85299382D01*
X172267909Y-85298254D01*
X172277953Y-85288209D01*
X172288656Y-85278845D01*
X172289965Y-85276197D01*
X172292051Y-85274112D01*
X172297488Y-85260983D01*
X172303790Y-85248242D01*
X172303986Y-85245297D01*
X172305116Y-85242570D01*
X172305116Y-85228350D01*
X172306061Y-85214175D01*
X172305116Y-85211380D01*
X172305116Y-85208430D01*
X172299676Y-85195298D01*
X172295123Y-85181834D01*
X172292690Y-85178431D01*
X172292051Y-85176888D01*
X172290422Y-85175259D01*
X172285147Y-85167881D01*
X172178792Y-85046333D01*
X172419297Y-85046333D01*
X172436367Y-85044652D01*
X172467909Y-85031587D01*
X172492051Y-85007445D01*
X172505116Y-84975903D01*
X172505116Y-84941763D01*
X172492051Y-84910221D01*
X172467909Y-84886079D01*
X172436367Y-84873014D01*
X172419297Y-84871333D01*
X171985963Y-84871333D01*
X171976934Y-84872222D01*
X171974638Y-84872069D01*
X171973056Y-84872604D01*
X171968893Y-84873014D01*
X171955761Y-84878453D01*
X171942297Y-84883007D01*
X171940076Y-84884950D01*
X171937351Y-84886079D01*
X171927306Y-84896123D01*
X171916604Y-84905488D01*
X171915294Y-84908135D01*
X171913209Y-84910221D01*
X171907771Y-84923349D01*
X171901470Y-84936091D01*
X171901273Y-84939035D01*
X171900144Y-84941763D01*
X171900144Y-84955982D01*
X171899199Y-84970158D01*
X171900144Y-84972952D01*
X171900144Y-84975903D01*
X171905583Y-84989034D01*
X171910137Y-85002499D01*
X171912569Y-85005901D01*
X171913209Y-85007445D01*
X171914837Y-85009073D01*
X171920113Y-85016452D01*
X172048433Y-85163103D01*
X172013499Y-85180570D01*
X172006153Y-85185193D01*
X172004017Y-85186079D01*
X172001611Y-85188053D01*
X171998983Y-85189708D01*
X171997470Y-85191451D01*
X171990758Y-85196961D01*
X171957425Y-85230294D01*
X171951918Y-85237003D01*
X171950172Y-85238518D01*
X171948516Y-85241148D01*
X171946543Y-85243553D01*
X171945657Y-85245690D01*
X171941035Y-85253035D01*
X171907701Y-85319701D01*
X171901570Y-85335721D01*
X171901347Y-85338858D01*
X171900144Y-85341763D01*
X171898463Y-85358833D01*
X171744863Y-85358833D01*
X171868973Y-84986503D01*
X171872776Y-84969777D01*
X171870356Y-84935722D01*
X171855087Y-84905185D01*
X171829295Y-84882816D01*
X171796907Y-84872020D01*
X171762853Y-84874440D01*
X171732315Y-84889708D01*
X171709946Y-84915500D01*
X171702953Y-84931163D01*
X171552629Y-85382133D01*
X171402306Y-84931163D01*
X171395313Y-84915501D01*
X171372944Y-84889709D01*
X171342406Y-84874440D01*
X171308352Y-84872020D01*
X171275964Y-84882816D01*
X171250172Y-84905185D01*
X171234903Y-84935723D01*
X171232483Y-84969777D01*
X171173463Y-84969777D01*
X171173463Y-84958833D01*
X171171782Y-84941763D01*
X171158717Y-84910221D01*
X171134575Y-84886079D01*
X171103033Y-84873014D01*
X171085963Y-84871333D01*
X170819296Y-84871333D01*
X170802226Y-84873014D01*
X170799321Y-84874217D01*
X170796185Y-84874440D01*
X170780165Y-84880571D01*
X170713499Y-84913904D01*
X170706151Y-84918528D01*
X170704017Y-84919413D01*
X170701614Y-84921384D01*
X170698983Y-84923041D01*
X170697469Y-84924786D01*
X170690758Y-84930294D01*
X170657424Y-84963628D01*
X170651914Y-84970340D01*
X170650171Y-84971853D01*
X170648517Y-84974480D01*
X170646542Y-84976887D01*
X170645656Y-84979025D01*
X170641034Y-84986369D01*
X170607701Y-85053035D01*
X170601570Y-85069054D01*
X170601347Y-85072191D01*
X170600144Y-85075096D01*
X170598463Y-85092166D01*
X170510963Y-85092166D01*
X170510963Y-84783833D01*
X174392616Y-84783833D01*
X174392616Y-85833833D01*
G37*
D11*
%TO.C,Q7*%
G36*
X135761862Y-99287485D02*
G01*
X134683395Y-99287485D01*
X134683395Y-98183618D01*
X135761862Y-98183618D01*
X135761862Y-99287485D01*
G37*
G36*
X135761862Y-100591352D02*
G01*
X134683395Y-100591352D01*
X134683395Y-99487484D01*
X135761862Y-99487484D01*
X135761862Y-100591352D01*
G37*
G36*
X135761862Y-101895218D02*
G01*
X134683395Y-101895218D01*
X134683395Y-100791351D01*
X135761862Y-100791351D01*
X135761862Y-101895218D01*
G37*
G36*
X137040329Y-99287485D02*
G01*
X135961861Y-99287485D01*
X135961861Y-98183618D01*
X137040329Y-98183618D01*
X137040329Y-99287485D01*
G37*
G36*
X137040329Y-100591352D02*
G01*
X135961861Y-100591352D01*
X135961861Y-99487484D01*
X137040329Y-99487484D01*
X137040329Y-100591352D01*
G37*
G36*
X137040329Y-101895218D02*
G01*
X135961861Y-101895218D01*
X135961861Y-100791351D01*
X137040329Y-100791351D01*
X137040329Y-101895218D01*
G37*
G36*
X138318795Y-99287485D02*
G01*
X137240328Y-99287485D01*
X137240328Y-98183618D01*
X138318795Y-98183618D01*
X138318795Y-99287485D01*
G37*
G36*
X138318795Y-100591352D02*
G01*
X137240328Y-100591352D01*
X137240328Y-99487484D01*
X138318795Y-99487484D01*
X138318795Y-100591352D01*
G37*
G36*
X138318795Y-101895218D02*
G01*
X137240328Y-101895218D01*
X137240328Y-100791351D01*
X138318795Y-100791351D01*
X138318795Y-101895218D01*
G37*
G36*
X139930095Y-98337618D02*
G01*
X138914095Y-98337618D01*
X138914095Y-99201218D01*
X139930095Y-99201218D01*
X139930095Y-99607618D01*
X138914095Y-99607618D01*
X138914095Y-100471218D01*
X139930095Y-100471218D01*
X139930095Y-100877618D01*
X138914095Y-100877618D01*
X138914095Y-101741218D01*
X139930095Y-101741218D01*
X139930095Y-102147618D01*
X138914095Y-102147618D01*
X138914095Y-101995218D01*
X135078695Y-101995218D01*
X135078695Y-98083618D01*
X138914095Y-98083618D01*
X138914095Y-97931218D01*
X139930095Y-97931218D01*
X139930095Y-98337618D01*
G37*
%TO.C,Q15*%
G36*
X161959862Y-101189267D02*
G01*
X160881395Y-101189267D01*
X160881395Y-100085400D01*
X161959862Y-100085400D01*
X161959862Y-101189267D01*
G37*
G36*
X161959862Y-102493134D02*
G01*
X160881395Y-102493134D01*
X160881395Y-101389266D01*
X161959862Y-101389266D01*
X161959862Y-102493134D01*
G37*
G36*
X161959862Y-103797000D02*
G01*
X160881395Y-103797000D01*
X160881395Y-102693133D01*
X161959862Y-102693133D01*
X161959862Y-103797000D01*
G37*
G36*
X163238329Y-101189267D02*
G01*
X162159861Y-101189267D01*
X162159861Y-100085400D01*
X163238329Y-100085400D01*
X163238329Y-101189267D01*
G37*
G36*
X163238329Y-102493134D02*
G01*
X162159861Y-102493134D01*
X162159861Y-101389266D01*
X163238329Y-101389266D01*
X163238329Y-102493134D01*
G37*
G36*
X163238329Y-103797000D02*
G01*
X162159861Y-103797000D01*
X162159861Y-102693133D01*
X163238329Y-102693133D01*
X163238329Y-103797000D01*
G37*
G36*
X164516795Y-101189267D02*
G01*
X163438328Y-101189267D01*
X163438328Y-100085400D01*
X164516795Y-100085400D01*
X164516795Y-101189267D01*
G37*
G36*
X164516795Y-102493134D02*
G01*
X163438328Y-102493134D01*
X163438328Y-101389266D01*
X164516795Y-101389266D01*
X164516795Y-102493134D01*
G37*
G36*
X164516795Y-103797000D02*
G01*
X163438328Y-103797000D01*
X163438328Y-102693133D01*
X164516795Y-102693133D01*
X164516795Y-103797000D01*
G37*
G36*
X166128095Y-100239400D02*
G01*
X165112095Y-100239400D01*
X165112095Y-101103000D01*
X166128095Y-101103000D01*
X166128095Y-101509400D01*
X165112095Y-101509400D01*
X165112095Y-102373000D01*
X166128095Y-102373000D01*
X166128095Y-102779400D01*
X165112095Y-102779400D01*
X165112095Y-103643000D01*
X166128095Y-103643000D01*
X166128095Y-104049400D01*
X165112095Y-104049400D01*
X165112095Y-103897000D01*
X161276695Y-103897000D01*
X161276695Y-99985400D01*
X165112095Y-99985400D01*
X165112095Y-99833000D01*
X166128095Y-99833000D01*
X166128095Y-100239400D01*
G37*
%TD*%
D12*
%TO.C,U7*%
X199496095Y-105928600D03*
X200766095Y-105928600D03*
X202036095Y-105928600D03*
X203306095Y-105928600D03*
X203306095Y-110878600D03*
X202036095Y-110878600D03*
X200766095Y-110878600D03*
X199496095Y-110878600D03*
%TD*%
D13*
%TO.C,C24*%
X158001095Y-75728600D03*
X158001095Y-77278600D03*
%TD*%
D14*
%TO.C,IC5*%
X201951095Y-76703600D03*
X201451095Y-76703600D03*
X200951095Y-76703600D03*
X200451095Y-76703600D03*
D15*
X199751095Y-76003600D03*
X199751095Y-75503600D03*
X199751095Y-75003600D03*
X199751095Y-74503600D03*
D14*
X200451095Y-73803600D03*
X200951095Y-73803600D03*
X201451095Y-73803600D03*
X201951095Y-73803600D03*
D15*
X202651095Y-74503600D03*
X202651095Y-75003600D03*
X202651095Y-75503600D03*
X202651095Y-76003600D03*
D16*
X201201095Y-75253600D03*
%TD*%
D17*
%TO.C,C45*%
X136001095Y-119503600D03*
X138951095Y-119503600D03*
%TD*%
%TO.C,C30*%
X131256095Y-126043600D03*
X134206095Y-126043600D03*
%TD*%
D18*
%TO.C,R17*%
X216101095Y-109003600D03*
X217751095Y-109003600D03*
%TD*%
D19*
%TO.C,Q7*%
X133580095Y-101944418D03*
X133580095Y-100674418D03*
X133580095Y-99404418D03*
X133580095Y-98134418D03*
X139422095Y-98134418D03*
X139422095Y-99404418D03*
X139422095Y-100674418D03*
D20*
X137003595Y-100038117D03*
D19*
X139422095Y-101944418D03*
%TD*%
D21*
%TO.C,C78*%
X178001095Y-111028600D03*
X178001095Y-109478600D03*
%TD*%
D17*
%TO.C,C44*%
X136026095Y-116253600D03*
X138976095Y-116253600D03*
%TD*%
D22*
%TO.C,U11*%
X158701095Y-67003600D03*
X159201095Y-67003600D03*
X159701095Y-67003600D03*
X160201095Y-67003600D03*
X160201095Y-69003600D03*
X159701095Y-69003600D03*
X159201095Y-69003600D03*
X158701095Y-69003600D03*
D23*
X159451095Y-68003600D03*
%TD*%
D24*
%TO.C,R75*%
X200451095Y-69428600D03*
X200451095Y-71078600D03*
%TD*%
D25*
%TO.C,C48*%
X126001095Y-113978600D03*
X126001095Y-111028600D03*
%TD*%
D17*
%TO.C,C40*%
X131276095Y-119503600D03*
X134226095Y-119503600D03*
%TD*%
%TO.C,C49*%
X131276095Y-122753600D03*
X134226095Y-122753600D03*
%TD*%
D26*
%TO.C,Q13*%
X153651095Y-105163600D03*
X151751095Y-105163600D03*
X152701095Y-103143600D03*
%TD*%
D27*
%TO.C,R56*%
X182913096Y-82428600D03*
X182913096Y-80778600D03*
%TD*%
D28*
%TO.C,C19*%
X217776095Y-107253600D03*
X216226095Y-107253600D03*
%TD*%
D29*
%TO.C,C51*%
X212001095Y-68753600D03*
X209051095Y-68753600D03*
%TD*%
D27*
%TO.C,R15*%
X181001095Y-82428600D03*
X181001095Y-80778600D03*
%TD*%
D25*
%TO.C,C12*%
X169501095Y-101478600D03*
X169501095Y-98528600D03*
%TD*%
D24*
%TO.C,R71*%
X197451095Y-69428600D03*
X197451095Y-71078600D03*
%TD*%
D30*
%TO.C,C3*%
X191201095Y-119753600D03*
X192751095Y-119753600D03*
%TD*%
D31*
%TO.C,R29*%
X209038595Y-66503600D03*
X211963595Y-66503600D03*
%TD*%
D32*
%TO.C,U17*%
X206251095Y-84228600D03*
X206901095Y-84228600D03*
X207551095Y-84228600D03*
X208201095Y-84228600D03*
X208851095Y-84228600D03*
X209501095Y-84228600D03*
X210151095Y-84228600D03*
X210801095Y-84228600D03*
X210801095Y-89953600D03*
X210151095Y-89953600D03*
X209501095Y-89953600D03*
X208851095Y-89953600D03*
X208201095Y-89953600D03*
X207551095Y-89953600D03*
X206901095Y-89953600D03*
X206251095Y-89953600D03*
%TD*%
D33*
%TO.C,R68*%
X169576095Y-104003600D03*
X167926095Y-104003600D03*
%TD*%
D30*
%TO.C,C64*%
X165976095Y-72003600D03*
X167526095Y-72003600D03*
%TD*%
D21*
%TO.C,C16*%
X143501095Y-87278600D03*
X143501095Y-85728600D03*
%TD*%
D34*
%TO.C,L2*%
X194251095Y-117553600D03*
X194251095Y-114753600D03*
%TD*%
D24*
%TO.C,R77*%
X203451095Y-69428600D03*
X203451095Y-71078600D03*
%TD*%
D21*
%TO.C,C73*%
X184001095Y-111028600D03*
X184001095Y-109478600D03*
%TD*%
D27*
%TO.C,R54*%
X188601096Y-82428600D03*
X188601096Y-80778600D03*
%TD*%
%TO.C,R2*%
X179251095Y-67828600D03*
X179251095Y-66178600D03*
%TD*%
D33*
%TO.C,R24*%
X130851095Y-101483600D03*
X129201095Y-101483600D03*
%TD*%
D35*
%TO.C,U14*%
X210151097Y-75953602D03*
D36*
X210151097Y-76603601D03*
X210151097Y-77253600D03*
X208251095Y-77253600D03*
X208251095Y-76603601D03*
X208251095Y-75953602D03*
%TD*%
D24*
%TO.C,R48*%
X166726095Y-117178600D03*
X166726095Y-118828600D03*
%TD*%
D27*
%TO.C,R72*%
X211751095Y-77328600D03*
X211751095Y-75678600D03*
%TD*%
D37*
%TO.C,Y1*%
X171501095Y-69503600D03*
X171501095Y-67003600D03*
%TD*%
D25*
%TO.C,C29*%
X129501095Y-113978600D03*
X129501095Y-111028600D03*
%TD*%
D21*
%TO.C,C79*%
X204001095Y-90003600D03*
X204001095Y-88453600D03*
%TD*%
D17*
%TO.C,C46*%
X136066095Y-122753600D03*
X139016095Y-122753600D03*
%TD*%
D30*
%TO.C,C18*%
X154726095Y-78253600D03*
X156276095Y-78253600D03*
%TD*%
D24*
%TO.C,R70*%
X204951095Y-69428600D03*
X204951095Y-71078600D03*
%TD*%
D28*
%TO.C,C15*%
X217861812Y-118753600D03*
X216311812Y-118753600D03*
%TD*%
D27*
%TO.C,R57*%
X204451095Y-78078600D03*
X204451095Y-76428600D03*
%TD*%
D19*
%TO.C,Q15*%
X159778095Y-103846200D03*
X159778095Y-102576200D03*
X159778095Y-101306200D03*
X159778095Y-100036200D03*
X165620095Y-100036200D03*
X165620095Y-101306200D03*
X165620095Y-102576200D03*
D20*
X163201595Y-101939899D03*
D19*
X165620095Y-103846200D03*
%TD*%
D38*
%TO.C,D6*%
X155251095Y-101003600D03*
X155251095Y-98503600D03*
%TD*%
D21*
%TO.C,C59*%
X157001095Y-101028600D03*
X157001095Y-99478600D03*
%TD*%
D15*
%TO.C,U16*%
X180026095Y-112253600D03*
X180026095Y-112753600D03*
X180026095Y-113253600D03*
X180026095Y-113753600D03*
X180026095Y-114253600D03*
X180026095Y-114753600D03*
X177026095Y-114753600D03*
X177026095Y-114253600D03*
X177026095Y-113753600D03*
X177026095Y-113253600D03*
X177026095Y-112753600D03*
X177026095Y-112253600D03*
D39*
X178526095Y-113503600D03*
%TD*%
D40*
%TO.C,IC2*%
X154551095Y-76253600D03*
X154551095Y-75753600D03*
X154551095Y-75253600D03*
X154551095Y-74753600D03*
X154551095Y-74253600D03*
X156451095Y-74253600D03*
X156451095Y-74753600D03*
X156451095Y-75253600D03*
X156451095Y-75753600D03*
X156451095Y-76253600D03*
D41*
X155501095Y-75253600D03*
%TD*%
D42*
%TO.C,IC3*%
X189039096Y-84828600D03*
X189039096Y-85478600D03*
X189039096Y-86128600D03*
X189039096Y-86778600D03*
X189039096Y-87428600D03*
X189039096Y-88078600D03*
X189039096Y-88728600D03*
X189039096Y-89378600D03*
X183163096Y-89378600D03*
X183163096Y-88728600D03*
X183163096Y-88078600D03*
X183163096Y-87428600D03*
X183163096Y-86778600D03*
X183163096Y-86128600D03*
X183163096Y-85478600D03*
X183163096Y-84828600D03*
%TD*%
D43*
%TO.C,Q12*%
X168521095Y-107803600D03*
X168521095Y-109703600D03*
X166501095Y-108753600D03*
%TD*%
D28*
%TO.C,C76*%
X179301095Y-117003600D03*
X177751095Y-117003600D03*
%TD*%
D17*
%TO.C,C27*%
X131276095Y-116253600D03*
X134226095Y-116253600D03*
%TD*%
D18*
%TO.C,R25*%
X129201095Y-102983600D03*
X130851095Y-102983600D03*
%TD*%
D33*
%TO.C,R51*%
X157526095Y-103003600D03*
X155876095Y-103003600D03*
%TD*%
D24*
%TO.C,R74*%
X198951095Y-69428600D03*
X198951095Y-71078600D03*
%TD*%
D21*
%TO.C,C74*%
X181751095Y-111028600D03*
X181751095Y-109478600D03*
%TD*%
D24*
%TO.C,R55*%
X197651095Y-107278600D03*
X197651095Y-108928600D03*
%TD*%
%TO.C,R50*%
X190101096Y-80778600D03*
X190101096Y-82428600D03*
%TD*%
D13*
%TO.C,C61*%
X197651095Y-110878600D03*
X197651095Y-112428600D03*
%TD*%
D35*
%TO.C,U6*%
X185151095Y-82503599D03*
D36*
X185151095Y-81853600D03*
X185151095Y-81203601D03*
X187051097Y-81203601D03*
X187051097Y-81853600D03*
X187051097Y-82503599D03*
%TD*%
D33*
%TO.C,R20*%
X217901095Y-115503600D03*
X216251095Y-115503600D03*
%TD*%
D26*
%TO.C,Q14*%
X199806690Y-101394537D03*
X201706690Y-101394537D03*
X200756690Y-103414537D03*
%TD*%
D13*
%TO.C,C11*%
X180663096Y-84828600D03*
X180663096Y-86378600D03*
%TD*%
D44*
%TO.C,RL1*%
X154501095Y-93183600D03*
X154501095Y-88103600D03*
X154501095Y-85563600D03*
X154501095Y-83023600D03*
X161741095Y-83023600D03*
X161741095Y-85563600D03*
X161741095Y-88103600D03*
X161741095Y-93183600D03*
%TD*%
D33*
%TO.C,R62*%
X167582572Y-73712849D03*
X165932572Y-73712849D03*
%TD*%
D18*
%TO.C,R18*%
X216101095Y-110503600D03*
X217751095Y-110503600D03*
%TD*%
D24*
%TO.C,R76*%
X201951095Y-69428600D03*
X201951095Y-71078600D03*
%TD*%
D27*
%TO.C,R52*%
X153501095Y-101003600D03*
X153501095Y-99353600D03*
%TD*%
D45*
%TO.C,D7*%
X156851095Y-95753600D03*
X160151095Y-95753600D03*
%TD*%
D13*
%TO.C,C77*%
X204001095Y-84203600D03*
X204001095Y-85753600D03*
%TD*%
%TO.C,C56*%
X169726095Y-117478600D03*
X169726095Y-119028600D03*
%TD*%
D33*
%TO.C,R49*%
X157501095Y-104503600D03*
X155851095Y-104503600D03*
%TD*%
D27*
%TO.C,R22*%
X128026095Y-99869418D03*
X128026095Y-98219418D03*
%TD*%
D33*
%TO.C,R19*%
X217901095Y-117003600D03*
X216251095Y-117003600D03*
%TD*%
D38*
%TO.C,D2*%
X129776095Y-99733600D03*
X129776095Y-97233600D03*
%TD*%
D28*
%TO.C,C65*%
X159751095Y-70753600D03*
X158201095Y-70753600D03*
%TD*%
%TO.C,C71*%
X200903566Y-78448198D03*
X199353566Y-78448198D03*
%TD*%
D21*
%TO.C,C22*%
X152251095Y-75778600D03*
X152251095Y-74228600D03*
%TD*%
%TO.C,C17*%
X131526095Y-99819418D03*
X131526095Y-98269418D03*
%TD*%
D28*
%TO.C,C4*%
X190301095Y-113753600D03*
X188751095Y-113753600D03*
%TD*%
D27*
%TO.C,R44*%
X173751095Y-105578600D03*
X173751095Y-103928600D03*
%TD*%
D46*
%TO.C,U4*%
X164734193Y-115677257D03*
X164734193Y-114407257D03*
X164734193Y-113137257D03*
X164734193Y-111867257D03*
X169684193Y-111867257D03*
X169684193Y-113137257D03*
X169684193Y-114407257D03*
X169684193Y-115677257D03*
%TD*%
D47*
%TO.C,IC4*%
X188726095Y-117703600D03*
X188726095Y-116753600D03*
X188726095Y-115803600D03*
X191226095Y-115803600D03*
X191226095Y-116753600D03*
X191226095Y-117703600D03*
%TD*%
D48*
%TO.C,L1*%
X182276095Y-114816100D03*
X182276095Y-112691100D03*
%TD*%
D13*
%TO.C,C20*%
X192501095Y-67503600D03*
X192501095Y-69053600D03*
%TD*%
D21*
%TO.C,C2*%
X210751095Y-72828600D03*
X210751095Y-71278600D03*
%TD*%
D30*
%TO.C,C67*%
X165976095Y-66253600D03*
X167526095Y-66253600D03*
%TD*%
D17*
%TO.C,C33*%
X136031095Y-125983600D03*
X138981095Y-125983600D03*
%TD*%
D21*
%TO.C,C80*%
X174001095Y-111028600D03*
X174001095Y-109478600D03*
%TD*%
D26*
%TO.C,Q19*%
X206501095Y-70993600D03*
X208401095Y-70993600D03*
X207451095Y-73013600D03*
%TD*%
D24*
%TO.C,R73*%
X206751095Y-74353600D03*
X206751095Y-76003600D03*
%TD*%
D49*
%TO.C,U10*%
X168901095Y-68003600D03*
X168901095Y-68503600D03*
X168901095Y-69003600D03*
X168901095Y-69503600D03*
X168901095Y-70003600D03*
X164501095Y-70003600D03*
X164501095Y-69503600D03*
X164501095Y-69003600D03*
X164501095Y-68503600D03*
X164501095Y-68003600D03*
%TD*%
D13*
%TO.C,C1*%
X212251095Y-71228600D03*
X212251095Y-72778600D03*
%TD*%
D33*
%TO.C,R53*%
X201726095Y-99403600D03*
X200076095Y-99403600D03*
%TD*%
D26*
%TO.C,Q8*%
X126951095Y-103763600D03*
X125051095Y-103763600D03*
X126001095Y-101743600D03*
%TD*%
D13*
%TO.C,C75*%
X184026095Y-112953600D03*
X184026095Y-114503600D03*
%TD*%
D27*
%TO.C,R1*%
X156001095Y-67578600D03*
X156001095Y-65928600D03*
%TD*%
M02*
