%TF.GenerationSoftware,KiCad,Pcbnew,8.0.8*%
%TF.CreationDate,2025-02-06T17:20:13+00:00*%
%TF.ProjectId,mallow_adapt_v1.3,6d616c6c-6f77-45f6-9164-6170745f7631,rev?*%
%TF.SameCoordinates,Original*%
%TF.FileFunction,Soldermask,Top*%
%TF.FilePolarity,Negative*%
%FSLAX46Y46*%
G04 Gerber Fmt 4.6, Leading zero omitted, Abs format (unit mm)*
G04 Created by KiCad (PCBNEW 8.0.8) date 2025-02-06 17:20:13*
%MOMM*%
%LPD*%
G01*
G04 APERTURE LIST*
G04 Aperture macros list*
%AMRoundRect*
0 Rectangle with rounded corners*
0 $1 Rounding radius*
0 $2 $3 $4 $5 $6 $7 $8 $9 X,Y pos of 4 corners*
0 Add a 4 corners polygon primitive as box body*
4,1,4,$2,$3,$4,$5,$6,$7,$8,$9,$2,$3,0*
0 Add four circle primitives for the rounded corners*
1,1,$1+$1,$2,$3*
1,1,$1+$1,$4,$5*
1,1,$1+$1,$6,$7*
1,1,$1+$1,$8,$9*
0 Add four rect primitives between the rounded corners*
20,1,$1+$1,$2,$3,$4,$5,0*
20,1,$1+$1,$4,$5,$6,$7,0*
20,1,$1+$1,$6,$7,$8,$9,0*
20,1,$1+$1,$8,$9,$2,$3,0*%
%AMFreePoly0*
4,1,21,3.897855,0.901855,3.912500,0.866500,3.912500,-0.866500,3.897855,-0.901855,3.862500,-0.916500,0.737500,-0.916500,0.702145,-0.901855,0.687500,-0.866500,0.687500,-0.500000,-0.737500,-0.500000,-0.772855,-0.485355,-0.787500,-0.450000,-0.787500,0.450000,-0.772855,0.485355,-0.737500,0.500000,0.687500,0.500000,0.687500,0.866500,0.702145,0.901855,0.737500,0.916500,3.862500,0.916500,
3.897855,0.901855,3.897855,0.901855,$1*%
G04 Aperture macros list end*
%ADD10C,0.000000*%
%ADD11RoundRect,0.050000X0.210000X-0.300000X0.210000X0.300000X-0.210000X0.300000X-0.210000X-0.300000X0*%
%ADD12O,0.520000X0.700000*%
%ADD13RoundRect,0.050000X-0.508000X-0.203200X0.508000X-0.203200X0.508000X0.203200X-0.508000X0.203200X0*%
%ADD14RoundRect,0.050000X-1.910500X-1.954499X1.910500X-1.954499X1.910500X1.954499X-1.910500X1.954499X0*%
%ADD15RoundRect,0.050000X-0.762500X0.350000X-0.762500X-0.350000X0.762500X-0.350000X0.762500X0.350000X0*%
%ADD16RoundRect,0.050000X1.200000X1.600000X-1.200000X1.600000X-1.200000X-1.600000X1.200000X-1.600000X0*%
%ADD17RoundRect,0.271739X0.353261X1.128261X-0.353261X1.128261X-0.353261X-1.128261X0.353261X-1.128261X0*%
%ADD18RoundRect,0.271739X-0.353261X-1.128261X0.353261X-1.128261X0.353261X1.128261X-0.353261X1.128261X0*%
%ADD19RoundRect,0.050000X-0.850000X0.850000X-0.850000X-0.850000X0.850000X-0.850000X0.850000X0.850000X0*%
%ADD20O,1.800000X1.800000*%
%ADD21RoundRect,0.272222X-0.340278X-0.652778X0.340278X-0.652778X0.340278X0.652778X-0.340278X0.652778X0*%
%ADD22RoundRect,0.125000X0.375000X0.125000X-0.375000X0.125000X-0.375000X-0.125000X0.375000X-0.125000X0*%
%ADD23RoundRect,0.225000X-0.300000X0.225000X-0.300000X-0.225000X0.300000X-0.225000X0.300000X0.225000X0*%
%ADD24RoundRect,0.225000X0.225000X0.300000X-0.225000X0.300000X-0.225000X-0.300000X0.225000X-0.300000X0*%
%ADD25RoundRect,0.275000X-0.275000X-0.500000X0.275000X-0.500000X0.275000X0.500000X-0.275000X0.500000X0*%
%ADD26RoundRect,0.250000X0.275000X-0.250000X0.275000X0.250000X-0.275000X0.250000X-0.275000X-0.250000X0*%
%ADD27RoundRect,0.274390X0.475610X-0.288110X0.475610X0.288110X-0.475610X0.288110X-0.475610X-0.288110X0*%
%ADD28RoundRect,0.271739X-0.678261X0.353261X-0.678261X-0.353261X0.678261X-0.353261X0.678261X0.353261X0*%
%ADD29C,3.700000*%
%ADD30C,5.800000*%
%ADD31RoundRect,0.225000X0.300000X-0.225000X0.300000X0.225000X-0.300000X0.225000X-0.300000X-0.225000X0*%
%ADD32RoundRect,0.250000X-0.250000X-0.275000X0.250000X-0.275000X0.250000X0.275000X-0.250000X0.275000X0*%
%ADD33RoundRect,0.175000X0.175000X-0.612500X0.175000X0.612500X-0.175000X0.612500X-0.175000X-0.612500X0*%
%ADD34RoundRect,0.175000X-0.612500X-0.175000X0.612500X-0.175000X0.612500X0.175000X-0.612500X0.175000X0*%
%ADD35RoundRect,0.102000X0.400000X0.300000X-0.400000X0.300000X-0.400000X-0.300000X0.400000X-0.300000X0*%
%ADD36RoundRect,0.102000X0.300000X-0.400000X0.300000X0.400000X-0.300000X0.400000X-0.300000X-0.400000X0*%
%ADD37C,2.100000*%
%ADD38RoundRect,0.102000X-0.300000X0.400000X-0.300000X-0.400000X0.300000X-0.400000X0.300000X0.400000X0*%
%ADD39RoundRect,0.272222X-0.652778X0.340278X-0.652778X-0.340278X0.652778X-0.340278X0.652778X0.340278X0*%
%ADD40RoundRect,0.225000X-0.225000X-0.300000X0.225000X-0.300000X0.225000X0.300000X-0.225000X0.300000X0*%
%ADD41RoundRect,0.250000X0.250000X0.275000X-0.250000X0.275000X-0.250000X-0.275000X0.250000X-0.275000X0*%
%ADD42RoundRect,0.271739X0.678261X-0.353261X0.678261X0.353261X-0.678261X0.353261X-0.678261X-0.353261X0*%
%ADD43RoundRect,0.270409X-1.454591X0.392091X-1.454591X-0.392091X1.454591X-0.392091X1.454591X0.392091X0*%
%ADD44RoundRect,0.263889X0.686111X-1.036111X0.686111X1.036111X-0.686111X1.036111X-0.686111X-1.036111X0*%
%ADD45RoundRect,0.250000X-0.450000X-0.250000X0.450000X-0.250000X0.450000X0.250000X-0.450000X0.250000X0*%
%ADD46FreePoly0,0.000000*%
%ADD47RoundRect,0.050000X0.750000X1.715000X-0.750000X1.715000X-0.750000X-1.715000X0.750000X-1.715000X0*%
%ADD48RoundRect,0.102000X-0.400000X-0.300000X0.400000X-0.300000X0.400000X0.300000X-0.400000X0.300000X0*%
%ADD49RoundRect,0.275000X-0.500000X0.275000X-0.500000X-0.275000X0.500000X-0.275000X0.500000X0.275000X0*%
%ADD50RoundRect,0.050000X-0.625000X0.300000X-0.625000X-0.300000X0.625000X-0.300000X0.625000X0.300000X0*%
%ADD51RoundRect,0.271739X0.353261X0.678261X-0.353261X0.678261X-0.353261X-0.678261X0.353261X-0.678261X0*%
%ADD52RoundRect,0.250000X-0.275000X0.250000X-0.275000X-0.250000X0.275000X-0.250000X0.275000X0.250000X0*%
%ADD53RoundRect,0.272222X0.652778X-0.340278X0.652778X0.340278X-0.652778X0.340278X-0.652778X-0.340278X0*%
%ADD54RoundRect,0.175000X-0.175000X0.850000X-0.175000X-0.850000X0.175000X-0.850000X0.175000X0.850000X0*%
%ADD55RoundRect,0.250000X-0.250000X-0.400000X0.250000X-0.400000X0.250000X0.400000X-0.250000X0.400000X0*%
%ADD56RoundRect,0.125000X-0.125000X0.662500X-0.125000X-0.662500X0.125000X-0.662500X0.125000X0.662500X0*%
%ADD57RoundRect,0.175000X0.537500X0.175000X-0.537500X0.175000X-0.537500X-0.175000X0.537500X-0.175000X0*%
%ADD58C,3.009999*%
%ADD59C,1.620000*%
%ADD60C,1.120000*%
%ADD61C,1.975000*%
%ADD62RoundRect,0.050000X-0.937500X-0.937500X0.937500X-0.937500X0.937500X0.937500X-0.937500X0.937500X0*%
%ADD63C,1.450000*%
%ADD64C,1.900000*%
%ADD65C,1.400000*%
%ADD66C,1.600000*%
%ADD67RoundRect,0.050000X0.750000X-0.750000X0.750000X0.750000X-0.750000X0.750000X-0.750000X-0.750000X0*%
%ADD68C,3.300000*%
%ADD69C,2.000000*%
%ADD70RoundRect,0.050000X0.950000X-0.950000X0.950000X0.950000X-0.950000X0.950000X-0.950000X-0.950000X0*%
%ADD71C,3.100000*%
%ADD72C,2.200000*%
%ADD73C,1.800000*%
%ADD74RoundRect,0.264706X-0.635294X-0.635294X0.635294X-0.635294X0.635294X0.635294X-0.635294X0.635294X0*%
%ADD75C,1.300000*%
%ADD76RoundRect,0.050000X-0.850000X-0.850000X0.850000X-0.850000X0.850000X0.850000X-0.850000X0.850000X0*%
%ADD77RoundRect,0.050000X0.850000X0.850000X-0.850000X0.850000X-0.850000X-0.850000X0.850000X-0.850000X0*%
%ADD78RoundRect,0.225000X-0.475000X0.225000X-0.475000X-0.225000X0.475000X-0.225000X0.475000X0.225000X0*%
%ADD79O,1.400000X0.900000*%
G04 APERTURE END LIST*
D10*
%TO.C,Q4*%
G36*
X70358010Y5126800D02*
G01*
X69342010Y5126800D01*
X69342010Y4263200D01*
X70358010Y4263200D01*
X70358010Y3856800D01*
X69342010Y3856800D01*
X69342010Y2993200D01*
X70358010Y2993200D01*
X70358010Y2586800D01*
X69342010Y2586800D01*
X69342010Y1723200D01*
X70358010Y1723200D01*
X70358010Y1316800D01*
X69342010Y1316800D01*
X69342010Y1469200D01*
X65506610Y1469200D01*
X65506610Y5380800D01*
X69342010Y5380800D01*
X69342010Y5533200D01*
X70358010Y5533200D01*
X70358010Y5126800D01*
G37*
%TD*%
D11*
%TO.C,U1*%
X90675010Y5925000D03*
D12*
X91325009Y5925000D03*
X91975008Y5925000D03*
X91975008Y7825002D03*
X91325009Y7825002D03*
X90675010Y7825002D03*
%TD*%
D13*
%TO.C,Q4*%
X64008010Y5330000D03*
X64008010Y4060000D03*
X64008010Y2790000D03*
X64008010Y1520000D03*
X69850010Y1520000D03*
X69850010Y2790000D03*
X69850010Y4060000D03*
D14*
X67431510Y3423699D03*
D13*
X69850010Y5330000D03*
%TD*%
D15*
%TO.C,IC1*%
X38850010Y26275000D03*
X38850010Y27545000D03*
X38850010Y28815000D03*
X38850010Y30085000D03*
X33426010Y30085000D03*
X33426010Y28815000D03*
X33426010Y27545000D03*
X33426010Y26275000D03*
D16*
X36138010Y28180000D03*
%TD*%
D17*
%TO.C,C40*%
X13350010Y-5725000D03*
X10400010Y-5725000D03*
%TD*%
%TO.C,C38*%
X13350010Y-1725000D03*
X10400010Y-1725000D03*
%TD*%
%TO.C,C34*%
X13350010Y2275000D03*
X10400010Y2275000D03*
%TD*%
D18*
%TO.C,C30*%
X5400010Y-1725000D03*
X8350010Y-1725000D03*
%TD*%
%TO.C,C27*%
X5400010Y2275000D03*
X8350010Y2275000D03*
%TD*%
D19*
%TO.C,JP3*%
X45850010Y1525000D03*
D20*
X48390010Y1525000D03*
%TD*%
D17*
%TO.C,C44*%
X13350010Y6275000D03*
X10400010Y6275000D03*
%TD*%
D18*
%TO.C,C42*%
X5400010Y6275000D03*
X8350010Y6275000D03*
%TD*%
%TO.C,C29*%
X5400010Y-5725000D03*
X8350010Y-5725000D03*
%TD*%
D21*
%TO.C,R32*%
X89887510Y-1225000D03*
X92812510Y-1225000D03*
%TD*%
D22*
%TO.C,U13*%
X42350010Y20775000D03*
X42350010Y21425000D03*
X42350010Y22075000D03*
X40150010Y22075000D03*
X40150010Y20775000D03*
%TD*%
D23*
%TO.C,R64*%
X47600010Y42100000D03*
X47600010Y40450000D03*
%TD*%
D24*
%TO.C,R35*%
X56675010Y15275000D03*
X55025010Y15275000D03*
%TD*%
D25*
%TO.C,C9*%
X36150010Y32025000D03*
X38050010Y32025000D03*
%TD*%
D26*
%TO.C,C70*%
X45850010Y40500000D03*
X45850010Y42050000D03*
%TD*%
D27*
%TO.C,R16*%
X69600010Y-5887500D03*
X69600010Y-4062500D03*
%TD*%
D28*
%TO.C,C52*%
X3600010Y58500000D03*
X3600010Y55550000D03*
%TD*%
D29*
%TO.C,H1*%
X93000000Y58000000D03*
D30*
X93000000Y58000000D03*
%TD*%
D26*
%TO.C,C28*%
X44604817Y34331782D03*
X44604817Y35881782D03*
%TD*%
D31*
%TO.C,R67*%
X45024991Y21449549D03*
X45024991Y23099549D03*
%TD*%
D32*
%TO.C,C69*%
X40575010Y23775000D03*
X42125010Y23775000D03*
%TD*%
D33*
%TO.C,D5*%
X72600010Y-975000D03*
X74500010Y-975000D03*
X73550010Y900000D03*
%TD*%
D34*
%TO.C,D3*%
X46825010Y6975000D03*
X46825010Y5075000D03*
X48700010Y6025000D03*
%TD*%
D24*
%TO.C,R47*%
X74425010Y4025000D03*
X72775010Y4025000D03*
%TD*%
D35*
%TO.C,Q17*%
X33370010Y20325000D03*
X33370010Y22225000D03*
X31350010Y21275000D03*
%TD*%
D24*
%TO.C,R39*%
X46675010Y9025000D03*
X45025010Y9025000D03*
%TD*%
D36*
%TO.C,Q18*%
X44100010Y17775000D03*
X46000010Y17775000D03*
X45050010Y19795000D03*
%TD*%
D37*
%TO.C,TP7*%
X22100010Y56275000D03*
%TD*%
D38*
%TO.C,Q1*%
X60300010Y19285000D03*
X58400010Y19285000D03*
X59350010Y17265000D03*
%TD*%
D39*
%TO.C,R31*%
X25005010Y-4262500D03*
X25005010Y-7187500D03*
%TD*%
D31*
%TO.C,R60*%
X16977831Y58432766D03*
X16977831Y56782766D03*
%TD*%
D37*
%TO.C,TP8*%
X47100010Y36525000D03*
%TD*%
D31*
%TO.C,R26*%
X35600010Y52375000D03*
X35600010Y54025000D03*
%TD*%
D40*
%TO.C,R10*%
X59986010Y6275000D03*
X61636010Y6275000D03*
%TD*%
D33*
%TO.C,D4*%
X77650010Y-992359D03*
X79550010Y-992359D03*
X78600010Y882641D03*
%TD*%
D24*
%TO.C,R14*%
X59986010Y1275000D03*
X61636010Y1275000D03*
%TD*%
D41*
%TO.C,C25*%
X37375010Y43275000D03*
X35825010Y43275000D03*
%TD*%
D40*
%TO.C,R34*%
X68500010Y36425000D03*
X70150010Y36425000D03*
%TD*%
D26*
%TO.C,C37*%
X38100010Y34500000D03*
X38100010Y36050000D03*
%TD*%
D42*
%TO.C,C53*%
X17100010Y-7200000D03*
X17100010Y-4250000D03*
%TD*%
D24*
%TO.C,R5*%
X60100010Y21025000D03*
X58450010Y21025000D03*
%TD*%
D37*
%TO.C,TP6*%
X27850010Y53275000D03*
%TD*%
D24*
%TO.C,R7*%
X42850010Y27835000D03*
X41200010Y27835000D03*
%TD*%
D32*
%TO.C,C23*%
X33825010Y36525000D03*
X35375010Y36525000D03*
%TD*%
D41*
%TO.C,C5*%
X42825010Y32485000D03*
X41275010Y32485000D03*
%TD*%
D43*
%TO.C,R28*%
X27600010Y47987500D03*
X27600010Y42062500D03*
%TD*%
D38*
%TO.C,Q9*%
X60300010Y13785000D03*
X58400010Y13785000D03*
X59350010Y11765000D03*
%TD*%
D29*
%TO.C,H4*%
X93000000Y-8000000D03*
D30*
X93000000Y-8000000D03*
%TD*%
D38*
%TO.C,Q16*%
X77850010Y18525000D03*
X75950010Y18525000D03*
X76900010Y16505000D03*
%TD*%
D24*
%TO.C,R45*%
X41775010Y1025000D03*
X43425010Y1025000D03*
%TD*%
D40*
%TO.C,R12*%
X55025010Y21025000D03*
X56675010Y21025000D03*
%TD*%
D44*
%TO.C,D1*%
X26850010Y16525000D03*
X26850010Y20525000D03*
%TD*%
D41*
%TO.C,C21*%
X37375010Y44775000D03*
X35825010Y44775000D03*
%TD*%
D24*
%TO.C,R40*%
X56675010Y11775000D03*
X55025010Y11775000D03*
%TD*%
D23*
%TO.C,R65*%
X37350010Y22100000D03*
X37350010Y20450000D03*
%TD*%
D45*
%TO.C,U2*%
X33900010Y41775000D03*
D46*
X33987510Y40275000D03*
D45*
X33900010Y38775000D03*
%TD*%
D47*
%TO.C,F1*%
X41725010Y8025000D03*
X37425010Y8025000D03*
%TD*%
D29*
%TO.C,H3*%
X-999990Y-8000000D03*
D30*
X-999990Y-8000000D03*
%TD*%
D17*
%TO.C,C66*%
X42575010Y47275000D03*
X39625010Y47275000D03*
%TD*%
D48*
%TO.C,Q2*%
X50850010Y4675000D03*
X50850010Y2775000D03*
X52870010Y3725000D03*
%TD*%
D49*
%TO.C,C14*%
X20600010Y19475000D03*
X20600010Y17575000D03*
%TD*%
D24*
%TO.C,R33*%
X60175010Y15525000D03*
X58525010Y15525000D03*
%TD*%
%TO.C,R42*%
X77703325Y2516331D03*
X79353325Y2516331D03*
%TD*%
D23*
%TO.C,R41*%
X43833108Y5181343D03*
X43833108Y6831343D03*
%TD*%
D50*
%TO.C,Q6*%
X56700010Y2070000D03*
X56700010Y3980000D03*
X54600010Y3025000D03*
%TD*%
D38*
%TO.C,Q3*%
X60811010Y2751337D03*
X59861010Y4771337D03*
X61761010Y4771337D03*
%TD*%
D51*
%TO.C,C54*%
X92825010Y-3475000D03*
X89875010Y-3475000D03*
%TD*%
D31*
%TO.C,R66*%
X35600010Y20450000D03*
X35600010Y22100000D03*
%TD*%
D52*
%TO.C,C63*%
X80100010Y9050000D03*
X80100010Y7500000D03*
%TD*%
D50*
%TO.C,Q11*%
X53200010Y11820000D03*
X53200010Y13730000D03*
X51100010Y12775000D03*
%TD*%
D32*
%TO.C,C10*%
X53300010Y275000D03*
X54850010Y275000D03*
%TD*%
D52*
%TO.C,C13*%
X20600010Y27800000D03*
X20600010Y26250000D03*
%TD*%
D25*
%TO.C,C7*%
X68150010Y-1025000D03*
X70050010Y-1025000D03*
%TD*%
D31*
%TO.C,R36*%
X81350010Y2450000D03*
X81350010Y4100000D03*
%TD*%
D23*
%TO.C,R58*%
X18350010Y58425000D03*
X18350010Y56775000D03*
%TD*%
D52*
%TO.C,C55*%
X66075010Y42200000D03*
X66075010Y40650000D03*
%TD*%
D26*
%TO.C,C58*%
X66075010Y36400000D03*
X66075010Y37950000D03*
%TD*%
D23*
%TO.C,R61*%
X80100010Y12350000D03*
X80100010Y10700000D03*
%TD*%
D24*
%TO.C,R11*%
X42875010Y29335000D03*
X41225010Y29335000D03*
%TD*%
D31*
%TO.C,R27*%
X36850010Y52375000D03*
X36850010Y54025000D03*
%TD*%
D23*
%TO.C,R37*%
X76100010Y2600000D03*
X76100010Y950000D03*
%TD*%
D32*
%TO.C,C68*%
X40550010Y19025000D03*
X42100010Y19025000D03*
%TD*%
D24*
%TO.C,R43*%
X72775010Y2525000D03*
X74425010Y2525000D03*
%TD*%
D32*
%TO.C,C8*%
X36100010Y-1475000D03*
X37650010Y-1475000D03*
%TD*%
D24*
%TO.C,R38*%
X70150010Y42175000D03*
X68500010Y42175000D03*
%TD*%
D40*
%TO.C,R46*%
X77712418Y4025741D03*
X79362418Y4025741D03*
%TD*%
D25*
%TO.C,C6*%
X64150010Y8525000D03*
X66050010Y8525000D03*
%TD*%
D53*
%TO.C,R30*%
X6100010Y55600000D03*
X6100010Y58525000D03*
%TD*%
D50*
%TO.C,Q5*%
X53150010Y17365000D03*
X53150010Y19275000D03*
X51050010Y18320000D03*
%TD*%
D54*
%TO.C,U9*%
X78255010Y14000000D03*
X76985010Y14000000D03*
X75715010Y14000000D03*
X74445010Y14000000D03*
X74445010Y9050000D03*
X75715010Y9050000D03*
X76985010Y9050000D03*
X78255010Y9050000D03*
%TD*%
D55*
%TO.C,D8*%
X39600010Y50275000D03*
X42900010Y50275000D03*
%TD*%
D56*
%TO.C,U5*%
X64325010Y42150000D03*
X63675010Y42150000D03*
X63025010Y42150000D03*
X62375010Y42150000D03*
X61725010Y42150000D03*
X61075010Y42150000D03*
X60425010Y42150000D03*
X59775010Y42150000D03*
X59775010Y36425000D03*
X60425010Y36425000D03*
X61075010Y36425000D03*
X61725010Y36425000D03*
X62375010Y36425000D03*
X63025010Y36425000D03*
X63675010Y36425000D03*
X64325010Y36425000D03*
%TD*%
D29*
%TO.C,H2*%
X-999990Y58000000D03*
D30*
X-999990Y58000000D03*
%TD*%
D24*
%TO.C,R6*%
X42850010Y26335000D03*
X41200010Y26335000D03*
%TD*%
D44*
%TO.C,D9*%
X27850010Y33975000D03*
X27850010Y29975000D03*
%TD*%
D47*
%TO.C,F2*%
X41725010Y4025000D03*
X37425010Y4025000D03*
%TD*%
D56*
%TO.C,U12*%
X43850010Y38300000D03*
X43200010Y38300000D03*
X42550010Y38300000D03*
X41900010Y38300000D03*
X41250010Y38300000D03*
X40600010Y38300000D03*
X39950010Y38300000D03*
X39950010Y44025000D03*
X40600010Y44025000D03*
X41250010Y44025000D03*
X41900010Y44025000D03*
X42550010Y44025000D03*
X43200010Y44025000D03*
X43850010Y44025000D03*
%TD*%
D35*
%TO.C,Q10*%
X70032034Y38367043D03*
X70032034Y40267043D03*
X68012034Y39317043D03*
%TD*%
D40*
%TO.C,R69*%
X44275010Y16025000D03*
X45925010Y16025000D03*
%TD*%
D31*
%TO.C,R3*%
X80150010Y51950000D03*
X80150010Y53600000D03*
%TD*%
D24*
%TO.C,R8*%
X42875010Y30885000D03*
X41225010Y30885000D03*
%TD*%
D57*
%TO.C,U3*%
X42487510Y34325000D03*
X42487510Y35275000D03*
X42487510Y36225000D03*
X40212510Y36225000D03*
X40212510Y34325000D03*
%TD*%
D24*
%TO.C,R13*%
X54675010Y6775000D03*
X53025010Y6775000D03*
%TD*%
D31*
%TO.C,R9*%
X51100010Y6450000D03*
X51100010Y8100000D03*
%TD*%
D24*
%TO.C,R21*%
X92100010Y4275000D03*
X90450010Y4275000D03*
%TD*%
%TO.C,R59*%
X77675010Y20525000D03*
X76025010Y20525000D03*
%TD*%
D52*
%TO.C,C60*%
X30350010Y-5225000D03*
X30350010Y-6775000D03*
%TD*%
D24*
%TO.C,R23*%
X92100010Y9525000D03*
X90450010Y9525000D03*
%TD*%
D58*
%TO.C,J5*%
X59000008Y-3974999D03*
X48700014Y-3974999D03*
D59*
X56850010Y-2475000D03*
X53850011Y-2475000D03*
X50850012Y-2475000D03*
X56850010Y-5474999D03*
X53850011Y-5474999D03*
X50850012Y-5474999D03*
D60*
X47850013Y-1534999D03*
X59849989Y-1534999D03*
%TD*%
D61*
%TO.C,J4*%
X79850010Y-4975000D03*
X77350010Y-4975000D03*
X74850010Y-4975000D03*
D62*
X72350010Y-4975000D03*
D63*
X76100010Y-3635000D03*
%TD*%
D64*
%TO.C,J3*%
X87350010Y-4975000D03*
X84850010Y-4975000D03*
D65*
X86100010Y-3635000D03*
%TD*%
D19*
%TO.C,X19*%
X58520009Y58499972D03*
D20*
X58520009Y55959972D03*
X61060009Y58499972D03*
X61060009Y55959972D03*
X63600009Y58499972D03*
X63600009Y55959972D03*
X66140009Y58499972D03*
X66140009Y55959972D03*
X68680009Y58499972D03*
X68680009Y55959972D03*
X71220009Y58499972D03*
X71220009Y55959972D03*
X73760009Y58499972D03*
X73760009Y55959972D03*
X76300009Y58499972D03*
X76300009Y55959972D03*
X78840009Y58499972D03*
X78840009Y55959972D03*
X81380009Y58499972D03*
X81380009Y55959972D03*
X83920009Y58499972D03*
X83920009Y55959972D03*
X86460009Y58499972D03*
X86460009Y55959972D03*
%TD*%
D61*
%TO.C,J8*%
X85850010Y15025000D03*
X85850010Y17525000D03*
X85850010Y20025000D03*
D63*
X87190010Y18775000D03*
%TD*%
D66*
%TO.C,J9*%
X30350010Y4645000D03*
X27810010Y3375000D03*
X30350010Y2105000D03*
X27810010Y835000D03*
X30350010Y-435000D03*
X27810010Y-1705000D03*
X30350010Y-2975000D03*
D67*
X27810010Y-4245000D03*
D68*
X21460010Y5915000D03*
X21460010Y-5515000D03*
%TD*%
D69*
%TO.C,J1*%
X23300010Y42925000D03*
X23300010Y47125000D03*
X17800010Y42925000D03*
D70*
X17800010Y47125000D03*
D71*
X22840010Y51825000D03*
X22840010Y38225000D03*
%TD*%
D72*
%TO.C,J6*%
X45269988Y-3514999D03*
X33430012Y-3514999D03*
D73*
X43100010Y-5725000D03*
X40600010Y-5725000D03*
X38100010Y-5725000D03*
X35600010Y-5725000D03*
X43100010Y-3225000D03*
X40600010Y-3225000D03*
X38100010Y-3225000D03*
D74*
X35600010Y-3225000D03*
D75*
X39350010Y-1885000D03*
%TD*%
D19*
%TO.C,X10*%
X25500010Y58500000D03*
D20*
X25500010Y55960000D03*
X28040010Y58500000D03*
X28040010Y55960000D03*
X30580010Y58500000D03*
X30580010Y55960000D03*
X33120010Y58500000D03*
X33120010Y55960000D03*
X35660010Y58500000D03*
X35660010Y55960000D03*
X38200010Y58500000D03*
X38200010Y55960000D03*
X40740010Y58500000D03*
X40740010Y55960000D03*
X43280010Y58500000D03*
X43280010Y55960000D03*
X45820010Y58500000D03*
X45820010Y55960000D03*
X48360010Y58500000D03*
X48360010Y55960000D03*
X50900010Y58500000D03*
X50900010Y55960000D03*
X53440010Y58500000D03*
X53440010Y55960000D03*
%TD*%
D69*
%TO.C,J10*%
X23362511Y16400000D03*
X23362511Y20600000D03*
X23362511Y24800000D03*
X23362511Y29000000D03*
X17862511Y16400000D03*
X17862511Y20600000D03*
X17862511Y24800000D03*
D70*
X17862511Y29000000D03*
D71*
X22902511Y33700000D03*
X22902511Y11700000D03*
%TD*%
D61*
%TO.C,J2*%
X67190010Y-6155000D03*
X67190010Y-3655000D03*
X64690010Y-6155000D03*
X64690010Y-3655000D03*
D63*
X65940010Y-2315000D03*
%TD*%
D76*
%TO.C,X5*%
X38Y4D03*
D20*
X2540038Y4D03*
X38Y2540004D03*
X2540038Y2540004D03*
%TD*%
D77*
%TO.C,X16*%
X92000002Y52499976D03*
D20*
X89460002Y52499976D03*
X92000002Y49959976D03*
X89460002Y49959976D03*
X92000002Y47419976D03*
X89460002Y47419976D03*
X92000002Y44879976D03*
X89460002Y44879976D03*
X92000002Y42339976D03*
X89460002Y42339976D03*
X92000002Y39799976D03*
X89460002Y39799976D03*
X92000002Y37259976D03*
X89460002Y37259976D03*
X92000002Y34719976D03*
X89460002Y34719976D03*
X92000002Y32179976D03*
X89460002Y32179976D03*
X92000002Y29639976D03*
X89460002Y29639976D03*
X92000002Y27099976D03*
X89460002Y27099976D03*
X92000002Y24559976D03*
X89460002Y24559976D03*
%TD*%
D73*
%TO.C,J7*%
X84600010Y4275000D03*
X84600010Y6775000D03*
X84600010Y9275000D03*
X87100010Y4275000D03*
X87100010Y6775000D03*
X87100010Y9275000D03*
%TD*%
D78*
%TO.C,J11*%
X69400010Y26400000D03*
D79*
X69400010Y25150000D03*
%TD*%
D76*
%TO.C,JP1*%
X35100010Y4500000D03*
D20*
X35100010Y7040000D03*
%TD*%
M02*
