%TF.GenerationSoftware,KiCad,Pcbnew,8.0.8*%
%TF.CreationDate,2025-02-06T17:20:13+00:00*%
%TF.ProjectId,mallow_adapt_v1.3,6d616c6c-6f77-45f6-9164-6170745f7631,rev?*%
%TF.SameCoordinates,Original*%
%TF.FileFunction,Paste,Bot*%
%TF.FilePolarity,Positive*%
%FSLAX46Y46*%
G04 Gerber Fmt 4.6, Leading zero omitted, Abs format (unit mm)*
G04 Created by KiCad (PCBNEW 8.0.8) date 2025-02-06 17:20:13*
%MOMM*%
%LPD*%
G01*
G04 APERTURE LIST*
G04 Aperture macros list*
%AMRoundRect*
0 Rectangle with rounded corners*
0 $1 Rounding radius*
0 $2 $3 $4 $5 $6 $7 $8 $9 X,Y pos of 4 corners*
0 Add a 4 corners polygon primitive as box body*
4,1,4,$2,$3,$4,$5,$6,$7,$8,$9,$2,$3,0*
0 Add four circle primitives for the rounded corners*
1,1,$1+$1,$2,$3*
1,1,$1+$1,$4,$5*
1,1,$1+$1,$6,$7*
1,1,$1+$1,$8,$9*
0 Add four rect primitives between the rounded corners*
20,1,$1+$1,$2,$3,$4,$5,0*
20,1,$1+$1,$4,$5,$6,$7,0*
20,1,$1+$1,$6,$7,$8,$9,0*
20,1,$1+$1,$8,$9,$2,$3,0*%
G04 Aperture macros list end*
%ADD10C,0.000000*%
%ADD11R,0.600000X0.420000*%
%ADD12O,0.600000X0.420000*%
%ADD13R,1.016000X0.406400*%
%ADD14R,3.821000X3.908998*%
%ADD15R,0.300000X0.800000*%
%ADD16R,0.800000X0.300000*%
%ADD17R,1.500000X1.500000*%
%ADD18R,1.250000X0.600000*%
%ADD19R,1.475000X0.450000*%
%ADD20RoundRect,0.250000X-0.325000X-1.100000X0.325000X-1.100000X0.325000X1.100000X-0.325000X1.100000X0*%
%ADD21RoundRect,0.250000X0.325000X1.100000X-0.325000X1.100000X-0.325000X-1.100000X0.325000X-1.100000X0*%
%ADD22RoundRect,0.200000X0.275000X-0.200000X0.275000X0.200000X-0.275000X0.200000X-0.275000X-0.200000X0*%
%ADD23RoundRect,0.150000X-0.150000X0.825000X-0.150000X-0.825000X0.150000X-0.825000X0.150000X0.825000X0*%
%ADD24RoundRect,0.225000X-0.250000X0.225000X-0.250000X-0.225000X0.250000X-0.225000X0.250000X0.225000X0*%
%ADD25RoundRect,0.200000X0.200000X0.275000X-0.200000X0.275000X-0.200000X-0.275000X0.200000X-0.275000X0*%
%ADD26RoundRect,0.200000X-0.200000X-0.275000X0.200000X-0.275000X0.200000X0.275000X-0.200000X0.275000X0*%
%ADD27RoundRect,0.225000X0.250000X-0.225000X0.250000X0.225000X-0.250000X0.225000X-0.250000X-0.225000X0*%
%ADD28R,0.300000X0.750000*%
%ADD29R,1.300000X0.900000*%
%ADD30RoundRect,0.200000X-0.275000X0.200000X-0.275000X-0.200000X0.275000X-0.200000X0.275000X0.200000X0*%
%ADD31R,0.600000X0.800000*%
%ADD32RoundRect,0.225000X0.225000X0.250000X-0.225000X0.250000X-0.225000X-0.250000X0.225000X-0.250000X0*%
%ADD33RoundRect,0.250000X0.325000X0.650000X-0.325000X0.650000X-0.325000X-0.650000X0.325000X-0.650000X0*%
%ADD34RoundRect,0.250000X1.100000X-0.325000X1.100000X0.325000X-1.100000X0.325000X-1.100000X-0.325000X0*%
%ADD35RoundRect,0.225000X-0.225000X-0.250000X0.225000X-0.250000X0.225000X0.250000X-0.225000X0.250000X0*%
%ADD36RoundRect,0.250000X-0.312500X-0.625000X0.312500X-0.625000X0.312500X0.625000X-0.312500X0.625000X0*%
%ADD37RoundRect,0.100000X-0.100000X0.637500X-0.100000X-0.637500X0.100000X-0.637500X0.100000X0.637500X0*%
%ADD38RoundRect,0.250000X1.075000X-0.375000X1.075000X0.375000X-1.075000X0.375000X-1.075000X-0.375000X0*%
%ADD39R,1.800000X1.000000*%
%ADD40RoundRect,0.250000X0.250000X-0.250000X0.250000X0.250000X-0.250000X0.250000X-0.250000X-0.250000X0*%
%ADD41R,1.800000X3.400000*%
%ADD42R,0.850000X0.300000*%
%ADD43R,0.690000X2.440000*%
%ADD44R,0.800000X0.600000*%
%ADD45R,3.160000X1.000000*%
%ADD46RoundRect,0.225000X-0.225000X-0.375000X0.225000X-0.375000X0.225000X0.375000X-0.225000X0.375000X0*%
%ADD47RoundRect,0.150000X-0.825000X-0.150000X0.825000X-0.150000X0.825000X0.150000X-0.825000X0.150000X0*%
%ADD48RoundRect,0.218750X0.381250X-0.218750X0.381250X0.218750X-0.381250X0.218750X-0.381250X-0.218750X0*%
%ADD49R,1.400000X0.300000*%
G04 APERTURE END LIST*
D10*
%TO.C,Q15*%
G36*
X36308777Y15981600D02*
G01*
X35230310Y15981600D01*
X35230310Y17085467D01*
X36308777Y17085467D01*
X36308777Y15981600D01*
G37*
G36*
X36308777Y17285466D02*
G01*
X35230310Y17285466D01*
X35230310Y18389334D01*
X36308777Y18389334D01*
X36308777Y17285466D01*
G37*
G36*
X36308777Y18589333D02*
G01*
X35230310Y18589333D01*
X35230310Y19693200D01*
X36308777Y19693200D01*
X36308777Y18589333D01*
G37*
G36*
X37587244Y15981600D02*
G01*
X36508776Y15981600D01*
X36508776Y17085467D01*
X37587244Y17085467D01*
X37587244Y15981600D01*
G37*
G36*
X37587244Y17285466D02*
G01*
X36508776Y17285466D01*
X36508776Y18389334D01*
X37587244Y18389334D01*
X37587244Y17285466D01*
G37*
G36*
X37587244Y18589333D02*
G01*
X36508776Y18589333D01*
X36508776Y19693200D01*
X37587244Y19693200D01*
X37587244Y18589333D01*
G37*
G36*
X38865710Y15981600D02*
G01*
X37787243Y15981600D01*
X37787243Y17085467D01*
X38865710Y17085467D01*
X38865710Y15981600D01*
G37*
G36*
X38865710Y17285466D02*
G01*
X37787243Y17285466D01*
X37787243Y18389334D01*
X38865710Y18389334D01*
X38865710Y17285466D01*
G37*
G36*
X38865710Y18589333D02*
G01*
X37787243Y18589333D01*
X37787243Y19693200D01*
X38865710Y19693200D01*
X38865710Y18589333D01*
G37*
G36*
X40477010Y19539200D02*
G01*
X39461010Y19539200D01*
X39461010Y18675600D01*
X40477010Y18675600D01*
X40477010Y18269200D01*
X39461010Y18269200D01*
X39461010Y17405600D01*
X40477010Y17405600D01*
X40477010Y16999200D01*
X39461010Y16999200D01*
X39461010Y16135600D01*
X40477010Y16135600D01*
X40477010Y15729200D01*
X39461010Y15729200D01*
X39461010Y15881600D01*
X35625610Y15881600D01*
X35625610Y19793200D01*
X39461010Y19793200D01*
X39461010Y19945600D01*
X40477010Y19945600D01*
X40477010Y19539200D01*
G37*
%TO.C,Q7*%
G36*
X10110777Y17883382D02*
G01*
X9032310Y17883382D01*
X9032310Y18987249D01*
X10110777Y18987249D01*
X10110777Y17883382D01*
G37*
G36*
X10110777Y19187248D02*
G01*
X9032310Y19187248D01*
X9032310Y20291116D01*
X10110777Y20291116D01*
X10110777Y19187248D01*
G37*
G36*
X10110777Y20491115D02*
G01*
X9032310Y20491115D01*
X9032310Y21594982D01*
X10110777Y21594982D01*
X10110777Y20491115D01*
G37*
G36*
X11389244Y17883382D02*
G01*
X10310776Y17883382D01*
X10310776Y18987249D01*
X11389244Y18987249D01*
X11389244Y17883382D01*
G37*
G36*
X11389244Y19187248D02*
G01*
X10310776Y19187248D01*
X10310776Y20291116D01*
X11389244Y20291116D01*
X11389244Y19187248D01*
G37*
G36*
X11389244Y20491115D02*
G01*
X10310776Y20491115D01*
X10310776Y21594982D01*
X11389244Y21594982D01*
X11389244Y20491115D01*
G37*
G36*
X12667710Y17883382D02*
G01*
X11589243Y17883382D01*
X11589243Y18987249D01*
X12667710Y18987249D01*
X12667710Y17883382D01*
G37*
G36*
X12667710Y19187248D02*
G01*
X11589243Y19187248D01*
X11589243Y20291116D01*
X12667710Y20291116D01*
X12667710Y19187248D01*
G37*
G36*
X12667710Y20491115D02*
G01*
X11589243Y20491115D01*
X11589243Y21594982D01*
X12667710Y21594982D01*
X12667710Y20491115D01*
G37*
G36*
X14279010Y21440982D02*
G01*
X13263010Y21440982D01*
X13263010Y20577382D01*
X14279010Y20577382D01*
X14279010Y20170982D01*
X13263010Y20170982D01*
X13263010Y19307382D01*
X14279010Y19307382D01*
X14279010Y18900982D01*
X13263010Y18900982D01*
X13263010Y18037382D01*
X14279010Y18037382D01*
X14279010Y17630982D01*
X13263010Y17630982D01*
X13263010Y17783382D01*
X9427610Y17783382D01*
X9427610Y21694982D01*
X13263010Y21694982D01*
X13263010Y21847382D01*
X14279010Y21847382D01*
X14279010Y21440982D01*
G37*
%TD*%
D11*
%TO.C,U14*%
X84500012Y43824998D03*
D12*
X84500012Y43174999D03*
X84500012Y42525000D03*
X82600010Y42525000D03*
X82600010Y43174999D03*
X82600010Y43824998D03*
%TD*%
D13*
%TO.C,Q15*%
X34127010Y15932400D03*
X34127010Y17202400D03*
X34127010Y18472400D03*
X34127010Y19742400D03*
X39969010Y19742400D03*
X39969010Y18472400D03*
X39969010Y17202400D03*
D14*
X37550510Y17838701D03*
D13*
X39969010Y15932400D03*
%TD*%
%TO.C,Q7*%
X7929010Y17834182D03*
X7929010Y19104182D03*
X7929010Y20374182D03*
X7929010Y21644182D03*
X13771010Y21644182D03*
X13771010Y20374182D03*
X13771010Y19104182D03*
D14*
X11352510Y19740483D03*
D13*
X13771010Y17834182D03*
%TD*%
D15*
%TO.C,IC5*%
X76300010Y43075000D03*
X75800010Y43075000D03*
X75300010Y43075000D03*
X74800010Y43075000D03*
D16*
X74100010Y43775000D03*
X74100010Y44275000D03*
X74100010Y44775000D03*
X74100010Y45275000D03*
D15*
X74800010Y45975000D03*
X75300010Y45975000D03*
X75800010Y45975000D03*
X76300010Y45975000D03*
D16*
X77000010Y45275000D03*
X77000010Y44775000D03*
X77000010Y44275000D03*
X77000010Y43775000D03*
D17*
X75550010Y44525000D03*
%TD*%
D18*
%TO.C,IC4*%
X63075010Y2075000D03*
X63075010Y3025000D03*
X63075010Y3975000D03*
X65575010Y3975000D03*
X65575010Y3025000D03*
X65575010Y2075000D03*
%TD*%
D19*
%TO.C,IC3*%
X63388011Y34950000D03*
X63388011Y34300000D03*
X63388011Y33650000D03*
X63388011Y33000000D03*
X63388011Y32350000D03*
X63388011Y31700000D03*
X63388011Y31050000D03*
X63388011Y30400000D03*
X57512011Y30400000D03*
X57512011Y31050000D03*
X57512011Y31700000D03*
X57512011Y32350000D03*
X57512011Y33000000D03*
X57512011Y33650000D03*
X57512011Y34300000D03*
X57512011Y34950000D03*
%TD*%
D20*
%TO.C,C41*%
X8337506Y-1725000D03*
X5387506Y-1725000D03*
%TD*%
%TO.C,C39*%
X8337506Y2275000D03*
X5387506Y2275000D03*
%TD*%
D21*
%TO.C,C36*%
X10387506Y2275000D03*
X13337506Y2275000D03*
%TD*%
D20*
%TO.C,C35*%
X8337506Y6275000D03*
X5387506Y6275000D03*
%TD*%
D21*
%TO.C,C33*%
X10387506Y-1725000D03*
X13337506Y-1725000D03*
%TD*%
%TO.C,C32*%
X13337506Y6275000D03*
X10387506Y6275000D03*
%TD*%
%TO.C,C31*%
X10387506Y-5725000D03*
X13337506Y-5725000D03*
%TD*%
D22*
%TO.C,R4*%
X76300010Y48725000D03*
X76300010Y50375000D03*
%TD*%
D20*
%TO.C,C43*%
X8337506Y-5725000D03*
X5387506Y-5725000D03*
%TD*%
D23*
%TO.C,U7*%
X73845010Y13850000D03*
X75115010Y13850000D03*
X76385010Y13850000D03*
X77655010Y13850000D03*
X77655010Y8900000D03*
X76385010Y8900000D03*
X75115010Y8900000D03*
X73845010Y8900000D03*
%TD*%
D24*
%TO.C,C24*%
X32350010Y44050000D03*
X32350010Y42500000D03*
%TD*%
D25*
%TO.C,R78*%
X80925010Y22025000D03*
X79275010Y22025000D03*
%TD*%
D26*
%TO.C,R17*%
X90450010Y10775000D03*
X92100010Y10775000D03*
%TD*%
D27*
%TO.C,C78*%
X52350010Y8750000D03*
X52350010Y10300000D03*
%TD*%
D28*
%TO.C,U11*%
X33050010Y52775000D03*
X33550010Y52775000D03*
X34050010Y52775000D03*
X34550010Y52775000D03*
X34550010Y50775000D03*
X34050010Y50775000D03*
X33550010Y50775000D03*
X33050010Y50775000D03*
D29*
X33800010Y51775000D03*
%TD*%
D30*
%TO.C,R75*%
X73300010Y50350000D03*
X73300010Y48700000D03*
%TD*%
D31*
%TO.C,Q13*%
X28000010Y14615000D03*
X26100010Y14615000D03*
X27050010Y16635000D03*
%TD*%
D22*
%TO.C,R56*%
X57262011Y37350000D03*
X57262011Y39000000D03*
%TD*%
D32*
%TO.C,C19*%
X92125010Y12525000D03*
X90575010Y12525000D03*
%TD*%
D33*
%TO.C,C51*%
X86350010Y51025000D03*
X83400010Y51025000D03*
%TD*%
D22*
%TO.C,R15*%
X55350010Y37350000D03*
X55350010Y39000000D03*
%TD*%
D34*
%TO.C,C12*%
X43850010Y18300000D03*
X43850010Y21250000D03*
%TD*%
D30*
%TO.C,R71*%
X70300010Y50350000D03*
X70300010Y48700000D03*
%TD*%
D35*
%TO.C,C3*%
X65550010Y25000D03*
X67100010Y25000D03*
%TD*%
D36*
%TO.C,R29*%
X83387510Y53275000D03*
X86312510Y53275000D03*
%TD*%
D37*
%TO.C,U17*%
X80600010Y35550000D03*
X81250010Y35550000D03*
X81900010Y35550000D03*
X82550010Y35550000D03*
X83200010Y35550000D03*
X83850010Y35550000D03*
X84500010Y35550000D03*
X85150010Y35550000D03*
X85150010Y29825000D03*
X84500010Y29825000D03*
X83850010Y29825000D03*
X83200010Y29825000D03*
X82550010Y29825000D03*
X81900010Y29825000D03*
X81250010Y29825000D03*
X80600010Y29825000D03*
%TD*%
D25*
%TO.C,R68*%
X43925010Y15775000D03*
X42275010Y15775000D03*
%TD*%
D35*
%TO.C,C64*%
X40325010Y47775000D03*
X41875010Y47775000D03*
%TD*%
D22*
%TO.C,R63*%
X74100010Y18450000D03*
X74100010Y20100000D03*
%TD*%
D18*
%TO.C,Q21*%
X80800010Y18320000D03*
X80800010Y20230000D03*
X82900010Y19275000D03*
%TD*%
D27*
%TO.C,C16*%
X17850010Y32500000D03*
X17850010Y34050000D03*
%TD*%
D38*
%TO.C,L2*%
X68600010Y2225000D03*
X68600010Y5025000D03*
%TD*%
D30*
%TO.C,R77*%
X77800010Y50350000D03*
X77800010Y48700000D03*
%TD*%
D27*
%TO.C,C73*%
X58350010Y8750000D03*
X58350010Y10300000D03*
%TD*%
D22*
%TO.C,R54*%
X62950011Y37350000D03*
X62950011Y39000000D03*
%TD*%
%TO.C,R2*%
X53600010Y51950000D03*
X53600010Y53600000D03*
%TD*%
D25*
%TO.C,R24*%
X5200010Y18295000D03*
X3550010Y18295000D03*
%TD*%
D30*
%TO.C,R48*%
X41075010Y2600000D03*
X41075010Y950000D03*
%TD*%
D22*
%TO.C,R72*%
X86100010Y42450000D03*
X86100010Y44100000D03*
%TD*%
D39*
%TO.C,Y1*%
X45850010Y50275000D03*
X45850010Y52775000D03*
%TD*%
D27*
%TO.C,C79*%
X78350010Y29775000D03*
X78350010Y31325000D03*
%TD*%
D35*
%TO.C,C18*%
X29075010Y41525000D03*
X30625010Y41525000D03*
%TD*%
D30*
%TO.C,R70*%
X79300010Y50350000D03*
X79300010Y48700000D03*
%TD*%
D32*
%TO.C,C15*%
X92210727Y1025000D03*
X90660727Y1025000D03*
%TD*%
D22*
%TO.C,R57*%
X78800010Y41700000D03*
X78800010Y43350000D03*
%TD*%
D40*
%TO.C,D6*%
X29600010Y18775000D03*
X29600010Y21275000D03*
%TD*%
D27*
%TO.C,C59*%
X31350010Y18750000D03*
X31350010Y20300000D03*
%TD*%
D16*
%TO.C,U16*%
X54375010Y7525000D03*
X54375010Y7025000D03*
X54375010Y6525000D03*
X54375010Y6025000D03*
X54375010Y5525000D03*
X54375010Y5025000D03*
X51375010Y5025000D03*
X51375010Y5525000D03*
X51375010Y6025000D03*
X51375010Y6525000D03*
X51375010Y7025000D03*
X51375010Y7525000D03*
D41*
X52875010Y6275000D03*
%TD*%
D42*
%TO.C,IC2*%
X28900010Y43525000D03*
X28900010Y44025000D03*
X28900010Y44525000D03*
X28900010Y45025000D03*
X28900010Y45525000D03*
X30800010Y45525000D03*
X30800010Y45025000D03*
X30800010Y44525000D03*
X30800010Y44025000D03*
X30800010Y43525000D03*
D43*
X29850010Y44525000D03*
%TD*%
D44*
%TO.C,Q12*%
X42870010Y11975000D03*
X42870010Y10075000D03*
X40850010Y11025000D03*
%TD*%
D32*
%TO.C,C76*%
X53650010Y2775000D03*
X52100010Y2775000D03*
%TD*%
D26*
%TO.C,R25*%
X3550010Y16795000D03*
X5200010Y16795000D03*
%TD*%
D25*
%TO.C,R51*%
X31875010Y16775000D03*
X30225010Y16775000D03*
%TD*%
D30*
%TO.C,R74*%
X71800010Y50350000D03*
X71800010Y48700000D03*
%TD*%
D27*
%TO.C,C74*%
X56100010Y8750000D03*
X56100010Y10300000D03*
%TD*%
D30*
%TO.C,R55*%
X72000010Y12500000D03*
X72000010Y10850000D03*
%TD*%
%TO.C,R50*%
X64450011Y39000000D03*
X64450011Y37350000D03*
%TD*%
D24*
%TO.C,C61*%
X72000010Y8900000D03*
X72000010Y7350000D03*
%TD*%
D11*
%TO.C,U6*%
X59500010Y37275001D03*
D12*
X59500010Y37925000D03*
X59500010Y38574999D03*
X61400012Y38574999D03*
X61400012Y37925000D03*
X61400012Y37275001D03*
%TD*%
D25*
%TO.C,R20*%
X92250010Y4275000D03*
X90600010Y4275000D03*
%TD*%
D44*
%TO.C,Q14*%
X68090947Y12430595D03*
X68090947Y14330595D03*
X70110947Y13380595D03*
%TD*%
D24*
%TO.C,C11*%
X55012011Y34950000D03*
X55012011Y33400000D03*
%TD*%
D45*
%TO.C,RL1*%
X28850010Y26595000D03*
X28850010Y31675000D03*
X28850010Y34215000D03*
X28850010Y36755000D03*
X36090010Y36755000D03*
X36090010Y34215000D03*
X36090010Y31675000D03*
X36090010Y26595000D03*
%TD*%
D25*
%TO.C,R62*%
X41931487Y46065751D03*
X40281487Y46065751D03*
%TD*%
D26*
%TO.C,R18*%
X90450010Y9275000D03*
X92100010Y9275000D03*
%TD*%
D30*
%TO.C,R76*%
X74800010Y50350000D03*
X74800010Y48700000D03*
%TD*%
D22*
%TO.C,R52*%
X27850010Y18775000D03*
X27850010Y20425000D03*
%TD*%
D46*
%TO.C,D7*%
X31200010Y24025000D03*
X34500010Y24025000D03*
%TD*%
D24*
%TO.C,C77*%
X78350010Y35575000D03*
X78350010Y34025000D03*
%TD*%
%TO.C,C56*%
X44075010Y2300000D03*
X44075010Y750000D03*
%TD*%
D25*
%TO.C,R49*%
X31850010Y15275000D03*
X30200010Y15275000D03*
%TD*%
D22*
%TO.C,R22*%
X2375010Y19909182D03*
X2375010Y21559182D03*
%TD*%
D25*
%TO.C,R19*%
X92250010Y2775000D03*
X90600010Y2775000D03*
%TD*%
D40*
%TO.C,D2*%
X4125010Y20045000D03*
X4125010Y22545000D03*
%TD*%
D32*
%TO.C,C65*%
X34100010Y49025000D03*
X32550010Y49025000D03*
%TD*%
%TO.C,C71*%
X75252481Y41330402D03*
X73702481Y41330402D03*
%TD*%
D27*
%TO.C,C22*%
X26600010Y44000000D03*
X26600010Y45550000D03*
%TD*%
%TO.C,C17*%
X5875010Y19959182D03*
X5875010Y21509182D03*
%TD*%
D32*
%TO.C,C4*%
X64650010Y6025000D03*
X63100010Y6025000D03*
%TD*%
D22*
%TO.C,R44*%
X48100010Y14200000D03*
X48100010Y15850000D03*
%TD*%
D47*
%TO.C,U4*%
X39083108Y4101343D03*
X39083108Y5371343D03*
X39083108Y6641343D03*
X39083108Y7911343D03*
X44033108Y7911343D03*
X44033108Y6641343D03*
X44033108Y5371343D03*
X44033108Y4101343D03*
%TD*%
D48*
%TO.C,L1*%
X56625010Y4962500D03*
X56625010Y7087500D03*
%TD*%
D24*
%TO.C,C20*%
X66850010Y50725000D03*
X66850010Y52275000D03*
%TD*%
D27*
%TO.C,C2*%
X85100010Y46950000D03*
X85100010Y48500000D03*
%TD*%
D35*
%TO.C,C67*%
X40325010Y53525000D03*
X41875010Y53525000D03*
%TD*%
D27*
%TO.C,C80*%
X48350010Y8750000D03*
X48350010Y10300000D03*
%TD*%
D31*
%TO.C,Q19*%
X80850010Y48785000D03*
X82750010Y48785000D03*
X81800010Y46765000D03*
%TD*%
D30*
%TO.C,R73*%
X81100010Y45425000D03*
X81100010Y43775000D03*
%TD*%
D49*
%TO.C,U10*%
X43250010Y51775000D03*
X43250010Y51275000D03*
X43250010Y50775000D03*
X43250010Y50275000D03*
X43250010Y49775000D03*
X38850010Y49775000D03*
X38850010Y50275000D03*
X38850010Y50775000D03*
X38850010Y51275000D03*
X38850010Y51775000D03*
%TD*%
D24*
%TO.C,C1*%
X86600010Y48550000D03*
X86600010Y47000000D03*
%TD*%
D22*
%TO.C,R53*%
X66100010Y13700000D03*
X66100010Y15350000D03*
%TD*%
D31*
%TO.C,Q8*%
X1300010Y16015000D03*
X-599990Y16015000D03*
X350010Y18035000D03*
%TD*%
D44*
%TO.C,Q20*%
X76330010Y18325000D03*
X76330010Y20225000D03*
X78350010Y19275000D03*
%TD*%
D27*
%TO.C,C26*%
X83100010Y21250000D03*
X83100010Y22800000D03*
%TD*%
D24*
%TO.C,C75*%
X58375010Y6825000D03*
X58375010Y5275000D03*
%TD*%
D22*
%TO.C,R1*%
X30350010Y52200000D03*
X30350010Y53850000D03*
%TD*%
M02*
