%TF.GenerationSoftware,KiCad,Pcbnew,8.0.8*%
%TF.CreationDate,2025-02-06T17:20:13+00:00*%
%TF.ProjectId,mallow_adapt_v1.3,6d616c6c-6f77-45f6-9164-6170745f7631,rev?*%
%TF.SameCoordinates,Original*%
%TF.FileFunction,Copper,L3,Inr*%
%TF.FilePolarity,Positive*%
%FSLAX46Y46*%
G04 Gerber Fmt 4.6, Leading zero omitted, Abs format (unit mm)*
G04 Created by KiCad (PCBNEW 8.0.8) date 2025-02-06 17:20:13*
%MOMM*%
%LPD*%
G01*
G04 APERTURE LIST*
G04 Aperture macros list*
%AMRoundRect*
0 Rectangle with rounded corners*
0 $1 Rounding radius*
0 $2 $3 $4 $5 $6 $7 $8 $9 X,Y pos of 4 corners*
0 Add a 4 corners polygon primitive as box body*
4,1,4,$2,$3,$4,$5,$6,$7,$8,$9,$2,$3,0*
0 Add four circle primitives for the rounded corners*
1,1,$1+$1,$2,$3*
1,1,$1+$1,$4,$5*
1,1,$1+$1,$6,$7*
1,1,$1+$1,$8,$9*
0 Add four rect primitives between the rounded corners*
20,1,$1+$1,$2,$3,$4,$5,0*
20,1,$1+$1,$4,$5,$6,$7,0*
20,1,$1+$1,$6,$7,$8,$9,0*
20,1,$1+$1,$8,$9,$2,$3,0*%
G04 Aperture macros list end*
%TA.AperFunction,ComponentPad*%
%ADD10R,1.700000X1.700000*%
%TD*%
%TA.AperFunction,ComponentPad*%
%ADD11O,1.700000X1.700000*%
%TD*%
%TA.AperFunction,ComponentPad*%
%ADD12C,3.600000*%
%TD*%
%TA.AperFunction,ComponentPad*%
%ADD13C,2.909999*%
%TD*%
%TA.AperFunction,ComponentPad*%
%ADD14C,1.520000*%
%TD*%
%TA.AperFunction,ComponentPad*%
%ADD15C,1.875000*%
%TD*%
%TA.AperFunction,ComponentPad*%
%ADD16R,1.875000X1.875000*%
%TD*%
%TA.AperFunction,ComponentPad*%
%ADD17C,1.800000*%
%TD*%
%TA.AperFunction,ComponentPad*%
%ADD18C,1.500000*%
%TD*%
%TA.AperFunction,ComponentPad*%
%ADD19R,1.500000X1.500000*%
%TD*%
%TA.AperFunction,ComponentPad*%
%ADD20C,1.900000*%
%TD*%
%TA.AperFunction,ComponentPad*%
%ADD21R,1.900000X1.900000*%
%TD*%
%TA.AperFunction,ComponentPad*%
%ADD22C,2.100000*%
%TD*%
%TA.AperFunction,ComponentPad*%
%ADD23C,1.700000*%
%TD*%
%TA.AperFunction,ComponentPad*%
%ADD24RoundRect,0.250000X-0.600000X-0.600000X0.600000X-0.600000X0.600000X0.600000X-0.600000X0.600000X0*%
%TD*%
%TA.AperFunction,ComponentPad*%
%ADD25RoundRect,0.200000X-0.450000X0.200000X-0.450000X-0.200000X0.450000X-0.200000X0.450000X0.200000X0*%
%TD*%
%TA.AperFunction,ComponentPad*%
%ADD26O,1.300000X0.800000*%
%TD*%
%TA.AperFunction,ViaPad*%
%ADD27C,0.600000*%
%TD*%
%TA.AperFunction,ViaPad*%
%ADD28C,0.700000*%
%TD*%
%TA.AperFunction,ViaPad*%
%ADD29C,0.800000*%
%TD*%
%TA.AperFunction,Conductor*%
%ADD30C,0.250000*%
%TD*%
%TA.AperFunction,Conductor*%
%ADD31C,2.000000*%
%TD*%
%TA.AperFunction,Conductor*%
%ADD32C,1.000000*%
%TD*%
%TA.AperFunction,Conductor*%
%ADD33C,1.500000*%
%TD*%
%TA.AperFunction,Conductor*%
%ADD34C,0.750000*%
%TD*%
%TA.AperFunction,Conductor*%
%ADD35C,0.500000*%
%TD*%
%TA.AperFunction,Conductor*%
%ADD36C,0.300000*%
%TD*%
%TA.AperFunction,Conductor*%
%ADD37C,0.400000*%
%TD*%
G04 APERTURE END LIST*
D10*
%TO.N,Net-(JP3-Pin_1)*%
%TO.C,JP3*%
X45850010Y1525000D03*
D11*
%TO.N,/Rs485/RS485_A_K*%
X48390010Y1525000D03*
%TD*%
D12*
%TO.N,GND_CHASSIS*%
%TO.C,H1*%
X93000000Y58000000D03*
%TD*%
%TO.N,GND_CHASSIS*%
%TO.C,H4*%
X93000000Y-8000000D03*
%TD*%
%TO.N,GND_CHASSIS*%
%TO.C,H3*%
X-999990Y-8000000D03*
%TD*%
%TO.N,GND_CHASSIS*%
%TO.C,H2*%
X-999990Y58000000D03*
%TD*%
D13*
%TO.N,GND_CHASSIS*%
%TO.C,J5*%
X59000008Y-3974999D03*
X48700014Y-3974999D03*
D14*
%TO.N,GND*%
X56850010Y-2475000D03*
X53850011Y-2475000D03*
X50850012Y-2475000D03*
%TO.N,RS232_RX*%
X56850010Y-5474999D03*
%TO.N,RS232_TX*%
X53850011Y-5474999D03*
%TO.N,Net-(J5-Pin_1)*%
X50850012Y-5474999D03*
%TD*%
D15*
%TO.N,/Rs485/RS485_B_2*%
%TO.C,J4*%
X79850010Y-4975000D03*
%TO.N,/Rs485/RS485_A_2*%
X77350010Y-4975000D03*
%TO.N,/Rs485/RS485_B_1*%
X74850010Y-4975000D03*
D16*
%TO.N,/Rs485/RS485_A_1*%
X72350010Y-4975000D03*
%TD*%
D17*
%TO.N,ALARM*%
%TO.C,J3*%
X87350010Y-4975000D03*
%TO.N,GND*%
X84850010Y-4975000D03*
%TD*%
D10*
%TO.N,unconnected-(X19-Pin_1-Pad1)*%
%TO.C,X19*%
X58520009Y58499972D03*
D11*
%TO.N,unconnected-(X19-Pin_2-Pad2)*%
X58520009Y55959972D03*
%TO.N,unconnected-(X19-Pin_3-Pad3)*%
X61060009Y58499972D03*
%TO.N,unconnected-(X19-Pin_4-Pad4)*%
X61060009Y55959972D03*
%TO.N,GND*%
X63600009Y58499972D03*
%TO.N,unconnected-(X19-Pin_6-Pad6)*%
X63600009Y55959972D03*
%TO.N,unconnected-(X19-Pin_7-Pad7)*%
X66140009Y58499972D03*
%TO.N,unconnected-(X19-Pin_8-Pad8)*%
X66140009Y55959972D03*
%TO.N,unconnected-(X19-Pin_9-Pad9)*%
X68680009Y58499972D03*
%TO.N,GND*%
X68680009Y55959972D03*
%TO.N,unconnected-(X19-Pin_11-Pad11)*%
X71220009Y58499972D03*
%TO.N,unconnected-(X19-Pin_12-Pad12)*%
X71220009Y55959972D03*
%TO.N,unconnected-(X19-Pin_13-Pad13)*%
X73760009Y58499972D03*
%TO.N,unconnected-(X19-Pin_14-Pad14)*%
X73760009Y55959972D03*
%TO.N,unconnected-(X19-Pin_15-Pad15)*%
X76300009Y58499972D03*
%TO.N,GND*%
X76300009Y55959972D03*
%TO.N,UART_1_RX*%
X78840009Y58499972D03*
%TO.N,UART_1_TX*%
X78840009Y55959972D03*
%TO.N,/Connectors/UART_1_RTS*%
X81380009Y58499972D03*
%TO.N,/Connectors/UART_1_CTS*%
X81380009Y55959972D03*
%TO.N,UART_2_RX*%
X83920009Y58499972D03*
%TO.N,UART_2_TX*%
X83920009Y55959972D03*
%TO.N,UART_2_RTS*%
X86460009Y58499972D03*
%TO.N,UART_2_CTS*%
X86460009Y55959972D03*
%TD*%
D15*
%TO.N,GND*%
%TO.C,J8*%
X85850010Y15025000D03*
%TO.N,unconnected-(J8-Pin_2-Pad2)*%
X85850010Y17525000D03*
%TO.N,Net-(J8-Pin_1)*%
X85850010Y20025000D03*
%TD*%
D18*
%TO.N,GND*%
%TO.C,J9*%
X30350010Y4645000D03*
X27810010Y3375000D03*
%TO.N,/Rs485/RXD-*%
X30350010Y2105000D03*
%TO.N,/Rs485/RXD+*%
X27810010Y835000D03*
%TO.N,/Rs485/T{slash}R-*%
X30350010Y-435000D03*
%TO.N,/Rs485/RXD+*%
X27810010Y-1705000D03*
%TO.N,Net-(C60-Pad1)*%
X30350010Y-2975000D03*
D19*
X27810010Y-4245000D03*
%TD*%
D20*
%TO.N,Net-(IC2-SENSEN)*%
%TO.C,J1*%
X23300010Y42925000D03*
X23300010Y47125000D03*
%TO.N,GND*%
X17800010Y42925000D03*
D21*
X17800010Y47125000D03*
%TD*%
D22*
%TO.N,GND_CHASSIS*%
%TO.C,J6*%
X45269988Y-3514999D03*
X33430012Y-3514999D03*
D23*
%TO.N,/Connectors/BOOT{slash}*%
X43100010Y-5725000D03*
%TO.N,/Connectors/PROG{slash}*%
X40600010Y-5725000D03*
%TO.N,UART_2_RX_PROG*%
X38100010Y-5725000D03*
%TO.N,UART_2_TX_PROG*%
X35600010Y-5725000D03*
%TO.N,MOV_SENS*%
X43100010Y-3225000D03*
%TO.N,/Connectors/ADC1*%
X40600010Y-3225000D03*
%TO.N,GND*%
X38100010Y-3225000D03*
D24*
%TO.N,Net-(J6-Pin_1)*%
X35600010Y-3225000D03*
%TD*%
D10*
%TO.N,+5V*%
%TO.C,X10*%
X25500010Y58500000D03*
D11*
%TO.N,/Connectors/+3.3V*%
X25500010Y55960000D03*
%TO.N,Net-(X10-Pin_3)*%
X28040010Y58500000D03*
%TO.N,GND*%
X28040010Y55960000D03*
%TO.N,/Connectors/ADC1*%
X30580010Y58500000D03*
%TO.N,/Connectors/ADC2*%
X30580010Y55960000D03*
%TO.N,/Connectors/ADC3*%
X33120010Y58500000D03*
%TO.N,/Connectors/ADC4*%
X33120010Y55960000D03*
%TO.N,GND*%
X35660010Y58500000D03*
%TO.N,/Connectors/i2C_1_SDA*%
X35660010Y55960000D03*
%TO.N,/Connectors/i2C_1_SCL*%
X38200010Y58500000D03*
%TO.N,unconnected-(X10-Pin_12-Pad12)*%
X38200010Y55960000D03*
%TO.N,unconnected-(X10-Pin_13-Pad13)*%
X40740010Y58500000D03*
%TO.N,unconnected-(X10-Pin_14-Pad14)*%
X40740010Y55960000D03*
%TO.N,unconnected-(X10-Pin_15-Pad15)*%
X43280010Y58500000D03*
%TO.N,unconnected-(X10-Pin_16-Pad16)*%
X43280010Y55960000D03*
%TO.N,unconnected-(X10-Pin_17-Pad17)*%
X45820010Y58500000D03*
%TO.N,/Connectors/PWM1*%
X45820010Y55960000D03*
%TO.N,/Connectors/PWM2*%
X48360010Y58500000D03*
%TO.N,GND*%
X48360010Y55960000D03*
%TO.N,/Connectors/PROG{slash}*%
X50900010Y58500000D03*
%TO.N,Kerong*%
X50900010Y55960000D03*
%TO.N,/Connectors/DC{slash}DC_EN*%
X53440010Y58500000D03*
%TO.N,Net-(X10-Pin_24)*%
X53440010Y55960000D03*
%TD*%
D20*
%TO.N,+24V*%
%TO.C,J10*%
X23362511Y16400000D03*
X23362511Y20600000D03*
%TO.N,Net-(IC1-OUT_1)*%
X23362511Y24800000D03*
X23362511Y29000000D03*
%TO.N,GND*%
X17862511Y16400000D03*
X17862511Y20600000D03*
X17862511Y24800000D03*
D21*
%TO.N,/Connectors/PRT_PWR*%
X17862511Y29000000D03*
%TD*%
D15*
%TO.N,/Connectors/FB*%
%TO.C,J2*%
X67190010Y-6155000D03*
%TO.N,/Connectors/Led*%
X67190010Y-3655000D03*
%TO.N,/Connectors/FB*%
X64690010Y-6155000D03*
%TO.N,/Connectors/Led*%
X64690010Y-3655000D03*
%TD*%
D10*
%TO.N,+12V*%
%TO.C,X5*%
X38Y4D03*
D11*
X2540038Y4D03*
%TO.N,GND*%
X38Y2540004D03*
X2540038Y2540004D03*
%TD*%
D10*
%TO.N,GND*%
%TO.C,X16*%
X92000002Y52499976D03*
D11*
%TO.N,Net-(JP2-A)*%
X89460002Y52499976D03*
%TO.N,unconnected-(X16-Pin_3-Pad3)*%
X92000002Y49959976D03*
%TO.N,unconnected-(X16-Pin_4-Pad4)*%
X89460002Y49959976D03*
%TO.N,WAKE_PIN*%
X92000002Y47419976D03*
%TO.N,unconnected-(X16-Pin_6-Pad6)*%
X89460002Y47419976D03*
%TO.N,/Connectors/CTRL_SLEEP*%
X92000002Y44879976D03*
%TO.N,unconnected-(X16-Pin_8-Pad8)*%
X89460002Y44879976D03*
%TO.N,/Connectors/CTRL_RESET*%
X92000002Y42339976D03*
%TO.N,unconnected-(X16-Pin_10-Pad10)*%
X89460002Y42339976D03*
%TO.N,unconnected-(X16-Pin_11-Pad11)*%
X92000002Y39799976D03*
%TO.N,GND*%
X89460002Y39799976D03*
%TO.N,/Connectors/SCANNER_EN*%
X92000002Y37259976D03*
%TO.N,/Connectors/PRT_CTRL*%
X89460002Y37259976D03*
%TO.N,/Connectors/SENS_EN*%
X92000002Y34719976D03*
%TO.N,/Connectors/BOOT{slash}*%
X89460002Y34719976D03*
%TO.N,unconnected-(X16-Pin_17-Pad17)*%
X92000002Y32179976D03*
%TO.N,unconnected-(X16-Pin_18-Pad18)*%
X89460002Y32179976D03*
%TO.N,unconnected-(X16-Pin_19-Pad19)*%
X92000002Y29639976D03*
%TO.N,unconnected-(X16-Pin_20-Pad20)*%
X89460002Y29639976D03*
%TO.N,unconnected-(X16-Pin_21-Pad21)*%
X92000002Y27099976D03*
%TO.N,unconnected-(X16-Pin_22-Pad22)*%
X89460002Y27099976D03*
%TO.N,unconnected-(X16-Pin_23-Pad23)*%
X92000002Y24559976D03*
%TO.N,unconnected-(X16-Pin_24-Pad24)*%
X89460002Y24559976D03*
%TD*%
D23*
%TO.N,Net-(J7-Pin_6)*%
%TO.C,J7*%
X84600010Y4275000D03*
%TO.N,GND*%
X84600010Y6775000D03*
%TO.N,Net-(J7-Pin_4)*%
X84600010Y9275000D03*
%TO.N,/Connectors/BAT1_in*%
X87100010Y4275000D03*
%TO.N,GND*%
X87100010Y6775000D03*
%TO.N,/Connectors/BAT2_in*%
X87100010Y9275000D03*
%TD*%
D25*
%TO.N,GND*%
%TO.C,J11*%
X69400010Y26400000D03*
D26*
%TO.N,TOUCH_INT*%
X69400010Y25150000D03*
%TD*%
D10*
%TO.N,/Rs485/T{slash}R-*%
%TO.C,JP1*%
X35100010Y4500000D03*
D11*
%TO.N,/Rs485/RXD-*%
X35100010Y7040000D03*
%TD*%
D27*
%TO.N,+1V8*%
X78550010Y50350000D03*
%TO.N,TOUCH_INT*%
X78225010Y47850000D03*
X76916952Y51208058D03*
%TO.N,+1V8*%
X72550010Y50350000D03*
D28*
%TO.N,+12V*%
X5387506Y4275000D03*
X5387506Y275000D03*
X5387506Y-3725000D03*
X13337506Y-3725000D03*
X13337506Y275000D03*
X13337506Y4275000D03*
D27*
%TO.N,GND*%
X59600010Y51275000D03*
X56600010Y51025000D03*
X56100010Y46025000D03*
X49850010Y38775000D03*
X49850010Y41775000D03*
X49850010Y44775000D03*
X49850010Y47775000D03*
X46350010Y44775000D03*
X46350010Y47775000D03*
X71350010Y-925000D03*
X87350010Y775000D03*
X84350010Y775000D03*
X81850010Y22775000D03*
X69350010Y10775000D03*
X70850010Y19275000D03*
X70850010Y24275000D03*
X67350010Y19275000D03*
X63850010Y19275000D03*
X63850010Y24275000D03*
X-149990Y21275000D03*
X-149990Y13275000D03*
X2850010Y13275000D03*
X5850010Y13275000D03*
X8850010Y9275000D03*
X5850010Y9275000D03*
X2850010Y9275000D03*
X-149990Y9275000D03*
X25073975Y-5791814D03*
X39600010Y2275000D03*
X76100010Y40025000D03*
X67850010Y46075000D03*
X58176512Y40393705D03*
X41250010Y50275000D03*
X30600010Y10275000D03*
X26100010Y13525000D03*
X78600010Y-725000D03*
X81779305Y50989992D03*
X90694964Y30888058D03*
X82850010Y31275000D03*
X49600010Y8275000D03*
X74441602Y11151110D03*
X61768594Y40445974D03*
X34100010Y-1725000D03*
X67947241Y41088303D03*
X38350010Y48025000D03*
X56850010Y18275000D03*
X39350010Y42525000D03*
X85600010Y25775000D03*
X84350010Y22775000D03*
X89100010Y12525000D03*
X58100010Y42775000D03*
X70850010Y26275000D03*
X91350010Y-3475000D03*
X84600010Y16275000D03*
X90650699Y46172688D03*
X90710790Y25649737D03*
X30600010Y22525000D03*
X49600010Y10275000D03*
X49600010Y26025000D03*
X78270178Y11132791D03*
X73850010Y37275000D03*
X86350010Y35525000D03*
X84850010Y53275000D03*
X72050010Y44625000D03*
X58322037Y12643333D03*
X57100010Y57275000D03*
X92980275Y13854027D03*
X90701388Y35997476D03*
X74850010Y38775000D03*
X48688281Y5248345D03*
X36192652Y38275000D03*
X38600010Y37775000D03*
X63350010Y47525000D03*
X81681102Y47955329D03*
X43831946Y20445267D03*
X59850010Y22275000D03*
X52100010Y11275000D03*
X36850010Y-725000D03*
X49100010Y33525000D03*
X17610865Y-5947211D03*
X46850010Y23025000D03*
X76108513Y-2024955D03*
X56600010Y28275000D03*
X33350010Y21275000D03*
X60350010Y38525000D03*
X74007413Y15926977D03*
X53850010Y15275000D03*
X72014642Y6149745D03*
X87600010Y23775000D03*
X70100010Y39275000D03*
X42850010Y11025000D03*
X92980275Y18144637D03*
X77707615Y42692459D03*
X90710790Y22642846D03*
X32450010Y35805220D03*
X90850010Y7025000D03*
X40355762Y25551814D03*
X34350010Y47775000D03*
X72600010Y41275000D03*
X57435796Y13561226D03*
X68960089Y39959400D03*
X90679138Y28292636D03*
X36550010Y35732799D03*
X19150979Y-4432708D03*
X40350010Y40775000D03*
X42445588Y17236243D03*
X68100010Y25525000D03*
X46850010Y28275000D03*
X39103327Y9246139D03*
X62600010Y29275000D03*
X73547046Y-725000D03*
X41850010Y54775000D03*
X62350010Y54525000D03*
X59813372Y40439867D03*
X79579387Y34028803D03*
X77850010Y15775000D03*
X38473404Y46208486D03*
X30600010Y11775000D03*
X60350010Y46025000D03*
X54105051Y12717511D03*
X44450010Y42075000D03*
X91350010Y-1225000D03*
X32350010Y41525000D03*
X26100010Y22775000D03*
X53100010Y30025000D03*
X64850010Y54525000D03*
X29850010Y42775000D03*
X84600010Y13775000D03*
X29850010Y46525000D03*
X75100010Y22525000D03*
X53850010Y21025000D03*
X26100010Y12025000D03*
X58398859Y3958186D03*
X35867706Y46084819D03*
X25850010Y31025000D03*
X54290005Y3943137D03*
X45850010Y7775000D03*
X56600010Y24275000D03*
X90650699Y43561440D03*
X58642242Y26159690D03*
X45850010Y13025000D03*
X67850010Y47525000D03*
X64850010Y31475000D03*
X26100010Y24775000D03*
X39453431Y54809864D03*
X87350010Y12525000D03*
X53051160Y32389308D03*
X72350010Y54525000D03*
X77200010Y47575000D03*
X30600010Y13275000D03*
X91350010Y20025000D03*
X77100010Y22525000D03*
X44600010Y54775000D03*
%TO.N,GND_CHASSIS*%
X73050010Y-9325000D03*
X69050010Y-9325000D03*
X-2849990Y-2225000D03*
X2600010Y24775000D03*
X7001363Y60116993D03*
X63050010Y-9325000D03*
X94550010Y23775000D03*
X12450010Y39775000D03*
X94550010Y21775000D03*
X13001363Y60116993D03*
X8600010Y24775000D03*
X11850010Y26025000D03*
X65001363Y60116993D03*
X-2849990Y5775000D03*
X31001363Y60116993D03*
X57050010Y-9325000D03*
X25001363Y60116993D03*
X4600010Y24775000D03*
X-2399990Y52275000D03*
X61050010Y-9325000D03*
X23050010Y-9325000D03*
X5650010Y52275000D03*
X63001363Y60116993D03*
X87050010Y-9325000D03*
X94550010Y15775000D03*
X-2849990Y11775000D03*
X59050010Y-9325000D03*
X94550010Y39775000D03*
X27050010Y-9325000D03*
X87001363Y60116993D03*
X69001363Y60116993D03*
X-2849990Y-225000D03*
X94550010Y7775000D03*
X7050010Y-9325000D03*
X12450010Y43775000D03*
X12452252Y27764776D03*
X59001363Y60116993D03*
X7650010Y52275000D03*
X43001363Y60116993D03*
X29050010Y-9325000D03*
X3650010Y52275000D03*
X-2849990Y1775000D03*
X11050010Y-9325000D03*
X77001363Y60116993D03*
X94550010Y31775000D03*
X51001363Y60116993D03*
X77050010Y-9325000D03*
X11001363Y60116993D03*
X94550010Y51775000D03*
X94550010Y11775000D03*
X39001363Y60116993D03*
X94550010Y5775000D03*
X-2399990Y54275000D03*
X-2849990Y7775000D03*
X11600010Y51525000D03*
X-2849990Y13775000D03*
X57001363Y60116993D03*
X94550010Y43775000D03*
X19050010Y-9325000D03*
X37050010Y-9325000D03*
X12450010Y47775000D03*
X12450010Y33775000D03*
X23001363Y60116993D03*
X83001363Y60116993D03*
X5001363Y60116993D03*
X47050010Y-9325000D03*
X94550010Y3775000D03*
X15050010Y-9325000D03*
X-2849990Y-4225000D03*
X94548774Y-224999D03*
X49050010Y-9325000D03*
X71050010Y-9325000D03*
X81001363Y60116993D03*
X89001363Y60116993D03*
X19001363Y60116993D03*
X41001363Y60116993D03*
X21050010Y-9325000D03*
X43050010Y-9325000D03*
X12450010Y49775000D03*
X6600010Y24775000D03*
X94550010Y27775000D03*
X12450010Y41775000D03*
X-2849990Y15775000D03*
X41050010Y-9325000D03*
X3001363Y60116993D03*
X17001363Y60116993D03*
X94550010Y49775000D03*
X94550010Y41775000D03*
X-2849990Y9775000D03*
X37001363Y60116993D03*
X61001363Y60116993D03*
X53050010Y-9325000D03*
X94550010Y45775000D03*
X35050010Y-9325000D03*
X-2849990Y23775000D03*
X94550010Y53775000D03*
X94550010Y17775000D03*
X75001363Y60116993D03*
X45001363Y60116993D03*
X94550010Y1775000D03*
X-1399990Y24775000D03*
X65050010Y-9325000D03*
X94550010Y19775000D03*
X12452252Y29764776D03*
X-2849990Y21775000D03*
X21001363Y60116993D03*
X79001363Y60116993D03*
X1650010Y52275000D03*
X71001363Y60116993D03*
X73001363Y60116993D03*
X29001363Y60116993D03*
X33001363Y60116993D03*
X94550010Y35775000D03*
X94550010Y33775000D03*
X12450010Y37775000D03*
X89050010Y-9325000D03*
X13050010Y-9325000D03*
X9050010Y-9325000D03*
X27001363Y60116993D03*
X-2849990Y17775000D03*
X94550010Y25775000D03*
X12450010Y45775000D03*
X94548774Y-4224999D03*
X15001363Y60116993D03*
X94550010Y37775000D03*
X85050010Y-9325000D03*
X12450010Y35775000D03*
X5050010Y-9325000D03*
X9001363Y60116993D03*
X81050010Y-9325000D03*
X35001363Y60116993D03*
X51050010Y-9325000D03*
X94548774Y-2224999D03*
X94550010Y13775000D03*
X-2849990Y3775000D03*
X67001363Y60116993D03*
X9650010Y52275000D03*
X-2849990Y19775000D03*
X600010Y24775000D03*
X75050010Y-9325000D03*
X94550010Y9775000D03*
X33050010Y-9325000D03*
X85001363Y60116993D03*
X94550010Y29775000D03*
X-349990Y52275000D03*
X79050010Y-9325000D03*
X45050010Y-9325000D03*
X55001363Y60116993D03*
X49001363Y60116993D03*
X31050010Y-9325000D03*
X39050010Y-9325000D03*
X67050010Y-9325000D03*
X53001363Y60116993D03*
X17050010Y-9325000D03*
X10600010Y24775000D03*
X47001363Y60116993D03*
X83050010Y-9325000D03*
X94550010Y47775000D03*
X55050010Y-9325000D03*
X12450010Y31775000D03*
X25050010Y-9325000D03*
%TO.N,WAKE_PIN*%
X79600010Y44455751D03*
D28*
%TO.N,+5V*%
X80925010Y21025000D03*
D29*
X22100010Y56275000D03*
X60350010Y7525000D03*
D27*
%TO.N,/Connectors/ADC1*%
X39783068Y13341942D03*
X25100010Y50775000D03*
D29*
%TO.N,/Connectors/+3.3V*%
X27892510Y53567500D03*
D27*
X92050010Y15275000D03*
%TO.N,/Connectors/ADC4*%
X91925839Y5250000D03*
X89975010Y15400000D03*
X51208068Y51233058D03*
%TO.N,/Connectors/ADC3*%
X32475010Y54525000D03*
X90100010Y8275000D03*
X52200010Y51125000D03*
%TO.N,UART_2_RX*%
X83875010Y37175000D03*
%TO.N,UART_2_TX*%
X82550010Y37175000D03*
%TO.N,Net-(JP2-A)*%
X68100010Y52275000D03*
%TO.N,+3.3VP*%
X44325010Y39500000D03*
X38350010Y44775000D03*
X42100010Y27275000D03*
X38350010Y44150000D03*
X57100010Y8750000D03*
X65050010Y36400000D03*
X48350010Y7525000D03*
X45100010Y22349549D03*
D29*
X55250010Y19775000D03*
D27*
X76250010Y29875000D03*
X55268510Y35956500D03*
D29*
X47100010Y36525000D03*
D27*
X38350010Y43525000D03*
D29*
X55450010Y13475000D03*
D28*
%TO.N,/Connectors/PRT_PWR*%
X11352510Y19740483D03*
X11350010Y20775000D03*
X11350010Y18775000D03*
D29*
%TO.N,/Rs485/RS485_V+*%
X49600010Y12775000D03*
D27*
X76100010Y4025000D03*
D28*
X44075010Y3275000D03*
D27*
X72000010Y9875000D03*
X80100010Y9875000D03*
D28*
%TO.N,Net-(C60-Pad1)*%
X37600010Y17900000D03*
X37600010Y17025000D03*
X37600010Y18775000D03*
%TO.N,+1V8*%
X67100010Y42175000D03*
D27*
X77087510Y41487500D03*
X78350010Y36775000D03*
X40968782Y52479944D03*
X72815390Y45240380D03*
D28*
X30350010Y51275000D03*
D27*
X84350010Y41525000D03*
D29*
%TO.N,+BATT+*%
X32016676Y34215000D03*
D28*
X32350010Y24525000D03*
D27*
X27600010Y41525000D03*
D29*
X31100010Y34215000D03*
X33850010Y34215000D03*
X32933342Y34215000D03*
D27*
%TO.N,+1V8_SB*%
X35350010Y49025000D03*
X38600010Y21275000D03*
X37475010Y33214998D03*
%TO.N,Net-(D8-K)*%
X33385706Y49935760D03*
%TO.N,+24V*%
X33100010Y16525000D03*
D28*
X7100010Y18525000D03*
X7929010Y18525000D03*
D27*
X33100010Y17775000D03*
D28*
X7100010Y19775000D03*
X7929010Y19775000D03*
D29*
%TO.N,+12V*%
X32100010Y31675000D03*
X28350010Y11025000D03*
X33100010Y31675000D03*
X28350010Y8025000D03*
X28350010Y10025000D03*
X28350010Y7025000D03*
X31100010Y31675000D03*
D28*
X62600010Y11025000D03*
X62604058Y10275000D03*
D29*
X34100010Y31675000D03*
D28*
X62600010Y11775000D03*
%TO.N,Net-(IC1-OUT_1)*%
X32000010Y27535000D03*
X32000010Y28785000D03*
X32000010Y26235000D03*
X32000010Y30085000D03*
D27*
%TO.N,/Rs485/RS485_A_K*%
X46675010Y4275000D03*
%TO.N,/Rs485/RS485_A_1*%
X76350010Y5875000D03*
%TO.N,/Rs485/RS485_B_1*%
X75250010Y2600000D03*
%TO.N,Net-(D7-A)*%
X35600010Y25025000D03*
%TO.N,i2C_1_SCL_H*%
X36350010Y51275000D03*
X49411535Y51213475D03*
%TO.N,RS232_RX*%
X54600010Y8775000D03*
%TO.N,RS232_TX*%
X53600010Y8525000D03*
%TO.N,/UARTs/UART_2_TX_H*%
X66100010Y34275000D03*
X59500011Y33255762D03*
%TO.N,UART_2_TX_PROG*%
X60693632Y30931378D03*
X70850010Y6150000D03*
X61791952Y-3916942D03*
X59100010Y32525000D03*
%TO.N,RS232_EN*%
X54250010Y51075000D03*
X52050010Y15450000D03*
X53797400Y28077610D03*
X49950008Y4675000D03*
%TO.N,/Rs485/UART_1_TX_H*%
X48350010Y19025000D03*
%TO.N,/Connectors/SCANNER_EN*%
X60650010Y9275000D03*
%TO.N,Kerong*%
X32850010Y14275000D03*
X46350010Y14275000D03*
X52850010Y37275000D03*
%TO.N,/Connectors/SENS_EN*%
X67975010Y27275000D03*
%TO.N,/Watchdog/WD{slash}INT*%
X44350010Y45275000D03*
%TO.N,WD_OUT*%
X41550010Y39975000D03*
X39479452Y23279442D03*
%TO.N,A_MUX_OUT*%
X63600010Y40025000D03*
X77100010Y46025000D03*
%TO.N,B_MUX_OUT*%
X78100010Y45275000D03*
D29*
X56600010Y40025000D03*
D27*
%TO.N,/Rs485/UART_1_RX_H*%
X46975010Y20900000D03*
%TO.N,/Rs485/RS485_B_K*%
X45850010Y6025000D03*
%TO.N,UART_2_RX_PROG*%
X70850010Y7275000D03*
X38350010Y-649999D03*
%TO.N,/Connectors/PWM2*%
X64100010Y28025000D03*
X55304037Y51070974D03*
X55100010Y42275000D03*
X74100010Y21025000D03*
%TO.N,/Connectors/PWM1*%
X47965390Y50625000D03*
X59850010Y23675000D03*
X51197627Y34706501D03*
%TO.N,MOV_SENS*%
X74800010Y47825000D03*
X49283068Y18841942D03*
%TO.N,ALARM*%
X73300010Y47775000D03*
%TO.N,TOUCH_INT*%
X80225010Y45550000D03*
X77350010Y26025000D03*
%TO.N,i2C_1_SDA_H*%
X35600010Y50925000D03*
X50337271Y51219971D03*
X37350010Y48775000D03*
%TO.N,Net-(IC2-SENSEN)*%
X27600010Y47987500D03*
%TO.N,Net-(J6-Pin_1)*%
X49908068Y17025000D03*
%TO.N,UART_2_RX_2*%
X65050010Y34275000D03*
X67650010Y30875000D03*
X65450010Y33025000D03*
%TO.N,UART_2_TX_1*%
X56500010Y33642910D03*
X66567538Y30073587D03*
%TO.N,UART_2_TX_2*%
X65100010Y28775000D03*
X59015390Y34609620D03*
%TO.N,UART_2_RTS*%
X83197789Y33260148D03*
%TO.N,UART_2_CTS*%
X84550010Y33275000D03*
%TO.N,/Connectors/Led*%
X68600010Y3775000D03*
%TO.N,Net-(IC4-DIM)*%
X60850010Y5525000D03*
%TO.N,/Connectors/PROG{slash}*%
X43100010Y15025000D03*
X42600010Y25000D03*
%TO.N,/Connectors/BOOT{slash}*%
X88865010Y16377802D03*
X82100010Y-7225000D03*
%TO.N,Net-(C12-Pad1)*%
X44088454Y16902116D03*
%TD*%
D30*
%TO.N,+1V8*%
X72550010Y50350000D02*
X78550010Y50350000D01*
X72675010Y50225000D02*
X72550010Y50350000D01*
X72675010Y45380760D02*
X72675010Y50225000D01*
X72815390Y45240380D02*
X72675010Y45380760D01*
%TO.N,/Connectors/PROG{slash}*%
X43475010Y14650000D02*
X43100010Y15025000D01*
X43475010Y10400000D02*
X43475010Y14650000D01*
X42850010Y9775000D02*
X43475010Y10400000D01*
X42600010Y25000D02*
X42850010Y275000D01*
X42850010Y275000D02*
X42850010Y9775000D01*
D31*
%TO.N,GND_CHASSIS*%
X-2399993Y56224998D02*
X-2399988Y52525003D01*
X-999990Y58000000D02*
X-999990Y57625001D01*
X-999990Y57625001D02*
X-2399993Y56224998D01*
%TO.N,+5V*%
X24325010Y58500000D02*
X25500010Y58500000D01*
X66100010Y12454087D02*
X23450010Y55104087D01*
X23450010Y55104087D02*
X22100010Y56275000D01*
D32*
X72354097Y12454087D02*
X66100010Y12454087D01*
D31*
X60350010Y7525000D02*
X64350010Y7525000D01*
X66100010Y9275000D02*
X66100010Y12454087D01*
D32*
X80925010Y21025000D02*
X72354097Y12454087D01*
D31*
X22100010Y56275000D02*
X24325010Y58500000D01*
X64350010Y7525000D02*
X66100010Y9275000D01*
D30*
%TO.N,/Connectors/ADC1*%
X20850010Y46775000D02*
X24850010Y50775000D01*
X24850010Y50775000D02*
X25100010Y50775000D01*
X39783068Y13341942D02*
X39783068Y20975826D01*
X39783068Y20975826D02*
X37483894Y23275000D01*
X20850010Y25017189D02*
X20850010Y46775000D01*
X25716126Y23275000D02*
X22592199Y23275000D01*
X26358894Y23400000D02*
X25841126Y23400000D01*
X37483894Y23275000D02*
X26483894Y23275000D01*
X26483894Y23275000D02*
X26358894Y23400000D01*
X25841126Y23400000D02*
X25716126Y23275000D01*
X22592199Y23275000D02*
X20850010Y25017189D01*
D32*
%TO.N,/Connectors/+3.3V*%
X71600010Y38110786D02*
X92050010Y17660786D01*
X71600010Y40775000D02*
X71600010Y38110786D01*
X27935010Y53525000D02*
X58850010Y53525000D01*
X58850010Y53525000D02*
X71600010Y40775000D01*
X92050010Y17660786D02*
X92050010Y15275000D01*
X25500010Y55960000D02*
X27892510Y53567500D01*
X27892510Y53567500D02*
X27935010Y53525000D01*
D30*
%TO.N,/Connectors/ADC4*%
X53041126Y49400000D02*
X57888614Y49400000D01*
X89975010Y17900000D02*
X89975010Y15400000D01*
X69882674Y38025000D02*
X70100010Y37807664D01*
X70100010Y37807664D02*
X70100010Y37775000D01*
X70100010Y37775000D02*
X89975010Y17900000D01*
X51208068Y51233058D02*
X53041126Y49400000D01*
X57888614Y49400000D02*
X69263614Y38025000D01*
X69263614Y38025000D02*
X69882674Y38025000D01*
%TO.N,/Connectors/ADC3*%
X52200010Y51125000D02*
X53475010Y49850000D01*
X58258284Y49777321D02*
X69510605Y38525000D01*
X69510605Y38525000D02*
X70100010Y38525000D01*
X90600010Y8775000D02*
X90100010Y8275000D01*
X58258284Y49850000D02*
X58258284Y49777321D01*
X53475010Y49850000D02*
X58258284Y49850000D01*
X70100010Y38525000D02*
X70100010Y38444060D01*
X90600010Y17944060D02*
X90600010Y8775000D01*
X70100010Y38444060D02*
X90600010Y17944060D01*
%TO.N,Net-(JP2-A)*%
X89235026Y52275000D02*
X89460002Y52499976D01*
X68100010Y52275000D02*
X89235026Y52275000D01*
D33*
%TO.N,+3.3VP*%
X39475010Y44150000D02*
X38350010Y44150000D01*
X57100010Y11775000D02*
X55450010Y13425000D01*
X47668510Y35956500D02*
X47100010Y36525000D01*
D34*
X69725010Y36400000D02*
X76250010Y29875000D01*
D35*
X42100010Y27275000D02*
X42100010Y25349549D01*
D34*
X65050010Y36400000D02*
X69725010Y36400000D01*
D33*
X65050010Y36400000D02*
X64606510Y35956500D01*
X64606510Y35956500D02*
X47668510Y35956500D01*
X57100010Y8750000D02*
X57100010Y11775000D01*
D34*
X57100010Y8750000D02*
X55387510Y7037500D01*
D35*
X42100010Y25349549D02*
X45100010Y22349549D01*
D34*
X48837510Y7037500D02*
X48350010Y7525000D01*
D33*
X55450010Y13425000D02*
X55450010Y13475000D01*
X47100010Y36525000D02*
X39475010Y44150000D01*
D34*
X55387510Y7037500D02*
X48837510Y7037500D01*
%TO.N,/Rs485/RS485_V+*%
X44075010Y7250000D02*
X44075010Y3275000D01*
X49600010Y12775000D02*
X44075010Y7250000D01*
X44075010Y3275000D02*
X44281873Y3068137D01*
D35*
X72000010Y8125000D02*
X72000010Y9875000D01*
D34*
X44281873Y3068137D02*
X65193147Y3068137D01*
D35*
X76100010Y4025000D02*
X72000010Y8125000D01*
D34*
X72000010Y9875000D02*
X80100010Y9875000D01*
X65193147Y3068137D02*
X72000010Y9875000D01*
D36*
%TO.N,+1V8*%
X72815390Y45240380D02*
X73334630Y45240380D01*
D32*
X30350010Y51275000D02*
X31350010Y52275000D01*
D35*
X78350010Y38525000D02*
X78350010Y36775000D01*
D32*
X40600010Y52275000D02*
X57000010Y52275000D01*
X31350010Y52275000D02*
X40600010Y52275000D01*
X57000010Y52275000D02*
X67100010Y42175000D01*
D37*
X84350010Y41525000D02*
X77125010Y41525000D01*
X77125010Y41525000D02*
X77087510Y41487500D01*
D35*
X77087510Y41487500D02*
X77087510Y39787500D01*
X77087510Y39787500D02*
X78350010Y38525000D01*
D36*
X73334630Y45240380D02*
X77087510Y41487500D01*
D31*
%TO.N,+12V*%
X56350010Y16775000D02*
X62604058Y10520952D01*
X56228689Y16775000D02*
X56350010Y16775000D01*
D33*
X31100010Y31675000D02*
X34100010Y31675000D01*
D31*
X55478689Y17275000D02*
X55728689Y17275000D01*
X34100010Y31675000D02*
X41450010Y31675000D01*
X55728689Y17275000D02*
X56228689Y16775000D01*
X41450010Y31303679D02*
X55478689Y17275000D01*
X41450010Y31675000D02*
X41450010Y31303679D01*
X62604058Y10520952D02*
X62604058Y10275000D01*
D30*
%TO.N,/UARTs/UART_2_TX_H*%
X59919249Y33675000D02*
X65500010Y33675000D01*
X59500011Y33255762D02*
X59919249Y33675000D01*
X65500010Y33675000D02*
X66100010Y34275000D01*
%TO.N,UART_2_TX_PROG*%
X70850010Y5141116D02*
X61791952Y-3916942D01*
X70850010Y6150000D02*
X70850010Y5141116D01*
%TO.N,UART_2_RX_PROG*%
X62925011Y-649999D02*
X38350010Y-649999D01*
X70850010Y7275000D02*
X62925011Y-649999D01*
%TO.N,/Connectors/PWM1*%
X52850010Y34275000D02*
X51629128Y34275000D01*
X51629128Y34275000D02*
X51197627Y34706501D01*
X59850010Y27275000D02*
X52850010Y34275000D01*
X59850010Y23675000D02*
X59850010Y27275000D01*
%TO.N,UART_2_TX_1*%
X66535066Y30106059D02*
X60036861Y30106059D01*
X66567538Y30073587D02*
X66535066Y30106059D01*
X60036861Y30106059D02*
X56500010Y33642910D01*
%TO.N,UART_2_TX_2*%
X64975010Y28650000D02*
X60309701Y28650000D01*
X56184630Y34609620D02*
X59015390Y34609620D01*
X65100010Y28775000D02*
X64975010Y28650000D01*
X55600010Y34025000D02*
X56184630Y34609620D01*
X60309701Y28650000D02*
X55600010Y33359691D01*
X55600010Y33359691D02*
X55600010Y34025000D01*
%TO.N,/Connectors/BOOT{slash}*%
X88865010Y16040000D02*
X82100010Y9275000D01*
X82100010Y9275000D02*
X82100010Y-7225000D01*
X88865010Y16377802D02*
X88865010Y16040000D01*
%TD*%
%TA.AperFunction,Conductor*%
%TO.N,GND_CHASSIS*%
G36*
X895516Y-8014352D02*
G01*
X896731Y-8015611D01*
X979255Y-8104249D01*
X1009516Y-8122204D01*
X1102987Y-8177665D01*
X1102993Y-8177667D01*
X1102994Y-8177668D01*
X1137642Y-8192020D01*
X1188676Y-8210024D01*
X1331092Y-8230500D01*
X1331096Y-8230500D01*
X15048634Y-8230500D01*
X15048648Y-8230500D01*
X15102688Y-8227603D01*
X15129046Y-8224769D01*
X15182458Y-8216114D01*
X15220628Y-8201877D01*
X15317258Y-8165836D01*
X15317263Y-8165833D01*
X15317267Y-8165832D01*
X15378590Y-8132347D01*
X15493772Y-8046123D01*
X15525543Y-8014351D01*
X15560190Y-8000000D01*
X91149488Y-8000000D01*
X91184136Y-8014352D01*
X91198351Y-8045338D01*
X91215113Y-8269022D01*
X91215115Y-8269034D01*
X91275145Y-8532046D01*
X91373710Y-8783184D01*
X91508600Y-9016820D01*
X91508601Y-9016821D01*
X91562294Y-9084150D01*
X91705747Y-8940696D01*
X91779588Y-9042330D01*
X91957670Y-9220412D01*
X92059300Y-9294250D01*
X91914848Y-9438703D01*
X92097479Y-9563218D01*
X92340535Y-9680268D01*
X92340548Y-9680273D01*
X92598336Y-9759789D01*
X92865111Y-9800000D01*
X92919392Y-9800000D01*
X92954040Y-9814352D01*
X92968392Y-9849000D01*
X92968385Y-9849837D01*
X92958105Y-10451337D01*
X92943163Y-10485735D01*
X92909112Y-10499500D01*
X-1076592Y-10499500D01*
X-1111240Y-10485148D01*
X-1125592Y-10450500D01*
X-1125528Y-10447990D01*
X-1094682Y-9846489D01*
X-1078574Y-9812623D01*
X-1045746Y-9800000D01*
X-865101Y-9800000D01*
X-598327Y-9759789D01*
X-340539Y-9680273D01*
X-340537Y-9680272D01*
X-97469Y-9563217D01*
X85159Y-9438702D01*
X-59292Y-9294251D01*
X42340Y-9220412D01*
X220422Y-9042330D01*
X294262Y-8940698D01*
X437714Y-9084150D01*
X437715Y-9084149D01*
X491402Y-9016829D01*
X491409Y-9016820D01*
X626299Y-8783184D01*
X724864Y-8532046D01*
X784894Y-8269034D01*
X784896Y-8269022D01*
X801659Y-8045338D01*
X818560Y-8011859D01*
X850522Y-8000000D01*
X860868Y-8000000D01*
X895516Y-8014352D01*
G37*
%TD.AperFunction*%
%TD*%
%TA.AperFunction,Conductor*%
%TO.N,GND_CHASSIS*%
G36*
X11115687Y53005315D02*
G01*
X11136329Y52988681D01*
X13313691Y50811319D01*
X13347176Y50749996D01*
X13350010Y50723638D01*
X13350010Y26572940D01*
X13330325Y26505901D01*
X13317763Y26489529D01*
X10886909Y23815589D01*
X10827248Y23779225D01*
X10795156Y23775000D01*
X-3499490Y23775000D01*
X-3499490Y24513131D01*
X-3498888Y24525336D01*
X-3485352Y24662192D01*
X-3483254Y24683404D01*
X-3479307Y24704471D01*
X-3437819Y24853345D01*
X-3430300Y24873421D01*
X-3363776Y25012916D01*
X-3352907Y25031398D01*
X-3263341Y25157341D01*
X-3249450Y25173675D01*
X-3139518Y25282297D01*
X-3123022Y25295990D01*
X-2996003Y25384052D01*
X-2977408Y25394689D01*
X-2837121Y25459538D01*
X-2816957Y25466816D01*
X-2667588Y25506521D01*
X-2646471Y25510215D01*
X-2505003Y25522497D01*
X-2487286Y25524035D01*
X-2476561Y25524500D01*
X-2408650Y25524500D01*
X-2407187Y25524599D01*
X9647393Y25540450D01*
X9663036Y25538730D01*
X9663057Y25538963D01*
X9671152Y25538238D01*
X9671154Y25538237D01*
X9671155Y25538238D01*
X9671156Y25538237D01*
X9675951Y25538437D01*
X9724478Y25540452D01*
X9729387Y25540558D01*
X9782772Y25540627D01*
X9782777Y25540629D01*
X9790830Y25541699D01*
X9790859Y25541476D01*
X9806394Y25543865D01*
X9860325Y25546135D01*
X9860327Y25546136D01*
X9860333Y25546136D01*
X10103746Y25587502D01*
X10339973Y25659325D01*
X10565217Y25760450D01*
X10775861Y25889254D01*
X10968521Y26043667D01*
X11140103Y26221209D01*
X11287849Y26419028D01*
X11409387Y26633946D01*
X11502765Y26862511D01*
X11566482Y27101052D01*
X11599515Y27345736D01*
X11599907Y27395250D01*
X11600541Y27404386D01*
X11600509Y27470648D01*
X11600512Y27471625D01*
X11600981Y27535074D01*
X11600980Y27535076D01*
X11601004Y27538236D01*
X11600473Y27546778D01*
X11590057Y49564864D01*
X11591802Y49580665D01*
X11591604Y49580682D01*
X11592329Y49588772D01*
X11591198Y49615987D01*
X11590124Y49641845D01*
X11590018Y49646856D01*
X11589994Y49699968D01*
X11589992Y49699975D01*
X11588929Y49708028D01*
X11589091Y49708050D01*
X11586650Y49723972D01*
X11584356Y49778440D01*
X11542825Y50022816D01*
X11542824Y50022820D01*
X11542822Y50022828D01*
X11470716Y50259979D01*
X11369191Y50486109D01*
X11324681Y50558900D01*
X11239876Y50697588D01*
X11084852Y50891010D01*
X10906608Y51063270D01*
X10708006Y51211600D01*
X10492244Y51333616D01*
X10492241Y51333618D01*
X10492238Y51333619D01*
X10290803Y51415914D01*
X10262765Y51427369D01*
X10023284Y51491337D01*
X9777636Y51524501D01*
X9777631Y51524502D01*
X9727629Y51524900D01*
X9718980Y51525500D01*
X9715902Y51525500D01*
X9652308Y51525500D01*
X9651393Y51525503D01*
X9584378Y51525998D01*
X9576336Y51525500D01*
X-2415172Y51525500D01*
X-2415217Y51525503D01*
X-2423456Y51525503D01*
X-2438053Y51525503D01*
X-2483941Y51525501D01*
X-2494748Y51525973D01*
X-2653946Y51539896D01*
X-2675234Y51543648D01*
X-2824365Y51583604D01*
X-2844676Y51590997D01*
X-2984593Y51656238D01*
X-3003314Y51667046D01*
X-3129774Y51755593D01*
X-3146332Y51769487D01*
X-3255501Y51878656D01*
X-3269389Y51895207D01*
X-3357946Y52021681D01*
X-3368751Y52040398D01*
X-3433990Y52180311D01*
X-3441383Y52200622D01*
X-3481340Y52349757D01*
X-3485090Y52371030D01*
X-3499020Y52530322D01*
X-3499490Y52541109D01*
X-3499487Y52601532D01*
X-3499489Y52601536D01*
X-3499488Y52611499D01*
X-3499492Y52611537D01*
X-3499492Y52901003D01*
X-3479807Y52968039D01*
X-3427003Y53013794D01*
X-3375492Y53025000D01*
X11048648Y53025000D01*
X11115687Y53005315D01*
G37*
%TD.AperFunction*%
%TD*%
%TA.AperFunction,Conductor*%
%TO.N,GND_CHASSIS*%
G36*
X93112307Y60485148D02*
G01*
X93126659Y60450500D01*
X93115922Y60419890D01*
X92593819Y59767263D01*
X92569999Y59751050D01*
X92340548Y59680274D01*
X92340535Y59680269D01*
X92097477Y59563218D01*
X92097474Y59563217D01*
X91914849Y59438706D01*
X91914848Y59438705D01*
X92059301Y59294252D01*
X91957670Y59220412D01*
X91779588Y59042330D01*
X91705747Y58940699D01*
X91562295Y59084151D01*
X91508595Y59016813D01*
X91375677Y58786591D01*
X91345924Y58763761D01*
X91308742Y58768656D01*
X91301873Y58773448D01*
X90100011Y59775000D01*
X90100010Y59775000D01*
X-132249Y59775000D01*
X-163618Y59786357D01*
X-915418Y60412857D01*
X-932848Y60446064D01*
X-921692Y60481869D01*
X-888485Y60499299D01*
X-884049Y60499500D01*
X93077659Y60499500D01*
X93112307Y60485148D01*
G37*
%TD.AperFunction*%
%TD*%
%TA.AperFunction,Conductor*%
%TO.N,GND_CHASSIS*%
G36*
X95441696Y58000007D02*
G01*
X95487875Y57947573D01*
X95499500Y57895154D01*
X95499500Y-7777929D01*
X95479815Y-7844968D01*
X95427011Y-7890723D01*
X95363162Y-7901314D01*
X94896921Y-7854690D01*
X94832172Y-7828432D01*
X94791899Y-7771337D01*
X94785606Y-7740571D01*
X94784886Y-7730972D01*
X94784886Y-7730971D01*
X94724857Y-7467966D01*
X94724851Y-7467947D01*
X94626290Y-7216818D01*
X94626291Y-7216818D01*
X94491400Y-6983182D01*
X94491393Y-6983171D01*
X94437704Y-6915849D01*
X94437703Y-6915848D01*
X94294250Y-7059300D01*
X94220412Y-6957670D01*
X94042330Y-6779588D01*
X93940697Y-6705747D01*
X94085150Y-6561295D01*
X93902524Y-6436783D01*
X93902520Y-6436781D01*
X93670208Y-6324905D01*
X93618349Y-6278082D01*
X93600010Y-6213185D01*
X93600010Y55914986D01*
X93600008Y55914992D01*
X93515536Y56137276D01*
X93510122Y56206935D01*
X93543228Y56268464D01*
X93594899Y56299816D01*
X93659459Y56319730D01*
X93659460Y56319731D01*
X93902516Y56436779D01*
X93902517Y56436780D01*
X94085150Y56561297D01*
X93940698Y56705749D01*
X94042330Y56779588D01*
X94220412Y56957670D01*
X94294251Y57059302D01*
X94437703Y56915850D01*
X94437704Y56915851D01*
X94491400Y56983182D01*
X94626290Y57216819D01*
X94724851Y57467948D01*
X94724857Y57467967D01*
X94784886Y57730972D01*
X94784886Y57730974D01*
X94797610Y57900757D01*
X94822249Y57966138D01*
X94878324Y58007819D01*
X94920258Y58015487D01*
X95374501Y58019150D01*
X95441696Y58000007D01*
G37*
%TD.AperFunction*%
%TD*%
%TA.AperFunction,Conductor*%
%TO.N,GND_CHASSIS*%
G36*
X-2149990Y6767757D02*
G01*
X-2150489Y6760784D01*
X-2155490Y6726005D01*
X-2155490Y-5724038D01*
X-2153059Y-5773531D01*
X-2152119Y-5783082D01*
X-2152116Y-5783104D01*
X-2150975Y-5788707D01*
X-2149990Y-5798481D01*
X-2149990Y-6725000D01*
X-2407673Y-6945871D01*
X-2437695Y-6915849D01*
X-2491389Y-6983180D01*
X-2526575Y-7044122D01*
X-2537121Y-7056825D01*
X-3418601Y-7812380D01*
X-3454248Y-7824032D01*
X-3487694Y-7807065D01*
X-3499490Y-7775176D01*
X-3499490Y23775000D01*
X-2149990Y23775000D01*
X-2149990Y6767757D01*
G37*
%TD.AperFunction*%
%TD*%
%TA.AperFunction,Conductor*%
%TO.N,+3.3VP*%
G36*
X38465687Y45155315D02*
G01*
X38486329Y45138681D01*
X38713691Y44911319D01*
X38747176Y44849996D01*
X38750010Y44823638D01*
X38750010Y43426362D01*
X38730325Y43359323D01*
X38713691Y43338681D01*
X38486329Y43111319D01*
X38425006Y43077834D01*
X38398648Y43075000D01*
X37652486Y43075000D01*
X37585447Y43094685D01*
X37564805Y43111319D01*
X37486329Y43189795D01*
X37452844Y43251118D01*
X37450010Y43277476D01*
X37450010Y45051000D01*
X37469695Y45118039D01*
X37522499Y45163794D01*
X37574010Y45175000D01*
X38398648Y45175000D01*
X38465687Y45155315D01*
G37*
%TD.AperFunction*%
%TD*%
%TA.AperFunction,Conductor*%
%TO.N,+24V*%
G36*
X22895591Y21510648D02*
G01*
X22909943Y21476000D01*
X22895591Y21441352D01*
X22884042Y21432786D01*
X22883544Y21432520D01*
X22883543Y21432520D01*
X23076753Y21239310D01*
X23030937Y21220332D01*
X22916287Y21143726D01*
X22818785Y21046224D01*
X22742179Y20931574D01*
X22723201Y20885758D01*
X22529991Y21078968D01*
X22529990Y21078967D01*
X22471295Y20969156D01*
X22416401Y20788195D01*
X22416401Y20788194D01*
X22397866Y20600001D01*
X22397866Y20600000D01*
X22416401Y20411807D01*
X22416401Y20411806D01*
X22471294Y20230849D01*
X22471297Y20230842D01*
X22529991Y20121035D01*
X22529991Y20121034D01*
X22723200Y20314244D01*
X22742179Y20268426D01*
X22818785Y20153776D01*
X22916287Y20056274D01*
X23030937Y19979668D01*
X23076752Y19960691D01*
X22883543Y19767482D01*
X22993352Y19708787D01*
X22993359Y19708784D01*
X23174317Y19653891D01*
X23362511Y19635355D01*
X23550704Y19653891D01*
X23550705Y19653891D01*
X23731662Y19708784D01*
X23731669Y19708787D01*
X23841476Y19767481D01*
X23841477Y19767482D01*
X23648268Y19960691D01*
X23694085Y19979668D01*
X23808735Y20056274D01*
X23906237Y20153776D01*
X23982843Y20268426D01*
X24001820Y20314243D01*
X24195029Y20121034D01*
X24195030Y20121035D01*
X24253724Y20230842D01*
X24253727Y20230849D01*
X24308620Y20411806D01*
X24308620Y20411807D01*
X24327156Y20600000D01*
X24327156Y20600001D01*
X24308620Y20788194D01*
X24308620Y20788195D01*
X24253727Y20969152D01*
X24253724Y20969159D01*
X24195029Y21078967D01*
X24195029Y21078968D01*
X24001820Y20885759D01*
X23982843Y20931574D01*
X23906237Y21046224D01*
X23808735Y21143726D01*
X23694085Y21220332D01*
X23648266Y21239311D01*
X23841477Y21432520D01*
X23840979Y21432786D01*
X23817188Y21461776D01*
X23820864Y21499099D01*
X23849854Y21522890D01*
X23864078Y21525000D01*
X30331731Y21525000D01*
X30363822Y21513030D01*
X32445640Y19708787D01*
X34083102Y18289654D01*
X34099885Y18256116D01*
X34100010Y18252625D01*
X34100010Y15324000D01*
X34085658Y15289352D01*
X34051010Y15275000D01*
X22350010Y15275000D01*
X22350010Y16400001D01*
X22397866Y16400001D01*
X22397866Y16400000D01*
X22416401Y16211807D01*
X22416401Y16211806D01*
X22471294Y16030849D01*
X22471297Y16030842D01*
X22529991Y15921035D01*
X22529991Y15921034D01*
X22723200Y16114244D01*
X22742179Y16068426D01*
X22818785Y15953776D01*
X22916287Y15856274D01*
X23030937Y15779668D01*
X23076752Y15760691D01*
X22883543Y15567482D01*
X22993352Y15508787D01*
X22993359Y15508784D01*
X23174317Y15453891D01*
X23362511Y15435355D01*
X23550704Y15453891D01*
X23550705Y15453891D01*
X23731662Y15508784D01*
X23731669Y15508787D01*
X23841476Y15567481D01*
X23841477Y15567482D01*
X23648268Y15760691D01*
X23694085Y15779668D01*
X23808735Y15856274D01*
X23906237Y15953776D01*
X23982843Y16068426D01*
X24001820Y16114243D01*
X24195029Y15921034D01*
X24195030Y15921035D01*
X24253724Y16030842D01*
X24253727Y16030849D01*
X24308620Y16211806D01*
X24308620Y16211807D01*
X24327156Y16400000D01*
X24327156Y16400001D01*
X24308620Y16588194D01*
X24308620Y16588195D01*
X24253727Y16769152D01*
X24253724Y16769159D01*
X24195029Y16878967D01*
X24195029Y16878968D01*
X24001820Y16685759D01*
X23982843Y16731574D01*
X23906237Y16846224D01*
X23808735Y16943726D01*
X23694085Y17020332D01*
X23648266Y17039311D01*
X23841477Y17232520D01*
X23731669Y17291214D01*
X23731662Y17291217D01*
X23550704Y17346110D01*
X23362511Y17364645D01*
X23174317Y17346110D01*
X23174316Y17346110D01*
X22993355Y17291216D01*
X22883544Y17232521D01*
X22883543Y17232520D01*
X23076753Y17039310D01*
X23030937Y17020332D01*
X22916287Y16943726D01*
X22818785Y16846224D01*
X22742179Y16731574D01*
X22723201Y16685758D01*
X22529991Y16878968D01*
X22529990Y16878967D01*
X22471295Y16769156D01*
X22416401Y16588195D01*
X22416401Y16588194D01*
X22397866Y16400001D01*
X22350010Y16400001D01*
X22350010Y21476000D01*
X22364362Y21510648D01*
X22399010Y21525000D01*
X22860943Y21525000D01*
X22895591Y21510648D01*
G37*
%TD.AperFunction*%
%TD*%
%TA.AperFunction,Conductor*%
%TO.N,Net-(IC1-OUT_1)*%
G36*
X32365687Y30255315D02*
G01*
X32386329Y30238681D01*
X32563691Y30061319D01*
X32597176Y29999996D01*
X32600010Y29973638D01*
X32600010Y26076362D01*
X32580325Y26009323D01*
X32563691Y25988681D01*
X32386329Y25811319D01*
X32325006Y25777834D01*
X32298648Y25775000D01*
X26100010Y25775000D01*
X25576135Y25316610D01*
X24453545Y24334345D01*
X24390131Y24305014D01*
X24320925Y24314623D01*
X24267901Y24360122D01*
X24247892Y24427066D01*
X24253231Y24463661D01*
X24298765Y24613766D01*
X24317107Y24800000D01*
X24298766Y24986231D01*
X24244442Y25165312D01*
X24187640Y25271578D01*
X24001820Y25085759D01*
X23982843Y25131574D01*
X23906237Y25246224D01*
X23808735Y25343726D01*
X23694085Y25420332D01*
X23648266Y25439311D01*
X23834088Y25625132D01*
X23727824Y25681931D01*
X23548741Y25736256D01*
X23362511Y25754597D01*
X23176280Y25736256D01*
X22997197Y25681931D01*
X22832170Y25593722D01*
X22832164Y25593718D01*
X22802674Y25569516D01*
X22738364Y25542204D01*
X22669497Y25553995D01*
X22617937Y25601148D01*
X22600010Y25665370D01*
X22600010Y28134631D01*
X22619695Y28201670D01*
X22672499Y28247425D01*
X22741657Y28257369D01*
X22802676Y28230483D01*
X22832162Y28206284D01*
X22832170Y28206279D01*
X22997197Y28118070D01*
X23176280Y28063745D01*
X23362511Y28045404D01*
X23548741Y28063745D01*
X23727822Y28118069D01*
X23834087Y28174870D01*
X23834088Y28174871D01*
X23648268Y28360691D01*
X23694085Y28379668D01*
X23808735Y28456274D01*
X23906237Y28553776D01*
X23982843Y28668426D01*
X24001820Y28714243D01*
X24187640Y28528423D01*
X24187641Y28528423D01*
X24244442Y28634689D01*
X24298766Y28813770D01*
X24317107Y29000000D01*
X24298766Y29186231D01*
X24244442Y29365312D01*
X24187641Y29471578D01*
X24001820Y29285758D01*
X23982843Y29331574D01*
X23906237Y29446224D01*
X23808735Y29543726D01*
X23694085Y29620332D01*
X23648266Y29639311D01*
X23834088Y29825132D01*
X23727824Y29881931D01*
X23548741Y29936256D01*
X23512197Y29939855D01*
X23447410Y29966017D01*
X23407051Y30023052D01*
X23403935Y30092852D01*
X23439051Y30153256D01*
X23449934Y30162444D01*
X23566945Y30250202D01*
X23632386Y30274676D01*
X23641343Y30275000D01*
X32298648Y30275000D01*
X32365687Y30255315D01*
G37*
%TD.AperFunction*%
%TD*%
%TA.AperFunction,Conductor*%
%TO.N,Net-(C60-Pad1)*%
G36*
X38543049Y19755315D02*
G01*
X38588804Y19702511D01*
X38600010Y19651000D01*
X38600010Y9926262D01*
X38580325Y9859223D01*
X38563691Y9838581D01*
X38473511Y9748402D01*
X38377538Y9595663D01*
X38317958Y9425394D01*
X38317957Y9425389D01*
X38297762Y9246143D01*
X38297762Y9246136D01*
X38317957Y9066890D01*
X38317958Y9066885D01*
X38377538Y8896616D01*
X38473511Y8743877D01*
X38563691Y8653697D01*
X38597176Y8592374D01*
X38600010Y8566016D01*
X38600010Y3078578D01*
X38580325Y3011539D01*
X38560995Y2988281D01*
X34413077Y-915641D01*
X34350768Y-947253D01*
X34287141Y-942387D01*
X34279269Y-939633D01*
X34279259Y-939630D01*
X34100014Y-919435D01*
X34100006Y-919435D01*
X33920760Y-939630D01*
X33920755Y-939631D01*
X33750486Y-999211D01*
X33597747Y-1095184D01*
X33470194Y-1222737D01*
X33374221Y-1375476D01*
X33314641Y-1545745D01*
X33314640Y-1545750D01*
X33294445Y-1724996D01*
X33294445Y-1725004D01*
X33307489Y-1840778D01*
X33295434Y-1909600D01*
X33248085Y-1960979D01*
X33194009Y-1978278D01*
X33186716Y-1978852D01*
X33186708Y-1978853D01*
X32949392Y-2035829D01*
X32723922Y-2129221D01*
X32515838Y-2256736D01*
X32515835Y-2256737D01*
X32330253Y-2415240D01*
X32171750Y-2600822D01*
X32171749Y-2600825D01*
X32044234Y-2808909D01*
X31950842Y-3034379D01*
X31897863Y-3255048D01*
X31863071Y-3315640D01*
X31862274Y-3316397D01*
X30135819Y-4941297D01*
X30073510Y-4972909D01*
X30050834Y-4975000D01*
X28684010Y-4975000D01*
X28616971Y-4955315D01*
X28571216Y-4902511D01*
X28560010Y-4851000D01*
X28560010Y-4495000D01*
X28185288Y-4495000D01*
X28229343Y-4418694D01*
X28260010Y-4304244D01*
X28260010Y-4185756D01*
X28229343Y-4071306D01*
X28185288Y-3995000D01*
X28560010Y-3995000D01*
X28560010Y-3495000D01*
X28060010Y-3495000D01*
X28060010Y-3869722D01*
X27983704Y-3825667D01*
X27869254Y-3795000D01*
X27750766Y-3795000D01*
X27636316Y-3825667D01*
X27560010Y-3869722D01*
X27560010Y-3495000D01*
X27224010Y-3495000D01*
X27156971Y-3475315D01*
X27111216Y-3422511D01*
X27100010Y-3371000D01*
X27100010Y-3349000D01*
X27119695Y-3281961D01*
X27172499Y-3236206D01*
X27224010Y-3225000D01*
X28600008Y-3225000D01*
X28600010Y-3225000D01*
X28867255Y-2974996D01*
X29595264Y-2974996D01*
X29595264Y-2975003D01*
X29614186Y-3142944D01*
X29669741Y-3301713D01*
X29907871Y-3063583D01*
X29930677Y-3148694D01*
X29989920Y-3251306D01*
X30073704Y-3335090D01*
X30176316Y-3394333D01*
X30261425Y-3417138D01*
X30023294Y-3655267D01*
X30182063Y-3710823D01*
X30182068Y-3710824D01*
X30350006Y-3729746D01*
X30350014Y-3729746D01*
X30517948Y-3710824D01*
X30517953Y-3710823D01*
X30676723Y-3655267D01*
X30676724Y-3655267D01*
X30438595Y-3417138D01*
X30523704Y-3394333D01*
X30626316Y-3335090D01*
X30710100Y-3251306D01*
X30769343Y-3148694D01*
X30792148Y-3063585D01*
X31030277Y-3301714D01*
X31030277Y-3301713D01*
X31085833Y-3142943D01*
X31085834Y-3142938D01*
X31104756Y-2975003D01*
X31104756Y-2974996D01*
X31085834Y-2807058D01*
X31085833Y-2807053D01*
X31030277Y-2648285D01*
X31030277Y-2648284D01*
X30792147Y-2886414D01*
X30769343Y-2801306D01*
X30710100Y-2698694D01*
X30626316Y-2614910D01*
X30523704Y-2555667D01*
X30438594Y-2532861D01*
X30676724Y-2294731D01*
X30517954Y-2239176D01*
X30350014Y-2220254D01*
X30350006Y-2220254D01*
X30182065Y-2239176D01*
X30023295Y-2294731D01*
X30261425Y-2532861D01*
X30176316Y-2555667D01*
X30073704Y-2614910D01*
X29989920Y-2698694D01*
X29930677Y-2801306D01*
X29907871Y-2886415D01*
X29669741Y-2648285D01*
X29614186Y-2807055D01*
X29595264Y-2974996D01*
X28867255Y-2974996D01*
X30209536Y-1719313D01*
X30271935Y-1687894D01*
X30305045Y-1686343D01*
X30350010Y-1690277D01*
X30350010Y-1690276D01*
X30350011Y-1690277D01*
X30350012Y-1690277D01*
X30378264Y-1687805D01*
X30567987Y-1671207D01*
X30779340Y-1614575D01*
X30977649Y-1522102D01*
X31156887Y-1396598D01*
X31311608Y-1241877D01*
X31437112Y-1062639D01*
X31529585Y-864330D01*
X31586217Y-652977D01*
X31603186Y-459007D01*
X31628638Y-393940D01*
X31641986Y-379279D01*
X35378380Y3116057D01*
X35440782Y3147478D01*
X35463085Y3149501D01*
X35997882Y3149501D01*
X36057493Y3155909D01*
X36192341Y3206204D01*
X36307556Y3292454D01*
X36393806Y3407669D01*
X36444101Y3542517D01*
X36450510Y3602127D01*
X36450509Y5397872D01*
X36444101Y5457483D01*
X36393806Y5592331D01*
X36374743Y5617796D01*
X36350326Y5683261D01*
X36350010Y5692107D01*
X36350010Y6497587D01*
X36361628Y6549992D01*
X36373913Y6576337D01*
X36435073Y6804592D01*
X36455669Y7040000D01*
X36435073Y7275408D01*
X36373913Y7503663D01*
X36366283Y7520025D01*
X36361627Y7530011D01*
X36350010Y7582414D01*
X36350010Y19651000D01*
X36369695Y19718039D01*
X36422499Y19763794D01*
X36474010Y19775000D01*
X38476010Y19775000D01*
X38543049Y19755315D01*
G37*
%TD.AperFunction*%
%TD*%
%TA.AperFunction,Conductor*%
%TO.N,+12V*%
G36*
X29543049Y12255315D02*
G01*
X29588804Y12202511D01*
X29600010Y12151000D01*
X29600010Y6826363D01*
X29580325Y6759324D01*
X29563691Y6738682D01*
X27394089Y4569081D01*
X27358814Y4544380D01*
X27182369Y4462101D01*
X27003131Y4336598D01*
X26848412Y4181879D01*
X26722909Y4002641D01*
X26640630Y3826196D01*
X26615929Y3790921D01*
X19234185Y-3590824D01*
X19172862Y-3624309D01*
X19157848Y-3625923D01*
X19157898Y-3626363D01*
X18971729Y-3647338D01*
X18971724Y-3647339D01*
X18801455Y-3706919D01*
X18648716Y-3802892D01*
X18521163Y-3930445D01*
X18425190Y-4083184D01*
X18365610Y-4253453D01*
X18365609Y-4253458D01*
X18344634Y-4439627D01*
X18342150Y-4439347D01*
X18325729Y-4495272D01*
X18309095Y-4515914D01*
X17718246Y-5106762D01*
X17656923Y-5140247D01*
X17616683Y-5142301D01*
X17610869Y-5141646D01*
X17610861Y-5141646D01*
X17431615Y-5161841D01*
X17431610Y-5161842D01*
X17261341Y-5221422D01*
X17108602Y-5317395D01*
X16981049Y-5444948D01*
X16885076Y-5597687D01*
X16825496Y-5767956D01*
X16825495Y-5767961D01*
X16805300Y-5947207D01*
X16805300Y-5947215D01*
X16805955Y-5953029D01*
X16793900Y-6021850D01*
X16770416Y-6054592D01*
X15136329Y-7688681D01*
X15075006Y-7722166D01*
X15048648Y-7725000D01*
X10350010Y-7725000D01*
X10350010Y6036289D01*
X19609510Y6036289D01*
X19609510Y5793712D01*
X19641171Y5553215D01*
X19703957Y5318896D01*
X19723118Y5272638D01*
X19796786Y5094788D01*
X19918074Y4884711D01*
X19918076Y4884708D01*
X19918077Y4884707D01*
X20065743Y4692264D01*
X20065749Y4692257D01*
X20237266Y4520740D01*
X20237272Y4520735D01*
X20429721Y4373064D01*
X20639798Y4251776D01*
X20863910Y4158946D01*
X21098221Y4096162D01*
X21278596Y4072416D01*
X21338721Y4064500D01*
X21338722Y4064500D01*
X21581299Y4064500D01*
X21629398Y4070833D01*
X21821799Y4096162D01*
X22056110Y4158946D01*
X22280222Y4251776D01*
X22490299Y4373064D01*
X22682748Y4520735D01*
X22854275Y4692262D01*
X23001946Y4884711D01*
X23123234Y5094788D01*
X23216064Y5318900D01*
X23278848Y5553211D01*
X23310510Y5793712D01*
X23310510Y6036288D01*
X23278848Y6276789D01*
X23216064Y6511100D01*
X23123234Y6735212D01*
X23001946Y6945289D01*
X22854275Y7137738D01*
X22854270Y7137744D01*
X22682753Y7309261D01*
X22682746Y7309267D01*
X22490303Y7456933D01*
X22490302Y7456934D01*
X22490299Y7456936D01*
X22280222Y7578224D01*
X22280215Y7578227D01*
X22056114Y7671053D01*
X21821795Y7733839D01*
X21581299Y7765500D01*
X21581298Y7765500D01*
X21338722Y7765500D01*
X21338721Y7765500D01*
X21098224Y7733839D01*
X20863905Y7671053D01*
X20639804Y7578227D01*
X20639795Y7578223D01*
X20429716Y7456933D01*
X20237273Y7309267D01*
X20237266Y7309261D01*
X20065749Y7137744D01*
X20065743Y7137737D01*
X19918077Y6945294D01*
X19796787Y6735215D01*
X19796783Y6735206D01*
X19703957Y6511105D01*
X19641171Y6276786D01*
X19609510Y6036289D01*
X10350010Y6036289D01*
X10350010Y6775000D01*
X14316943Y9750201D01*
X14382385Y9774676D01*
X14391343Y9775000D01*
X24600009Y9775000D01*
X24600010Y9775000D01*
X26171788Y11203890D01*
X26234633Y11234419D01*
X26241287Y11235354D01*
X26279265Y11239632D01*
X26449532Y11299211D01*
X26602272Y11395184D01*
X26729826Y11522738D01*
X26825799Y11675478D01*
X26878522Y11826153D01*
X26912146Y11876943D01*
X27314538Y12242754D01*
X27377384Y12273283D01*
X27397949Y12275000D01*
X29476010Y12275000D01*
X29543049Y12255315D01*
G37*
%TD.AperFunction*%
%TD*%
%TA.AperFunction,Conductor*%
%TO.N,+12V*%
G36*
X10350010Y-7725000D02*
G01*
X1331092Y-7725000D01*
X1296444Y-7710648D01*
X1283034Y-7685559D01*
X1226893Y-7403321D01*
X1226893Y-7403320D01*
X1226891Y-7403314D01*
X1226890Y-7403309D01*
X1129955Y-7117748D01*
X996576Y-6847282D01*
X940981Y-6764079D01*
X829035Y-6596538D01*
X736132Y-6490604D01*
X630199Y-6369811D01*
X524264Y-6276908D01*
X403471Y-6170974D01*
X152728Y-6003434D01*
X-117740Y-5870054D01*
X-242665Y-5827648D01*
X-403299Y-5773120D01*
X-403302Y-5773119D01*
X-403312Y-5773116D01*
X-699069Y-5714287D01*
X-699068Y-5714287D01*
X-999989Y-5694564D01*
X-999991Y-5694564D01*
X-1300905Y-5714286D01*
X-1591431Y-5772075D01*
X-1628213Y-5764758D01*
X-1649049Y-5733575D01*
X-1649990Y-5724016D01*
X-1649990Y2540004D01*
X-1355621Y2540004D01*
X-1335025Y2304594D01*
X-1335024Y2304588D01*
X-1273868Y2076349D01*
X-1273867Y2076344D01*
X-1173999Y1862176D01*
X-1173992Y1862164D01*
X-1038462Y1668609D01*
X-1038456Y1668602D01*
X-871365Y1501511D01*
X-871358Y1501505D01*
X-677803Y1365975D01*
X-677791Y1365968D01*
X-463623Y1266100D01*
X-463618Y1266099D01*
X-235379Y1204943D01*
X-235375Y1204943D01*
X-235370Y1204941D01*
X-153948Y1197818D01*
X-120684Y1180501D01*
X-109406Y1144733D01*
X-126723Y1111468D01*
X-158220Y1100004D01*
X-874592Y1100004D01*
X-947505Y1085501D01*
X-1030203Y1030245D01*
X-1085459Y947547D01*
X-1099962Y874634D01*
X-1099962Y250004D01*
X-432974Y250004D01*
X-465887Y192997D01*
X-499962Y65830D01*
X-499962Y-65822D01*
X-465887Y-192989D01*
X-432974Y-249996D01*
X-1099962Y-249996D01*
X-1099962Y-874625D01*
X-1085459Y-947538D01*
X-1030203Y-1030236D01*
X-947505Y-1085492D01*
X-874592Y-1099995D01*
X-874586Y-1099996D01*
X-249962Y-1099996D01*
X-249962Y-433008D01*
X-192955Y-465921D01*
X-65788Y-499996D01*
X65864Y-499996D01*
X193031Y-465921D01*
X250038Y-433008D01*
X250038Y-1099996D01*
X874662Y-1099996D01*
X874667Y-1099995D01*
X947580Y-1085492D01*
X1030278Y-1030236D01*
X1085534Y-947538D01*
X1100037Y-874625D01*
X1100038Y-874620D01*
X1100038Y-249996D01*
X433050Y-249996D01*
X465963Y-192989D01*
X500038Y-65822D01*
X500038Y65830D01*
X465963Y192997D01*
X433050Y250004D01*
X1100038Y250004D01*
X1100038Y874628D01*
X1100037Y874634D01*
X1085534Y947547D01*
X1030278Y1030245D01*
X947580Y1085501D01*
X874667Y1100004D01*
X158296Y1100004D01*
X123648Y1114356D01*
X109296Y1149004D01*
X123648Y1183652D01*
X154023Y1197818D01*
X235446Y1204941D01*
X235452Y1204943D01*
X235454Y1204943D01*
X349573Y1235521D01*
X463695Y1266100D01*
X463698Y1266100D01*
X463698Y1266101D01*
X463701Y1266101D01*
X677868Y1365969D01*
X677869Y1365970D01*
X677878Y1365975D01*
X871433Y1501505D01*
X871439Y1501509D01*
X1038533Y1668603D01*
X1061203Y1700980D01*
X1174067Y1862164D01*
X1174069Y1862170D01*
X1174073Y1862174D01*
X1225629Y1972738D01*
X1253279Y1998074D01*
X1290746Y1996438D01*
X1314447Y1972737D01*
X1366002Y1862176D01*
X1366008Y1862164D01*
X1501538Y1668609D01*
X1501544Y1668602D01*
X1668635Y1501511D01*
X1668642Y1501505D01*
X1862197Y1365975D01*
X1862209Y1365968D01*
X2076377Y1266100D01*
X2076382Y1266099D01*
X2304621Y1204943D01*
X2304625Y1204943D01*
X2304630Y1204941D01*
X2421329Y1194731D01*
X2454592Y1177415D01*
X2465870Y1141647D01*
X2448553Y1108382D01*
X2426060Y1097752D01*
X2237712Y1062543D01*
X2047628Y988905D01*
X1874295Y881581D01*
X1723645Y744245D01*
X1723642Y744242D01*
X1600793Y581562D01*
X1600790Y581558D01*
X1509926Y399078D01*
X1509922Y399068D01*
X1467509Y250005D01*
X1467510Y250004D01*
X2107026Y250004D01*
X2074113Y192997D01*
X2040038Y65830D01*
X2040038Y-65822D01*
X2074113Y-192989D01*
X2107026Y-249996D01*
X1467509Y-249996D01*
X1509922Y-399059D01*
X1509926Y-399069D01*
X1600790Y-581549D01*
X1600793Y-581553D01*
X1723642Y-744233D01*
X1723645Y-744236D01*
X1874295Y-881572D01*
X2047628Y-988896D01*
X2237712Y-1062534D01*
X2290038Y-1072316D01*
X2290038Y-433008D01*
X2347045Y-465921D01*
X2474212Y-499996D01*
X2605864Y-499996D01*
X2733031Y-465921D01*
X2790038Y-433008D01*
X2790038Y-1072315D01*
X2842363Y-1062534D01*
X3032447Y-988896D01*
X3205780Y-881572D01*
X3356430Y-744236D01*
X3356433Y-744233D01*
X3479282Y-581553D01*
X3479285Y-581549D01*
X3570149Y-399069D01*
X3570153Y-399059D01*
X3612566Y-249996D01*
X2973050Y-249996D01*
X3005963Y-192989D01*
X3040038Y-65822D01*
X3040038Y65830D01*
X3005963Y192997D01*
X2973050Y250004D01*
X3612566Y250004D01*
X3612566Y250005D01*
X3570153Y399068D01*
X3570149Y399078D01*
X3479285Y581558D01*
X3479282Y581562D01*
X3356433Y744242D01*
X3356430Y744245D01*
X3205780Y881581D01*
X3032447Y988905D01*
X2842363Y1062543D01*
X2654015Y1097752D01*
X2622594Y1118226D01*
X2614853Y1154922D01*
X2635327Y1186343D01*
X2658744Y1194731D01*
X2775446Y1204941D01*
X2775452Y1204943D01*
X2775454Y1204943D01*
X2889573Y1235521D01*
X3003695Y1266100D01*
X3003698Y1266100D01*
X3003698Y1266101D01*
X3003701Y1266101D01*
X3217868Y1365969D01*
X3217869Y1365970D01*
X3217878Y1365975D01*
X3411433Y1501505D01*
X3411439Y1501509D01*
X3578533Y1668603D01*
X3601203Y1700980D01*
X3714067Y1862164D01*
X3714074Y1862176D01*
X3728505Y1893124D01*
X3813941Y2076341D01*
X3875101Y2304596D01*
X3895697Y2540004D01*
X3875101Y2775412D01*
X3813941Y3003667D01*
X3765629Y3107272D01*
X3714074Y3217832D01*
X3714066Y3217844D01*
X3578537Y3411400D01*
X3578531Y3411407D01*
X3411440Y3578498D01*
X3411433Y3578504D01*
X3217878Y3714034D01*
X3217866Y3714041D01*
X3003698Y3813909D01*
X3003693Y3813910D01*
X2775454Y3875066D01*
X2775448Y3875067D01*
X2540038Y3895663D01*
X2304627Y3875067D01*
X2304621Y3875066D01*
X2076382Y3813910D01*
X2076377Y3813909D01*
X1862210Y3714041D01*
X1862198Y3714033D01*
X1668642Y3578504D01*
X1668635Y3578498D01*
X1501544Y3411407D01*
X1501538Y3411400D01*
X1366009Y3217844D01*
X1366001Y3217832D01*
X1314447Y3107272D01*
X1286797Y3081935D01*
X1249330Y3083571D01*
X1225629Y3107272D01*
X1174074Y3217832D01*
X1174066Y3217844D01*
X1038537Y3411400D01*
X1038531Y3411407D01*
X871440Y3578498D01*
X871433Y3578504D01*
X677878Y3714034D01*
X677866Y3714041D01*
X463698Y3813909D01*
X463693Y3813910D01*
X235454Y3875066D01*
X235448Y3875067D01*
X38Y3895663D01*
X-235373Y3875067D01*
X-235379Y3875066D01*
X-463618Y3813910D01*
X-463623Y3813909D01*
X-677790Y3714041D01*
X-677802Y3714033D01*
X-871358Y3578504D01*
X-871365Y3578498D01*
X-1038456Y3411407D01*
X-1038462Y3411400D01*
X-1173991Y3217844D01*
X-1173999Y3217832D01*
X-1273867Y3003665D01*
X-1273868Y3003660D01*
X-1335024Y2775421D01*
X-1335025Y2775415D01*
X-1355621Y2540004D01*
X-1649990Y2540004D01*
X-1649990Y6726000D01*
X-1635638Y6760648D01*
X-1600990Y6775000D01*
X10350010Y6775000D01*
X10350010Y-7725000D01*
G37*
%TD.AperFunction*%
%TD*%
%TA.AperFunction,Conductor*%
%TO.N,/Connectors/PRT_PWR*%
G36*
X16825209Y29888385D02*
G01*
X16883420Y29849742D01*
X16911497Y29785762D01*
X16912511Y29769940D01*
X16912511Y29250000D01*
X17208390Y29250000D01*
X17189412Y29204182D01*
X17162511Y29068944D01*
X17162511Y28931056D01*
X17189412Y28795818D01*
X17208390Y28750000D01*
X16912511Y28750000D01*
X16912511Y28050000D01*
X17612511Y28050000D01*
X17612511Y28345880D01*
X17658329Y28326901D01*
X17793567Y28300000D01*
X17931455Y28300000D01*
X18066693Y28326901D01*
X18112511Y28345880D01*
X18112511Y28050000D01*
X18598617Y28050000D01*
X18665656Y28030315D01*
X18711411Y27977511D01*
X18721355Y27908353D01*
X18692330Y27844797D01*
X18691956Y27844368D01*
X13600010Y22025000D01*
X13600010Y22024999D01*
X13600010Y18149000D01*
X13580325Y18081961D01*
X13527521Y18036206D01*
X13476010Y18025000D01*
X10724010Y18025000D01*
X10656971Y18044685D01*
X10611216Y18097489D01*
X10600010Y18149000D01*
X10600010Y22977699D01*
X10619695Y23044738D01*
X10631514Y23060285D01*
X14902997Y27844345D01*
X16696015Y29852527D01*
X16755348Y29889423D01*
X16825209Y29888385D01*
G37*
%TD.AperFunction*%
%TD*%
%TA.AperFunction,Conductor*%
%TO.N,+24V*%
G36*
X22350010Y15275000D02*
G01*
X23704177Y15275000D01*
X22115209Y13541581D01*
X22114575Y13540889D01*
X22080582Y13525046D01*
X22078454Y13525000D01*
X9872122Y13525000D01*
X9837474Y13539352D01*
X9835380Y13541581D01*
X7313246Y16400000D01*
X16407040Y16400000D01*
X16426891Y16160437D01*
X16485902Y15927407D01*
X16582460Y15707275D01*
X16582462Y15707272D01*
X16713940Y15506031D01*
X16779002Y15435355D01*
X16876749Y15329173D01*
X16946351Y15275000D01*
X17066444Y15181528D01*
X17066451Y15181524D01*
X17066453Y15181523D01*
X17277847Y15067122D01*
X17277849Y15067122D01*
X17277855Y15067118D01*
X17505214Y14989066D01*
X17742319Y14949500D01*
X17742322Y14949500D01*
X17982700Y14949500D01*
X17982703Y14949500D01*
X18219808Y14989066D01*
X18447167Y15067118D01*
X18658578Y15181528D01*
X18848275Y15329175D01*
X19011082Y15506031D01*
X19142560Y15707272D01*
X19239121Y15927409D01*
X19298131Y16160437D01*
X19317982Y16400000D01*
X19298131Y16639563D01*
X19239121Y16872591D01*
X19142560Y17092728D01*
X19011082Y17293969D01*
X18848275Y17470825D01*
X18848274Y17470826D01*
X18848272Y17470828D01*
X18658582Y17618469D01*
X18658581Y17618470D01*
X18658578Y17618472D01*
X18658573Y17618475D01*
X18658568Y17618478D01*
X18447174Y17732879D01*
X18447168Y17732882D01*
X18447167Y17732882D01*
X18282675Y17789352D01*
X18219809Y17810934D01*
X18141508Y17824000D01*
X17982703Y17850500D01*
X17742319Y17850500D01*
X17600056Y17826761D01*
X17505212Y17810934D01*
X17277857Y17732883D01*
X17277847Y17732879D01*
X17066453Y17618478D01*
X17066439Y17618469D01*
X16876749Y17470828D01*
X16713938Y17293967D01*
X16582464Y17092732D01*
X16582460Y17092726D01*
X16485902Y16872594D01*
X16426891Y16639564D01*
X16407040Y16400000D01*
X7313246Y16400000D01*
X6100011Y17775000D01*
X6100010Y17775000D01*
X5211511Y17775000D01*
X5176863Y17789352D01*
X5162511Y17824000D01*
X5162511Y20226000D01*
X5176863Y20260648D01*
X5211511Y20275000D01*
X8301010Y20275000D01*
X8335658Y20260648D01*
X8350010Y20226000D01*
X8350010Y18275000D01*
X9100010Y17525000D01*
X10350010Y17525000D01*
X16350009Y17525000D01*
X16350010Y17525000D01*
X18126135Y19165305D01*
X18151307Y19177636D01*
X18219808Y19189066D01*
X18447167Y19267118D01*
X18658578Y19381528D01*
X18848275Y19529175D01*
X19011082Y19706031D01*
X19142560Y19907272D01*
X19239121Y20127409D01*
X19257290Y20199160D01*
X19271543Y20223122D01*
X20585930Y21436998D01*
X20619175Y21450000D01*
X22350010Y21450000D01*
X22350010Y15275000D01*
G37*
%TD.AperFunction*%
%TD*%
M02*
