M48
; DRILL file {KiCad 8.0.8} date 2025-02-06T17:20:13+0000
; FORMAT={-:-/ absolute / inch / decimal}
; #@! TF.CreationDate,2025-02-06T17:20:13+00:00
; #@! TF.GenerationSoftware,Kicad,Pcbnew,8.0.8
; #@! TF.FileFunction,Plated,1,4,PTH
FMAT,2
INCH
; #@! TA.AperFunction,Plated,PTH,ViaDrill
T1C0.0118
; #@! TA.AperFunction,Plated,PTH,ViaDrill
T2C0.0157
; #@! TA.AperFunction,Plated,PTH,ViaDrill
T3C0.0197
; #@! TA.AperFunction,Plated,PTH,ComponentDrill
T4C0.0197
; #@! TA.AperFunction,Plated,PTH,ComponentDrill
T5C0.0354
; #@! TA.AperFunction,Plated,PTH,ComponentDrill
T6C0.0394
; #@! TA.AperFunction,Plated,PTH,ComponentDrill
T7C0.0402
; #@! TA.AperFunction,Plated,PTH,ComponentDrill
T8C0.0472
; #@! TA.AperFunction,Plated,PTH,ComponentDrill
T9C0.0492
; #@! TA.AperFunction,Plated,PTH,ComponentDrill
T10C0.0551
; #@! TA.AperFunction,Plated,PTH,ComponentDrill
T11C0.0630
; #@! TA.AperFunction,Plated,PTH,ComponentDrill
T12C0.0949
; #@! TA.AperFunction,Plated,PTH,ComponentDrill
T13C0.1260
%
G90
G05
T1
X-0.1122Y0.936
X-0.1122Y0.8573
X-0.1122Y0.7785
X-0.1122Y0.6998
X-0.1122Y0.6211
X-0.1122Y0.5423
X-0.1122Y0.4636
X-0.1122Y0.3848
X-0.1122Y0.3061
X-0.1122Y0.2274
X-0.1122Y0.1486
X-0.1122Y0.0699
X-0.1122Y-0.0089
X-0.1122Y-0.0876
X-0.1122Y-0.1663
X-0.0945Y2.1368
X-0.0945Y2.0581
X-0.0551Y0.9754
X-0.0138Y2.0581
X-0.0059Y0.8376
X-0.0059Y0.5226
X-0.0059Y0.3652
X0.0236Y0.9754
X0.065Y2.0581
X0.1024Y0.9754
X0.1122Y0.5226
X0.1122Y0.3652
X0.1182Y2.3668
X0.1437Y2.0581
X0.1811Y0.9754
X0.1969Y2.3668
X0.1988Y-0.3671
X0.2224Y2.0581
X0.2303Y0.5226
X0.2303Y0.3652
X0.2598Y0.9754
X0.2756Y2.3668
X0.2776Y-0.3671
X0.3012Y2.0581
X0.3386Y0.9754
X0.3484Y0.3652
X0.3544Y2.3668
X0.3563Y-0.3671
X0.3799Y2.0581
X0.4173Y0.9754
X0.4331Y2.3668
X0.435Y-0.3671
X0.4567Y2.0285
X0.4665Y1.0246
X0.4902Y1.9596
X0.4902Y1.8809
X0.4902Y1.8022
X0.4902Y1.7234
X0.4902Y1.6447
X0.4902Y1.5659
X0.4902Y1.4872
X0.4902Y1.4085
X0.4902Y1.3297
X0.4902Y1.251
X0.4902Y1.1718
X0.4902Y1.0931
X0.5119Y2.3668
X0.5138Y-0.3671
X0.5906Y2.3668
X0.5925Y-0.3671
X0.6693Y2.3668
X0.6713Y-0.3671
X0.6933Y-0.2341
X0.7481Y2.3668
X0.75Y-0.3671
X0.754Y-0.1745
X0.8268Y2.3668
X0.8287Y-0.3671
X0.9056Y2.3668
X0.9075Y-0.3671
X0.9843Y2.3668
X0.9862Y-0.3671
X0.9872Y-0.228
X0.9882Y1.999
X1.0177Y1.2215
X1.0276Y0.9754
X1.0276Y0.8967
X1.0276Y0.5325
X1.0276Y0.4734
X1.063Y2.3668
X1.065Y-0.3671
X1.0866Y1.8893
X1.0866Y1.6348
X1.1418Y2.3668
X1.1437Y-0.3671
X1.1752Y1.8317
X1.1752Y1.6841
X1.2047Y0.8868
X1.2047Y0.5226
X1.2047Y0.4636
X1.2047Y0.4045
X1.2205Y2.3668
X1.2224Y-0.3671
X1.2736Y1.6348
X1.2776Y1.4097
X1.2785Y2.1467
X1.2933Y0.562
X1.2993Y2.3668
X1.3012Y-0.3671
X1.3032Y0.6998
X1.3032Y0.6506
X1.313Y0.8376
X1.3144Y1.966
X1.3425Y-0.0679
X1.3524Y1.8809
X1.378Y2.3668
X1.3799Y-0.3671
X1.3917Y1.9301
X1.4016Y2.0049
X1.4016Y0.9852
X1.4121Y1.8144
X1.4249Y1.5069
X1.4311Y2.0187
X1.439Y1.4068
X1.4508Y-0.0285
X1.4567Y2.3668
X1.4587Y-0.3671
X1.4705Y1.9203
X1.4754Y1.3077
X1.5098Y1.8907
X1.5098Y1.7628
X1.5098Y1.7382
X1.5098Y1.7136
X1.5098Y-0.0256
X1.5147Y1.8192
X1.5197Y1.4872
X1.5197Y0.8376
X1.5355Y2.3668
X1.5374Y-0.3671
X1.5395Y0.364
X1.5492Y1.6742
X1.5533Y2.1579
X1.5543Y0.9165
X1.5591Y0.0896
X1.5663Y0.5253
X1.5886Y1.6053
X1.5888Y1.006
X1.6129Y2.0661
X1.6142Y2.3668
X1.6161Y-0.3671
X1.624Y1.9793
X1.6358Y1.5738
X1.6476Y2.1565
X1.6575Y1.0738
X1.6711Y0.6786
X1.6772Y0.001
X1.687Y0.4341
X1.693Y2.3668
X1.6949Y-0.3671
X1.6969Y0.5915
X1.7257Y0.8049
X1.7358Y0.6654
X1.7451Y1.5551
X1.7461Y1.7825
X1.75Y1.6565
X1.7559Y2.1565
X1.7717Y2.3668
X1.7736Y-0.3671
X1.7756Y0.8799
X1.8051Y0.5128
X1.8051Y0.3061
X1.8051Y0.2372
X1.8248Y1.8809
X1.8248Y1.7628
X1.8248Y0.562
X1.8376Y0.1683
X1.8445Y1.1132
X1.8445Y0.9065
X1.8494Y0.8228
X1.8504Y2.3668
X1.8524Y-0.3671
X1.8884Y1.9931
X1.9035Y0.749
X1.9035Y0.2963
X1.9169Y0.2066
X1.9292Y2.3668
X1.9311Y-0.3671
X1.9331Y1.3199
X1.9403Y0.7418
X1.9453Y2.0163
X1.9528Y1.0246
X1.9528Y0.4045
X1.9528Y0.3258
X1.9626Y1.8809
X1.9626Y1.7628
X1.9626Y1.6447
X1.9626Y1.5266
X1.9649Y0.6703
X1.9665Y0.1841
X1.9818Y2.0165
X2.0079Y2.3668
X2.0098Y-0.3671
X2.0157Y1.3664
X2.0161Y2.017
X2.0492Y0.6083
X2.0512Y0.4439
X2.0551Y2.0128
X2.0807Y1.4675
X2.0867Y2.3668
X2.0886Y-0.3671
X2.0886Y1.2752
X2.0906Y1.1821
X2.1102Y0.3356
X2.118Y1.1054
X2.1201Y0.8278
X2.1201Y0.6014
X2.1301Y0.5007
X2.1358Y2.0108
X2.1374Y0.1552
X2.1496Y0.3455
X2.1654Y2.3668
X2.1673Y-0.3671
X2.1693Y1.6644
X2.1759Y1.4156
X2.1773Y2.0107
X2.2087Y1.812
X2.2244Y1.3245
X2.2283Y2.0089
X2.2283Y1.1132
X2.2283Y0.9557
X2.2382Y0.7195
X2.2441Y2.3668
X2.2461Y-0.3671
X2.248Y2.2549
X2.248Y0.3445
X2.2613Y0.5339
X2.2874Y1.6841
X2.2904Y1.5903
X2.2961Y0.4978
X2.2992Y0.1558
X2.3087Y1.0299
X2.3229Y2.3668
X2.3234Y1.3626
X2.3248Y-0.3671
X2.3268Y1.2805
X2.3425Y1.3093
X2.3465Y2.0187
X2.3549Y1.5921
X2.3563Y0.9321
X2.3563Y0.877
X2.376Y1.812
X2.376Y1.5167
X2.3878Y0.3652
X2.3895Y1.2178
X2.3957Y0.2175
X2.4016Y2.3668
X2.4035Y-0.3671
X2.4318Y1.5924
X2.4328Y-0.1542
X2.4547Y2.1467
X2.4646Y1.1526
X2.4804Y2.3668
X2.4823Y-0.3671
X2.4941Y1.8711
X2.5039Y1.5758
X2.5138Y0.9557
X2.5138Y0.7589
X2.5236Y1.1033
X2.5532Y2.1467
X2.5532Y1.2392
X2.5591Y2.3668
X2.561Y1.4331
X2.561Y1.3494
X2.561Y-0.3671
X2.563Y1.1329
X2.5768Y1.3002
X2.6024Y1.3494
X2.6208Y1.184
X2.6378Y2.3668
X2.6398Y-0.3671
X2.6516Y0.7589
X2.6634Y1.2156
X2.6713Y1.8711
X2.6713Y1.814
X2.6751Y1.6176
X2.6762Y1.0738
X2.6811Y2.0581
X2.6811Y1.0049
X2.7008Y0.1486
X2.715Y1.5732
X2.7166Y2.3668
X2.7185Y-0.3671
X2.7303Y0.4242
X2.7598Y1.5463
X2.7894Y1.0344
X2.7894Y0.9557
X2.7894Y0.7589
X2.7894Y0.2864
X2.7894Y0.2421
X2.7953Y2.3668
X2.7972Y-0.3671
X2.8091Y-0.0364
X2.8346Y0.3888
X2.8352Y0.2421
X2.8366Y1.7569
X2.8484Y2.1467
X2.8563Y1.9823
X2.8583Y1.625
X2.8667Y1.7811
X2.8741Y2.3668
X2.876Y-0.3671
X2.8858Y1.8809
X2.8956Y-0.0285
X2.9075Y1.4675
X2.9137Y0.627
X2.9173Y0.8278
X2.9308Y0.439
X2.9449Y1.8829
X2.9469Y1.5266
X2.9528Y2.3668
X2.9547Y-0.3671
X2.9567Y0.8868
X2.9626Y0.1024
X2.9961Y1.5758
X2.9961Y0.1585
X2.9964Y-0.0797
X3.002Y1.1762
X3.0059Y0.2313
X3.0282Y2.0161
X3.0315Y2.3668
X3.0335Y-0.3671
X3.0349Y1.6334
X3.0354Y1.812
X3.0354Y0.8868
X3.0394Y1.873
X3.0453Y1.0246
X3.0594Y1.6808
X3.065Y0.6211
X3.0748Y1.7825
X3.0797Y1.8839
X3.0815Y0.4383
X3.0846Y1.4478
X3.0925Y1.9823
X3.0945Y-0.0285
X3.1103Y2.3668
X3.1122Y-0.3671
X3.133Y1.3397
X3.1339Y1.7502
X3.1535Y0.3888
X3.1585Y1.7933
X3.189Y2.3668
X3.1909Y-0.3671
X3.2158Y1.888
X3.2197Y2.0075
X3.2224Y0.8967
X3.2323Y-0.2844
X3.25Y1.4636
X3.2618Y1.2313
X3.2678Y2.3668
X3.2697Y-0.3671
X3.2755Y1.3095
X3.3022Y1.4636
X3.3209Y1.6348
X3.3209Y0.8967
X3.3209Y0.0305
X3.3287Y1.31
X3.3307Y0.6407
X3.3307Y0.5423
X3.3406Y2.0974
X3.3465Y2.3668
X3.3484Y-0.3671
X3.3701Y1.0148
X3.3996Y1.3986
X3.4253Y2.3668
X3.4272Y-0.3671
X3.439Y0.4931
X3.439Y0.0305
X3.4488Y0.936
X3.4986Y0.6448
X3.504Y2.3668
X3.5059Y-0.3671
X3.5079Y0.4931
X3.5423Y0.6063
X3.5472Y0.3258
X3.5689Y1.8178
X3.5689Y1.715
X3.57Y1.1139
X3.5707Y1.2161
X3.5709Y1.4172
X3.5713Y1.0098
X3.5713Y0.8915
X3.5768Y0.2766
X3.5965Y0.7884
X3.5965Y-0.0482
X3.5965Y-0.1368
X3.6191Y0.2067
X3.624Y0.6014
X3.6606Y0.7144
X3.6606Y0.5454
X3.7224Y-0.0089
X3.7224Y-0.0876
X3.7224Y-0.1663
X3.7224Y2.1171
X3.7224Y2.0384
X3.7224Y1.9596
X3.7224Y1.8809
X3.7224Y1.8022
X3.7224Y1.7234
X3.7224Y1.6447
X3.7224Y1.5659
X3.7224Y1.4872
X3.7224Y1.4085
X3.7224Y1.3297
X3.7224Y1.251
X3.7224Y1.1722
X3.7224Y1.0935
X3.7224Y1.0148
X3.7224Y0.936
X3.7224Y0.8573
X3.7224Y0.7785
X3.7224Y0.6998
X3.7224Y0.6211
X3.7224Y0.5423
X3.7224Y0.4636
X3.7224Y0.3848
X3.7224Y0.3061
X3.7224Y0.2274
X3.7224Y0.1486
X3.7224Y0.0699
T2
X0.2121Y0.1683
X0.2121Y0.0108
X0.2121Y-0.1467
X0.2795Y0.7785
X0.2795Y0.7293
X0.3122Y0.7785
X0.3122Y0.7293
X0.4469Y0.8179
X0.4469Y0.7392
X0.4469Y0.7772
X0.5251Y0.1683
X0.5251Y0.0108
X0.5251Y-0.1467
X1.1949Y2.0187
X1.2598Y1.1844
X1.2598Y1.1333
X1.2598Y1.0841
X1.2598Y1.0329
X1.2736Y0.9656
X1.4803Y0.7392
X1.4803Y0.7047
X1.4803Y0.6703
X1.7352Y0.1289
X2.4646Y0.4636
X2.4646Y0.4341
X2.4647Y0.4045
X2.6417Y1.6604
X3.186Y0.8278
T3
X0.8701Y2.2156
X1.0981Y2.109
X1.1161Y0.4341
X1.1161Y0.3947
X1.1161Y0.3159
X1.1161Y0.2766
X1.2244Y1.347
X1.2244Y1.247
X1.2605Y1.347
X1.2638Y1.247
X1.2966Y1.347
X1.3032Y1.247
X1.3327Y1.347
X1.3425Y1.247
X1.8543Y1.438
X1.9528Y0.503
X2.1752Y0.7785
X2.1831Y0.5305
X2.2283Y1.5758
X2.376Y0.2963
T4
X2.7323Y1.0394
X2.7323Y0.9902
T5
X1.0949Y0.1329
X1.0949Y0.0329
X1.0949Y-0.0671
X1.0949Y-0.1671
X1.1949Y0.1829
X1.1949Y0.0829
X1.1949Y-0.0171
X1.1949Y-0.1171
T6
X0.0Y0.1
X0.0Y0.0
X0.1Y0.1
X0.1Y0.0
X1.0039Y2.3031
X1.0039Y2.2031
X1.1039Y2.3031
X1.1039Y2.2031
X1.2039Y2.3031
X1.2039Y2.2031
X1.3039Y2.3031
X1.3039Y2.2031
X1.3819Y0.2772
X1.3819Y0.1772
X1.4039Y2.3031
X1.4039Y2.2031
X1.5039Y2.3031
X1.5039Y2.2031
X1.6039Y2.3031
X1.6039Y2.2031
X1.7039Y2.3031
X1.7039Y2.2031
X1.8039Y2.3031
X1.8039Y2.2031
X1.8051Y0.06
X1.9039Y2.3031
X1.9039Y2.2031
X1.9051Y0.06
X2.0039Y2.3031
X2.0039Y2.2031
X2.1039Y2.3031
X2.1039Y2.2031
X2.3039Y2.3031
X2.3039Y2.2031
X2.4039Y2.3031
X2.4039Y2.2031
X2.5039Y2.3031
X2.5039Y2.2031
X2.6039Y2.3031
X2.6039Y2.2031
X2.7039Y2.3031
X2.7039Y2.2031
X2.8039Y2.3031
X2.8039Y2.2031
X2.9039Y2.3031
X2.9039Y2.2031
X3.0039Y2.3031
X3.0039Y2.2031
X3.1039Y2.3031
X3.1039Y2.2031
X3.2039Y2.3031
X3.2039Y2.2031
X3.3039Y2.3031
X3.3039Y2.2031
X3.4039Y2.3031
X3.4039Y2.2031
X3.522Y2.0669
X3.522Y1.9669
X3.522Y1.8669
X3.522Y1.7669
X3.522Y1.6669
X3.522Y1.5669
X3.522Y1.4669
X3.522Y1.3669
X3.522Y1.2669
X3.522Y1.1669
X3.522Y1.0669
X3.522Y0.9669
X3.622Y2.0669
X3.622Y1.9669
X3.622Y1.8669
X3.622Y1.7669
X3.622Y1.6669
X3.622Y1.5669
X3.622Y1.4669
X3.622Y1.3669
X3.622Y1.2669
X3.622Y1.1669
X3.622Y1.0669
X3.622Y0.9669
T7
X2.002Y-0.0974
X2.002Y-0.2156
X2.1201Y-0.0974
X2.1201Y-0.2156
X2.2382Y-0.0974
X2.2382Y-0.2156
T8
X1.4016Y-0.127
X1.4016Y-0.2254
X1.5Y-0.127
X1.5Y-0.2254
X1.5984Y-0.127
X1.5984Y-0.2254
X1.6969Y-0.127
X1.6969Y-0.2254
X3.3307Y0.3652
X3.3307Y0.2667
X3.3307Y0.1683
X3.3406Y-0.1959
X3.4291Y0.3652
X3.4291Y0.2667
X3.4291Y0.1683
X3.439Y-0.1959
T9
X2.5469Y-0.1439
X2.5469Y-0.2423
X2.6453Y-0.1439
X2.6453Y-0.2423
X2.8484Y-0.1959
X2.9469Y-0.1959
X3.0453Y-0.1959
X3.1437Y-0.1959
X3.3799Y0.7884
X3.3799Y0.69
X3.3799Y0.5915
T10
X0.7008Y1.8553
X0.7008Y1.69
X0.7032Y1.1417
X0.7032Y0.9764
X0.7032Y0.811
X0.7032Y0.6457
X0.9173Y1.8553
X0.9173Y1.69
X0.9198Y1.1417
X0.9198Y0.9764
X0.9198Y0.811
X0.9198Y0.6457
T11
X1.3161Y-0.1384
X1.7823Y-0.1384
T12
X1.9173Y-0.1565
X2.3228Y-0.1565
T13
X-0.0394Y2.2835
X-0.0394Y-0.315
X3.6614Y2.2835
X3.6614Y-0.315
M30
