%TF.GenerationSoftware,KiCad,Pcbnew,8.0.8*%
%TF.CreationDate,2025-02-06T17:20:13+00:00*%
%TF.ProjectId,mallow_adapt_v1.3,6d616c6c-6f77-45f6-9164-6170745f7631,rev?*%
%TF.SameCoordinates,Original*%
%TF.FileFunction,Paste,Top*%
%TF.FilePolarity,Positive*%
%FSLAX46Y46*%
G04 Gerber Fmt 4.6, Leading zero omitted, Abs format (unit mm)*
G04 Created by KiCad (PCBNEW 8.0.8) date 2025-02-06 17:20:13*
%MOMM*%
%LPD*%
G01*
G04 APERTURE LIST*
G04 Aperture macros list*
%AMRoundRect*
0 Rectangle with rounded corners*
0 $1 Rounding radius*
0 $2 $3 $4 $5 $6 $7 $8 $9 X,Y pos of 4 corners*
0 Add a 4 corners polygon primitive as box body*
4,1,4,$2,$3,$4,$5,$6,$7,$8,$9,$2,$3,0*
0 Add four circle primitives for the rounded corners*
1,1,$1+$1,$2,$3*
1,1,$1+$1,$4,$5*
1,1,$1+$1,$6,$7*
1,1,$1+$1,$8,$9*
0 Add four rect primitives between the rounded corners*
20,1,$1+$1,$2,$3,$4,$5,0*
20,1,$1+$1,$4,$5,$6,$7,0*
20,1,$1+$1,$6,$7,$8,$9,0*
20,1,$1+$1,$8,$9,$2,$3,0*%
%AMFreePoly0*
4,1,9,3.862500,-0.866500,0.737500,-0.866500,0.737500,-0.450000,-0.737500,-0.450000,-0.737500,0.450000,0.737500,0.450000,0.737500,0.866500,3.862500,0.866500,3.862500,-0.866500,3.862500,-0.866500,$1*%
G04 Aperture macros list end*
%ADD10C,0.000000*%
%ADD11R,0.420000X0.600000*%
%ADD12O,0.420000X0.600000*%
%ADD13R,1.016000X0.406400*%
%ADD14R,3.821000X3.908998*%
%ADD15R,1.525000X0.700000*%
%ADD16R,2.400000X3.200000*%
%ADD17RoundRect,0.250000X0.325000X1.100000X-0.325000X1.100000X-0.325000X-1.100000X0.325000X-1.100000X0*%
%ADD18RoundRect,0.250000X-0.325000X-1.100000X0.325000X-1.100000X0.325000X1.100000X-0.325000X1.100000X0*%
%ADD19RoundRect,0.250000X-0.312500X-0.625000X0.312500X-0.625000X0.312500X0.625000X-0.312500X0.625000X0*%
%ADD20RoundRect,0.087500X0.337500X0.087500X-0.337500X0.087500X-0.337500X-0.087500X0.337500X-0.087500X0*%
%ADD21RoundRect,0.200000X-0.275000X0.200000X-0.275000X-0.200000X0.275000X-0.200000X0.275000X0.200000X0*%
%ADD22RoundRect,0.200000X0.200000X0.275000X-0.200000X0.275000X-0.200000X-0.275000X0.200000X-0.275000X0*%
%ADD23RoundRect,0.250000X-0.250000X-0.475000X0.250000X-0.475000X0.250000X0.475000X-0.250000X0.475000X0*%
%ADD24RoundRect,0.225000X0.250000X-0.225000X0.250000X0.225000X-0.250000X0.225000X-0.250000X-0.225000X0*%
%ADD25RoundRect,0.250000X0.450000X-0.262500X0.450000X0.262500X-0.450000X0.262500X-0.450000X-0.262500X0*%
%ADD26RoundRect,0.250000X-0.650000X0.325000X-0.650000X-0.325000X0.650000X-0.325000X0.650000X0.325000X0*%
%ADD27RoundRect,0.200000X0.275000X-0.200000X0.275000X0.200000X-0.275000X0.200000X-0.275000X-0.200000X0*%
%ADD28RoundRect,0.225000X-0.225000X-0.250000X0.225000X-0.250000X0.225000X0.250000X-0.225000X0.250000X0*%
%ADD29RoundRect,0.150000X0.150000X-0.587500X0.150000X0.587500X-0.150000X0.587500X-0.150000X-0.587500X0*%
%ADD30RoundRect,0.150000X-0.587500X-0.150000X0.587500X-0.150000X0.587500X0.150000X-0.587500X0.150000X0*%
%ADD31R,0.800000X0.600000*%
%ADD32R,0.600000X0.800000*%
%ADD33RoundRect,0.250000X-0.625000X0.312500X-0.625000X-0.312500X0.625000X-0.312500X0.625000X0.312500X0*%
%ADD34RoundRect,0.200000X-0.200000X-0.275000X0.200000X-0.275000X0.200000X0.275000X-0.200000X0.275000X0*%
%ADD35RoundRect,0.225000X0.225000X0.250000X-0.225000X0.250000X-0.225000X-0.250000X0.225000X-0.250000X0*%
%ADD36RoundRect,0.250000X0.650000X-0.325000X0.650000X0.325000X-0.650000X0.325000X-0.650000X-0.325000X0*%
%ADD37RoundRect,0.250000X-1.425000X0.362500X-1.425000X-0.362500X1.425000X-0.362500X1.425000X0.362500X0*%
%ADD38RoundRect,0.250000X0.650000X-1.000000X0.650000X1.000000X-0.650000X1.000000X-0.650000X-1.000000X0*%
%ADD39RoundRect,0.225000X-0.425000X-0.225000X0.425000X-0.225000X0.425000X0.225000X-0.425000X0.225000X0*%
%ADD40FreePoly0,0.000000*%
%ADD41R,1.500000X3.430000*%
%ADD42RoundRect,0.250000X-0.475000X0.250000X-0.475000X-0.250000X0.475000X-0.250000X0.475000X0.250000X0*%
%ADD43R,1.250000X0.600000*%
%ADD44RoundRect,0.250000X0.325000X0.650000X-0.325000X0.650000X-0.325000X-0.650000X0.325000X-0.650000X0*%
%ADD45RoundRect,0.225000X-0.250000X0.225000X-0.250000X-0.225000X0.250000X-0.225000X0.250000X0.225000X0*%
%ADD46RoundRect,0.250000X0.625000X-0.312500X0.625000X0.312500X-0.625000X0.312500X-0.625000X-0.312500X0*%
%ADD47RoundRect,0.150000X-0.150000X0.825000X-0.150000X-0.825000X0.150000X-0.825000X0.150000X0.825000X0*%
%ADD48RoundRect,0.225000X-0.225000X-0.375000X0.225000X-0.375000X0.225000X0.375000X-0.225000X0.375000X0*%
%ADD49RoundRect,0.100000X-0.100000X0.637500X-0.100000X-0.637500X0.100000X-0.637500X0.100000X0.637500X0*%
%ADD50RoundRect,0.150000X0.512500X0.150000X-0.512500X0.150000X-0.512500X-0.150000X0.512500X-0.150000X0*%
G04 APERTURE END LIST*
D10*
%TO.C,Q4*%
G36*
X66189777Y4176933D02*
G01*
X65111310Y4176933D01*
X65111310Y5280800D01*
X66189777Y5280800D01*
X66189777Y4176933D01*
G37*
G36*
X66189777Y2873066D02*
G01*
X65111310Y2873066D01*
X65111310Y3976934D01*
X66189777Y3976934D01*
X66189777Y2873066D01*
G37*
G36*
X66189777Y1569200D02*
G01*
X65111310Y1569200D01*
X65111310Y2673067D01*
X66189777Y2673067D01*
X66189777Y1569200D01*
G37*
G36*
X67468244Y4176933D02*
G01*
X66389776Y4176933D01*
X66389776Y5280800D01*
X67468244Y5280800D01*
X67468244Y4176933D01*
G37*
G36*
X67468244Y2873066D02*
G01*
X66389776Y2873066D01*
X66389776Y3976934D01*
X67468244Y3976934D01*
X67468244Y2873066D01*
G37*
G36*
X67468244Y1569200D02*
G01*
X66389776Y1569200D01*
X66389776Y2673067D01*
X67468244Y2673067D01*
X67468244Y1569200D01*
G37*
G36*
X68746710Y4176933D02*
G01*
X67668243Y4176933D01*
X67668243Y5280800D01*
X68746710Y5280800D01*
X68746710Y4176933D01*
G37*
G36*
X68746710Y2873066D02*
G01*
X67668243Y2873066D01*
X67668243Y3976934D01*
X68746710Y3976934D01*
X68746710Y2873066D01*
G37*
G36*
X68746710Y1569200D02*
G01*
X67668243Y1569200D01*
X67668243Y2673067D01*
X68746710Y2673067D01*
X68746710Y1569200D01*
G37*
G36*
X70358010Y5126800D02*
G01*
X69342010Y5126800D01*
X69342010Y4263200D01*
X70358010Y4263200D01*
X70358010Y3856800D01*
X69342010Y3856800D01*
X69342010Y2993200D01*
X70358010Y2993200D01*
X70358010Y2586800D01*
X69342010Y2586800D01*
X69342010Y1723200D01*
X70358010Y1723200D01*
X70358010Y1316800D01*
X69342010Y1316800D01*
X69342010Y1469200D01*
X65506610Y1469200D01*
X65506610Y5380800D01*
X69342010Y5380800D01*
X69342010Y5533200D01*
X70358010Y5533200D01*
X70358010Y5126800D01*
G37*
%TD*%
D11*
%TO.C,U1*%
X90675010Y5925000D03*
D12*
X91325009Y5925000D03*
X91975008Y5925000D03*
X91975008Y7825002D03*
X91325009Y7825002D03*
X90675010Y7825002D03*
%TD*%
D13*
%TO.C,Q4*%
X64008010Y5330000D03*
X64008010Y4060000D03*
X64008010Y2790000D03*
X64008010Y1520000D03*
X69850010Y1520000D03*
X69850010Y2790000D03*
X69850010Y4060000D03*
D14*
X67431510Y3423699D03*
D13*
X69850010Y5330000D03*
%TD*%
D15*
%TO.C,IC1*%
X38850010Y26275000D03*
X38850010Y27545000D03*
X38850010Y28815000D03*
X38850010Y30085000D03*
X33426010Y30085000D03*
X33426010Y28815000D03*
X33426010Y27545000D03*
X33426010Y26275000D03*
D16*
X36138010Y28180000D03*
%TD*%
D17*
%TO.C,C40*%
X13350010Y-5725000D03*
X10400010Y-5725000D03*
%TD*%
%TO.C,C38*%
X13350010Y-1725000D03*
X10400010Y-1725000D03*
%TD*%
%TO.C,C34*%
X13350010Y2275000D03*
X10400010Y2275000D03*
%TD*%
D18*
%TO.C,C30*%
X5400010Y-1725000D03*
X8350010Y-1725000D03*
%TD*%
%TO.C,C27*%
X5400010Y2275000D03*
X8350010Y2275000D03*
%TD*%
D17*
%TO.C,C44*%
X13350010Y6275000D03*
X10400010Y6275000D03*
%TD*%
D18*
%TO.C,C42*%
X5400010Y6275000D03*
X8350010Y6275000D03*
%TD*%
%TO.C,C29*%
X5400010Y-5725000D03*
X8350010Y-5725000D03*
%TD*%
D19*
%TO.C,R32*%
X89887510Y-1225000D03*
X92812510Y-1225000D03*
%TD*%
D20*
%TO.C,U13*%
X42350010Y20775000D03*
X42350010Y21425000D03*
X42350010Y22075000D03*
X40150010Y22075000D03*
X40150010Y20775000D03*
%TD*%
D21*
%TO.C,R64*%
X47600010Y42100000D03*
X47600010Y40450000D03*
%TD*%
D22*
%TO.C,R35*%
X56675010Y15275000D03*
X55025010Y15275000D03*
%TD*%
D23*
%TO.C,C9*%
X36150010Y32025000D03*
X38050010Y32025000D03*
%TD*%
D24*
%TO.C,C70*%
X45850010Y40500000D03*
X45850010Y42050000D03*
%TD*%
D25*
%TO.C,R16*%
X69600010Y-5887500D03*
X69600010Y-4062500D03*
%TD*%
D26*
%TO.C,C52*%
X3600010Y58500000D03*
X3600010Y55550000D03*
%TD*%
D24*
%TO.C,C28*%
X44604817Y34331782D03*
X44604817Y35881782D03*
%TD*%
D27*
%TO.C,R67*%
X45024991Y21449549D03*
X45024991Y23099549D03*
%TD*%
D28*
%TO.C,C69*%
X40575010Y23775000D03*
X42125010Y23775000D03*
%TD*%
D29*
%TO.C,D5*%
X72600010Y-975000D03*
X74500010Y-975000D03*
X73550010Y900000D03*
%TD*%
D30*
%TO.C,D3*%
X46825010Y6975000D03*
X46825010Y5075000D03*
X48700010Y6025000D03*
%TD*%
D22*
%TO.C,R47*%
X74425010Y4025000D03*
X72775010Y4025000D03*
%TD*%
D31*
%TO.C,Q17*%
X33370010Y20325000D03*
X33370010Y22225000D03*
X31350010Y21275000D03*
%TD*%
D22*
%TO.C,R39*%
X46675010Y9025000D03*
X45025010Y9025000D03*
%TD*%
D32*
%TO.C,Q18*%
X44100010Y17775000D03*
X46000010Y17775000D03*
X45050010Y19795000D03*
%TD*%
%TO.C,Q1*%
X60300010Y19285000D03*
X58400010Y19285000D03*
X59350010Y17265000D03*
%TD*%
D33*
%TO.C,R31*%
X25005010Y-4262500D03*
X25005010Y-7187500D03*
%TD*%
D27*
%TO.C,R60*%
X16977831Y58432766D03*
X16977831Y56782766D03*
%TD*%
%TO.C,R26*%
X35600010Y52375000D03*
X35600010Y54025000D03*
%TD*%
D34*
%TO.C,R10*%
X59986010Y6275000D03*
X61636010Y6275000D03*
%TD*%
D29*
%TO.C,D4*%
X77650010Y-992359D03*
X79550010Y-992359D03*
X78600010Y882641D03*
%TD*%
D22*
%TO.C,R14*%
X59986010Y1275000D03*
X61636010Y1275000D03*
%TD*%
D35*
%TO.C,C25*%
X37375010Y43275000D03*
X35825010Y43275000D03*
%TD*%
D34*
%TO.C,R34*%
X68500010Y36425000D03*
X70150010Y36425000D03*
%TD*%
D24*
%TO.C,C37*%
X38100010Y34500000D03*
X38100010Y36050000D03*
%TD*%
D36*
%TO.C,C53*%
X17100010Y-7200000D03*
X17100010Y-4250000D03*
%TD*%
D22*
%TO.C,R5*%
X60100010Y21025000D03*
X58450010Y21025000D03*
%TD*%
%TO.C,R7*%
X42850010Y27835000D03*
X41200010Y27835000D03*
%TD*%
D28*
%TO.C,C23*%
X33825010Y36525000D03*
X35375010Y36525000D03*
%TD*%
D35*
%TO.C,C5*%
X42825010Y32485000D03*
X41275010Y32485000D03*
%TD*%
D37*
%TO.C,R28*%
X27600010Y47987500D03*
X27600010Y42062500D03*
%TD*%
D32*
%TO.C,Q9*%
X60300010Y13785000D03*
X58400010Y13785000D03*
X59350010Y11765000D03*
%TD*%
%TO.C,Q16*%
X77850010Y18525000D03*
X75950010Y18525000D03*
X76900010Y16505000D03*
%TD*%
D22*
%TO.C,R45*%
X41775010Y1025000D03*
X43425010Y1025000D03*
%TD*%
D34*
%TO.C,R12*%
X55025010Y21025000D03*
X56675010Y21025000D03*
%TD*%
D38*
%TO.C,D1*%
X26850010Y16525000D03*
X26850010Y20525000D03*
%TD*%
D35*
%TO.C,C21*%
X37375010Y44775000D03*
X35825010Y44775000D03*
%TD*%
D22*
%TO.C,R40*%
X56675010Y11775000D03*
X55025010Y11775000D03*
%TD*%
D21*
%TO.C,R65*%
X37350010Y22100000D03*
X37350010Y20450000D03*
%TD*%
D39*
%TO.C,U2*%
X33900010Y41775000D03*
D40*
X33987510Y40275000D03*
D39*
X33900010Y38775000D03*
%TD*%
D41*
%TO.C,F1*%
X41725010Y8025000D03*
X37425010Y8025000D03*
%TD*%
D17*
%TO.C,C66*%
X42575010Y47275000D03*
X39625010Y47275000D03*
%TD*%
D31*
%TO.C,Q2*%
X50850010Y4675000D03*
X50850010Y2775000D03*
X52870010Y3725000D03*
%TD*%
D42*
%TO.C,C14*%
X20600010Y19475000D03*
X20600010Y17575000D03*
%TD*%
D22*
%TO.C,R33*%
X60175010Y15525000D03*
X58525010Y15525000D03*
%TD*%
%TO.C,R42*%
X77703325Y2516331D03*
X79353325Y2516331D03*
%TD*%
D21*
%TO.C,R41*%
X43833108Y5181343D03*
X43833108Y6831343D03*
%TD*%
D43*
%TO.C,Q6*%
X56700010Y2070000D03*
X56700010Y3980000D03*
X54600010Y3025000D03*
%TD*%
D32*
%TO.C,Q3*%
X60811010Y2751337D03*
X59861010Y4771337D03*
X61761010Y4771337D03*
%TD*%
D44*
%TO.C,C54*%
X92825010Y-3475000D03*
X89875010Y-3475000D03*
%TD*%
D27*
%TO.C,R66*%
X35600010Y20450000D03*
X35600010Y22100000D03*
%TD*%
D45*
%TO.C,C63*%
X80100010Y9050000D03*
X80100010Y7500000D03*
%TD*%
D43*
%TO.C,Q11*%
X53200010Y11820000D03*
X53200010Y13730000D03*
X51100010Y12775000D03*
%TD*%
D28*
%TO.C,C10*%
X53300010Y275000D03*
X54850010Y275000D03*
%TD*%
D45*
%TO.C,C13*%
X20600010Y27800000D03*
X20600010Y26250000D03*
%TD*%
D23*
%TO.C,C7*%
X68150010Y-1025000D03*
X70050010Y-1025000D03*
%TD*%
D27*
%TO.C,R36*%
X81350010Y2450000D03*
X81350010Y4100000D03*
%TD*%
D21*
%TO.C,R58*%
X18350010Y58425000D03*
X18350010Y56775000D03*
%TD*%
D45*
%TO.C,C55*%
X66075010Y42200000D03*
X66075010Y40650000D03*
%TD*%
D24*
%TO.C,C58*%
X66075010Y36400000D03*
X66075010Y37950000D03*
%TD*%
D21*
%TO.C,R61*%
X80100010Y12350000D03*
X80100010Y10700000D03*
%TD*%
D22*
%TO.C,R11*%
X42875010Y29335000D03*
X41225010Y29335000D03*
%TD*%
D27*
%TO.C,R27*%
X36850010Y52375000D03*
X36850010Y54025000D03*
%TD*%
D21*
%TO.C,R37*%
X76100010Y2600000D03*
X76100010Y950000D03*
%TD*%
D28*
%TO.C,C68*%
X40550010Y19025000D03*
X42100010Y19025000D03*
%TD*%
D22*
%TO.C,R43*%
X72775010Y2525000D03*
X74425010Y2525000D03*
%TD*%
D28*
%TO.C,C8*%
X36100010Y-1475000D03*
X37650010Y-1475000D03*
%TD*%
D22*
%TO.C,R38*%
X70150010Y42175000D03*
X68500010Y42175000D03*
%TD*%
D34*
%TO.C,R46*%
X77712418Y4025741D03*
X79362418Y4025741D03*
%TD*%
D23*
%TO.C,C6*%
X64150010Y8525000D03*
X66050010Y8525000D03*
%TD*%
D46*
%TO.C,R30*%
X6100010Y55600000D03*
X6100010Y58525000D03*
%TD*%
D43*
%TO.C,Q5*%
X53150010Y17365000D03*
X53150010Y19275000D03*
X51050010Y18320000D03*
%TD*%
D47*
%TO.C,U9*%
X78255010Y14000000D03*
X76985010Y14000000D03*
X75715010Y14000000D03*
X74445010Y14000000D03*
X74445010Y9050000D03*
X75715010Y9050000D03*
X76985010Y9050000D03*
X78255010Y9050000D03*
%TD*%
D48*
%TO.C,D8*%
X39600010Y50275000D03*
X42900010Y50275000D03*
%TD*%
D49*
%TO.C,U5*%
X64325010Y42150000D03*
X63675010Y42150000D03*
X63025010Y42150000D03*
X62375010Y42150000D03*
X61725010Y42150000D03*
X61075010Y42150000D03*
X60425010Y42150000D03*
X59775010Y42150000D03*
X59775010Y36425000D03*
X60425010Y36425000D03*
X61075010Y36425000D03*
X61725010Y36425000D03*
X62375010Y36425000D03*
X63025010Y36425000D03*
X63675010Y36425000D03*
X64325010Y36425000D03*
%TD*%
D22*
%TO.C,R6*%
X42850010Y26335000D03*
X41200010Y26335000D03*
%TD*%
D38*
%TO.C,D9*%
X27850010Y33975000D03*
X27850010Y29975000D03*
%TD*%
D41*
%TO.C,F2*%
X41725010Y4025000D03*
X37425010Y4025000D03*
%TD*%
D49*
%TO.C,U12*%
X43850010Y38300000D03*
X43200010Y38300000D03*
X42550010Y38300000D03*
X41900010Y38300000D03*
X41250010Y38300000D03*
X40600010Y38300000D03*
X39950010Y38300000D03*
X39950010Y44025000D03*
X40600010Y44025000D03*
X41250010Y44025000D03*
X41900010Y44025000D03*
X42550010Y44025000D03*
X43200010Y44025000D03*
X43850010Y44025000D03*
%TD*%
D31*
%TO.C,Q10*%
X70032034Y38367043D03*
X70032034Y40267043D03*
X68012034Y39317043D03*
%TD*%
D34*
%TO.C,R69*%
X44275010Y16025000D03*
X45925010Y16025000D03*
%TD*%
D27*
%TO.C,R3*%
X80150010Y51950000D03*
X80150010Y53600000D03*
%TD*%
D22*
%TO.C,R8*%
X42875010Y30885000D03*
X41225010Y30885000D03*
%TD*%
D50*
%TO.C,U3*%
X42487510Y34325000D03*
X42487510Y35275000D03*
X42487510Y36225000D03*
X40212510Y36225000D03*
X40212510Y34325000D03*
%TD*%
D22*
%TO.C,R13*%
X54675010Y6775000D03*
X53025010Y6775000D03*
%TD*%
D27*
%TO.C,R9*%
X51100010Y6450000D03*
X51100010Y8100000D03*
%TD*%
D22*
%TO.C,R21*%
X92100010Y4275000D03*
X90450010Y4275000D03*
%TD*%
%TO.C,R59*%
X77675010Y20525000D03*
X76025010Y20525000D03*
%TD*%
D45*
%TO.C,C60*%
X30350010Y-5225000D03*
X30350010Y-6775000D03*
%TD*%
D22*
%TO.C,R23*%
X92100010Y9525000D03*
X90450010Y9525000D03*
%TD*%
M02*
