%TF.GenerationSoftware,KiCad,Pcbnew,8.0.8*%
%TF.CreationDate,2025-02-06T17:20:13+00:00*%
%TF.ProjectId,mallow_adapt_v1.3,6d616c6c-6f77-45f6-9164-6170745f7631,rev?*%
%TF.SameCoordinates,Original*%
%TF.FileFunction,Soldermask,Bot*%
%TF.FilePolarity,Negative*%
%FSLAX46Y46*%
G04 Gerber Fmt 4.6, Leading zero omitted, Abs format (unit mm)*
G04 Created by KiCad (PCBNEW 8.0.8) date 2025-02-06 17:20:13*
%MOMM*%
%LPD*%
G01*
G04 APERTURE LIST*
G04 Aperture macros list*
%AMRoundRect*
0 Rectangle with rounded corners*
0 $1 Rounding radius*
0 $2 $3 $4 $5 $6 $7 $8 $9 X,Y pos of 4 corners*
0 Add a 4 corners polygon primitive as box body*
4,1,4,$2,$3,$4,$5,$6,$7,$8,$9,$2,$3,0*
0 Add four circle primitives for the rounded corners*
1,1,$1+$1,$2,$3*
1,1,$1+$1,$4,$5*
1,1,$1+$1,$6,$7*
1,1,$1+$1,$8,$9*
0 Add four rect primitives between the rounded corners*
20,1,$1+$1,$2,$3,$4,$5,0*
20,1,$1+$1,$4,$5,$6,$7,0*
20,1,$1+$1,$6,$7,$8,$9,0*
20,1,$1+$1,$8,$9,$2,$3,0*%
%AMFreePoly0*
4,1,35,0.535355,0.785355,0.550000,0.750000,0.550000,-0.750000,0.535355,-0.785355,0.500000,-0.800000,0.000000,-0.800000,-0.012286,-0.794911,-0.071157,-0.794911,-0.085244,-0.792886,-0.221795,-0.752791,-0.234740,-0.746879,-0.354462,-0.669938,-0.365217,-0.660618,-0.458414,-0.553063,-0.466109,-0.541091,-0.525228,-0.411637,-0.529237,-0.397982,-0.549491,-0.257116,-0.550000,-0.250000,-0.550000,0.250000,
-0.549491,0.257116,-0.529237,0.397982,-0.525228,0.411637,-0.466109,0.541091,-0.458414,0.553063,-0.365217,0.660618,-0.354462,0.669938,-0.234740,0.746879,-0.221795,0.752791,-0.085244,0.792886,-0.071157,0.794911,-0.012286,0.794911,0.000000,0.800000,0.500000,0.800000,0.535355,0.785355,0.535355,0.785355,$1*%
%AMFreePoly1*
4,1,35,0.012286,0.794911,0.071157,0.794911,0.085244,0.792886,0.221795,0.752791,0.234740,0.746879,0.354462,0.669938,0.365217,0.660618,0.458414,0.553063,0.466109,0.541091,0.525228,0.411637,0.529237,0.397982,0.549491,0.257116,0.550000,0.250000,0.550000,-0.250000,0.549491,-0.257116,0.529237,-0.397982,0.525228,-0.411637,0.466109,-0.541091,0.458414,-0.553063,0.365217,-0.660618,
0.354462,-0.669938,0.234740,-0.746879,0.221795,-0.752791,0.085244,-0.792886,0.071157,-0.794911,0.012286,-0.794911,0.000000,-0.800000,-0.500000,-0.800000,-0.535355,-0.785355,-0.550000,-0.750000,-0.550000,0.750000,-0.535355,0.785355,-0.500000,0.800000,0.000000,0.800000,0.012286,0.794911,0.012286,0.794911,$1*%
G04 Aperture macros list end*
%ADD10C,0.000000*%
%ADD11RoundRect,0.050000X0.300000X0.210000X-0.300000X0.210000X-0.300000X-0.210000X0.300000X-0.210000X0*%
%ADD12O,0.700000X0.520000*%
%ADD13RoundRect,0.050000X-0.508000X-0.203200X0.508000X-0.203200X0.508000X0.203200X-0.508000X0.203200X0*%
%ADD14RoundRect,0.050000X-1.910500X-1.954499X1.910500X-1.954499X1.910500X1.954499X-1.910500X1.954499X0*%
%ADD15RoundRect,0.050000X-0.150000X-0.400000X0.150000X-0.400000X0.150000X0.400000X-0.150000X0.400000X0*%
%ADD16RoundRect,0.050000X0.400000X-0.150000X0.400000X0.150000X-0.400000X0.150000X-0.400000X-0.150000X0*%
%ADD17RoundRect,0.050000X0.750000X-0.750000X0.750000X0.750000X-0.750000X0.750000X-0.750000X-0.750000X0*%
%ADD18RoundRect,0.050000X-0.625000X0.300000X-0.625000X-0.300000X0.625000X-0.300000X0.625000X0.300000X0*%
%ADD19RoundRect,0.050000X0.737500X-0.225000X0.737500X0.225000X-0.737500X0.225000X-0.737500X-0.225000X0*%
%ADD20RoundRect,0.271739X-0.353261X-1.128261X0.353261X-1.128261X0.353261X1.128261X-0.353261X1.128261X0*%
%ADD21RoundRect,0.271739X0.353261X1.128261X-0.353261X1.128261X-0.353261X-1.128261X0.353261X-1.128261X0*%
%ADD22RoundRect,0.225000X0.300000X-0.225000X0.300000X0.225000X-0.300000X0.225000X-0.300000X-0.225000X0*%
%ADD23RoundRect,0.050000X-0.850000X0.850000X-0.850000X-0.850000X0.850000X-0.850000X0.850000X0.850000X0*%
%ADD24O,1.800000X1.800000*%
%ADD25C,3.700000*%
%ADD26C,5.800000*%
%ADD27RoundRect,0.175000X-0.175000X0.850000X-0.175000X-0.850000X0.175000X-0.850000X0.175000X0.850000X0*%
%ADD28RoundRect,0.250000X-0.275000X0.250000X-0.275000X-0.250000X0.275000X-0.250000X0.275000X0.250000X0*%
%ADD29C,2.100000*%
%ADD30FreePoly0,180.000000*%
%ADD31FreePoly1,180.000000*%
%ADD32RoundRect,0.225000X0.225000X0.300000X-0.225000X0.300000X-0.225000X-0.300000X0.225000X-0.300000X0*%
%ADD33RoundRect,0.225000X-0.225000X-0.300000X0.225000X-0.300000X0.225000X0.300000X-0.225000X0.300000X0*%
%ADD34C,3.009999*%
%ADD35C,1.620000*%
%ADD36C,1.120000*%
%ADD37RoundRect,0.250000X0.275000X-0.250000X0.275000X0.250000X-0.275000X0.250000X-0.275000X-0.250000X0*%
%ADD38C,1.975000*%
%ADD39RoundRect,0.050000X-0.937500X-0.937500X0.937500X-0.937500X0.937500X0.937500X-0.937500X0.937500X0*%
%ADD40C,1.450000*%
%ADD41RoundRect,0.050000X0.150000X0.375000X-0.150000X0.375000X-0.150000X-0.375000X0.150000X-0.375000X0*%
%ADD42RoundRect,0.050000X-0.650000X0.450000X-0.650000X-0.450000X0.650000X-0.450000X0.650000X0.450000X0*%
%ADD43RoundRect,0.225000X-0.300000X0.225000X-0.300000X-0.225000X0.300000X-0.225000X0.300000X0.225000X0*%
%ADD44C,1.900000*%
%ADD45C,1.400000*%
%ADD46RoundRect,0.102000X0.300000X-0.400000X0.300000X0.400000X-0.300000X0.400000X-0.300000X-0.400000X0*%
%ADD47RoundRect,0.250000X0.250000X0.275000X-0.250000X0.275000X-0.250000X-0.275000X0.250000X-0.275000X0*%
%ADD48RoundRect,0.271739X0.353261X0.678261X-0.353261X0.678261X-0.353261X-0.678261X0.353261X-0.678261X0*%
%ADD49RoundRect,0.271739X1.128261X-0.353261X1.128261X0.353261X-1.128261X0.353261X-1.128261X-0.353261X0*%
%ADD50RoundRect,0.250000X-0.250000X-0.275000X0.250000X-0.275000X0.250000X0.275000X-0.250000X0.275000X0*%
%ADD51RoundRect,0.272222X-0.340278X-0.652778X0.340278X-0.652778X0.340278X0.652778X-0.340278X0.652778X0*%
%ADD52RoundRect,0.125000X-0.125000X0.662500X-0.125000X-0.662500X0.125000X-0.662500X0.125000X0.662500X0*%
%ADD53C,1.600000*%
%ADD54C,3.300000*%
%ADD55RoundRect,0.270000X1.105000X-0.405000X1.105000X0.405000X-1.105000X0.405000X-1.105000X-0.405000X0*%
%ADD56C,2.000000*%
%ADD57RoundRect,0.050000X0.950000X-0.950000X0.950000X0.950000X-0.950000X0.950000X-0.950000X-0.950000X0*%
%ADD58C,3.100000*%
%ADD59RoundRect,0.050000X-0.900000X0.500000X-0.900000X-0.500000X0.900000X-0.500000X0.900000X0.500000X0*%
%ADD60C,2.200000*%
%ADD61C,1.800000*%
%ADD62RoundRect,0.264706X-0.635294X-0.635294X0.635294X-0.635294X0.635294X0.635294X-0.635294X0.635294X0*%
%ADD63C,1.300000*%
%ADD64RoundRect,0.275000X0.275000X-0.275000X0.275000X0.275000X-0.275000X0.275000X-0.275000X-0.275000X0*%
%ADD65RoundRect,0.050000X0.900000X1.700000X-0.900000X1.700000X-0.900000X-1.700000X0.900000X-1.700000X0*%
%ADD66RoundRect,0.050000X-0.425000X0.150000X-0.425000X-0.150000X0.425000X-0.150000X0.425000X0.150000X0*%
%ADD67RoundRect,0.050000X-0.345000X-1.220000X0.345000X-1.220000X0.345000X1.220000X-0.345000X1.220000X0*%
%ADD68RoundRect,0.102000X0.400000X0.300000X-0.400000X0.300000X-0.400000X-0.300000X0.400000X-0.300000X0*%
%ADD69RoundRect,0.050000X-0.300000X-0.210000X0.300000X-0.210000X0.300000X0.210000X-0.300000X0.210000X0*%
%ADD70RoundRect,0.050000X-0.850000X-0.850000X0.850000X-0.850000X0.850000X0.850000X-0.850000X0.850000X0*%
%ADD71RoundRect,0.102000X-0.400000X-0.300000X0.400000X-0.300000X0.400000X0.300000X-0.400000X0.300000X0*%
%ADD72RoundRect,0.050000X1.580000X-0.500000X1.580000X0.500000X-1.580000X0.500000X-1.580000X-0.500000X0*%
%ADD73RoundRect,0.250000X-0.250000X-0.400000X0.250000X-0.400000X0.250000X0.400000X-0.250000X0.400000X0*%
%ADD74RoundRect,0.050000X0.850000X0.850000X-0.850000X0.850000X-0.850000X-0.850000X0.850000X-0.850000X0*%
%ADD75RoundRect,0.175000X-0.850000X-0.175000X0.850000X-0.175000X0.850000X0.175000X-0.850000X0.175000X0*%
%ADD76RoundRect,0.243750X0.406250X-0.243750X0.406250X0.243750X-0.406250X0.243750X-0.406250X-0.243750X0*%
%ADD77RoundRect,0.225000X-0.475000X0.225000X-0.475000X-0.225000X0.475000X-0.225000X0.475000X0.225000X0*%
%ADD78O,1.400000X0.900000*%
%ADD79RoundRect,0.102000X-0.300000X0.400000X-0.300000X-0.400000X0.300000X-0.400000X0.300000X0.400000X0*%
%ADD80RoundRect,0.050000X0.700000X-0.150000X0.700000X0.150000X-0.700000X0.150000X-0.700000X-0.150000X0*%
G04 APERTURE END LIST*
D10*
%TO.C,Q15*%
G36*
X40477010Y19539200D02*
G01*
X39461010Y19539200D01*
X39461010Y18675600D01*
X40477010Y18675600D01*
X40477010Y18269200D01*
X39461010Y18269200D01*
X39461010Y17405600D01*
X40477010Y17405600D01*
X40477010Y16999200D01*
X39461010Y16999200D01*
X39461010Y16135600D01*
X40477010Y16135600D01*
X40477010Y15729200D01*
X39461010Y15729200D01*
X39461010Y15881600D01*
X35625610Y15881600D01*
X35625610Y19793200D01*
X39461010Y19793200D01*
X39461010Y19945600D01*
X40477010Y19945600D01*
X40477010Y19539200D01*
G37*
%TO.C,Q7*%
G36*
X14279010Y21440982D02*
G01*
X13263010Y21440982D01*
X13263010Y20577382D01*
X14279010Y20577382D01*
X14279010Y20170982D01*
X13263010Y20170982D01*
X13263010Y19307382D01*
X14279010Y19307382D01*
X14279010Y18900982D01*
X13263010Y18900982D01*
X13263010Y18037382D01*
X14279010Y18037382D01*
X14279010Y17630982D01*
X13263010Y17630982D01*
X13263010Y17783382D01*
X9427610Y17783382D01*
X9427610Y21694982D01*
X13263010Y21694982D01*
X13263010Y21847382D01*
X14279010Y21847382D01*
X14279010Y21440982D01*
G37*
%TD*%
D11*
%TO.C,U14*%
X84500012Y43824998D03*
D12*
X84500012Y43174999D03*
X84500012Y42525000D03*
X82600010Y42525000D03*
X82600010Y43174999D03*
X82600010Y43824998D03*
%TD*%
D13*
%TO.C,Q15*%
X34127010Y15932400D03*
X34127010Y17202400D03*
X34127010Y18472400D03*
X34127010Y19742400D03*
X39969010Y19742400D03*
X39969010Y18472400D03*
X39969010Y17202400D03*
D14*
X37550510Y17838701D03*
D13*
X39969010Y15932400D03*
%TD*%
%TO.C,Q7*%
X7929010Y17834182D03*
X7929010Y19104182D03*
X7929010Y20374182D03*
X7929010Y21644182D03*
X13771010Y21644182D03*
X13771010Y20374182D03*
X13771010Y19104182D03*
D14*
X11352510Y19740483D03*
D13*
X13771010Y17834182D03*
%TD*%
D15*
%TO.C,IC5*%
X76300010Y43075000D03*
X75800010Y43075000D03*
X75300010Y43075000D03*
X74800010Y43075000D03*
D16*
X74100010Y43775000D03*
X74100010Y44275000D03*
X74100010Y44775000D03*
X74100010Y45275000D03*
D15*
X74800010Y45975000D03*
X75300010Y45975000D03*
X75800010Y45975000D03*
X76300010Y45975000D03*
D16*
X77000010Y45275000D03*
X77000010Y44775000D03*
X77000010Y44275000D03*
X77000010Y43775000D03*
D17*
X75550010Y44525000D03*
%TD*%
D18*
%TO.C,IC4*%
X63075010Y2075000D03*
X63075010Y3025000D03*
X63075010Y3975000D03*
X65575010Y3975000D03*
X65575010Y3025000D03*
X65575010Y2075000D03*
%TD*%
D19*
%TO.C,IC3*%
X63388011Y34950000D03*
X63388011Y34300000D03*
X63388011Y33650000D03*
X63388011Y33000000D03*
X63388011Y32350000D03*
X63388011Y31700000D03*
X63388011Y31050000D03*
X63388011Y30400000D03*
X57512011Y30400000D03*
X57512011Y31050000D03*
X57512011Y31700000D03*
X57512011Y32350000D03*
X57512011Y33000000D03*
X57512011Y33650000D03*
X57512011Y34300000D03*
X57512011Y34950000D03*
%TD*%
D20*
%TO.C,C41*%
X8337506Y-1725000D03*
X5387506Y-1725000D03*
%TD*%
%TO.C,C39*%
X8337506Y2275000D03*
X5387506Y2275000D03*
%TD*%
D21*
%TO.C,C36*%
X10387506Y2275000D03*
X13337506Y2275000D03*
%TD*%
D20*
%TO.C,C35*%
X8337506Y6275000D03*
X5387506Y6275000D03*
%TD*%
D21*
%TO.C,C33*%
X10387506Y-1725000D03*
X13337506Y-1725000D03*
%TD*%
%TO.C,C32*%
X13337506Y6275000D03*
X10387506Y6275000D03*
%TD*%
%TO.C,C31*%
X10387506Y-5725000D03*
X13337506Y-5725000D03*
%TD*%
D22*
%TO.C,R4*%
X76300010Y48725000D03*
X76300010Y50375000D03*
%TD*%
D23*
%TO.C,JP3*%
X45850010Y1525000D03*
D24*
X48390010Y1525000D03*
%TD*%
D20*
%TO.C,C43*%
X8337506Y-5725000D03*
X5387506Y-5725000D03*
%TD*%
D25*
%TO.C,H1*%
X93000000Y58000000D03*
D26*
X93000000Y58000000D03*
%TD*%
D25*
%TO.C,H4*%
X93000000Y-8000000D03*
D26*
X93000000Y-8000000D03*
%TD*%
D25*
%TO.C,H3*%
X-999990Y-8000000D03*
D26*
X-999990Y-8000000D03*
%TD*%
D25*
%TO.C,H2*%
X-999990Y58000000D03*
D26*
X-999990Y58000000D03*
%TD*%
D27*
%TO.C,U7*%
X73845010Y13850000D03*
X75115010Y13850000D03*
X76385010Y13850000D03*
X77655010Y13850000D03*
X77655010Y8900000D03*
X76385010Y8900000D03*
X75115010Y8900000D03*
X73845010Y8900000D03*
%TD*%
D28*
%TO.C,C24*%
X32350010Y44050000D03*
X32350010Y42500000D03*
%TD*%
D29*
%TO.C,TP5*%
X78100010Y39525000D03*
%TD*%
D30*
%TO.C,JP2*%
X65400010Y52275000D03*
D31*
X64100010Y52275000D03*
%TD*%
D32*
%TO.C,R78*%
X80925010Y22025000D03*
X79275010Y22025000D03*
%TD*%
D33*
%TO.C,R17*%
X90450010Y10775000D03*
X92100010Y10775000D03*
%TD*%
D34*
%TO.C,J5*%
X59000008Y-3974999D03*
X48700014Y-3974999D03*
D35*
X56850010Y-2475000D03*
X53850011Y-2475000D03*
X50850012Y-2475000D03*
X56850010Y-5474999D03*
X53850011Y-5474999D03*
X50850012Y-5474999D03*
D36*
X47850013Y-1534999D03*
X59849989Y-1534999D03*
%TD*%
D37*
%TO.C,C78*%
X52350010Y8750000D03*
X52350010Y10300000D03*
%TD*%
D29*
%TO.C,TP3*%
X25250010Y35975000D03*
%TD*%
%TO.C,TP13*%
X47100010Y36525000D03*
%TD*%
D38*
%TO.C,J4*%
X79850010Y-4975000D03*
X77350010Y-4975000D03*
X74850010Y-4975000D03*
D39*
X72350010Y-4975000D03*
D40*
X76100010Y-3635000D03*
%TD*%
D41*
%TO.C,U11*%
X33050010Y52775000D03*
X33550010Y52775000D03*
X34050010Y52775000D03*
X34550010Y52775000D03*
X34550010Y50775000D03*
X34050010Y50775000D03*
X33550010Y50775000D03*
X33050010Y50775000D03*
D42*
X33800010Y51775000D03*
%TD*%
D43*
%TO.C,R75*%
X73300010Y50350000D03*
X73300010Y48700000D03*
%TD*%
D44*
%TO.C,J3*%
X87350010Y-4975000D03*
X84850010Y-4975000D03*
D45*
X86100010Y-3635000D03*
%TD*%
D46*
%TO.C,Q13*%
X28000010Y14615000D03*
X26100010Y14615000D03*
X27050010Y16635000D03*
%TD*%
D23*
%TO.C,X19*%
X58520009Y58499972D03*
D24*
X58520009Y55959972D03*
X61060009Y58499972D03*
X61060009Y55959972D03*
X63600009Y58499972D03*
X63600009Y55959972D03*
X66140009Y58499972D03*
X66140009Y55959972D03*
X68680009Y58499972D03*
X68680009Y55959972D03*
X71220009Y58499972D03*
X71220009Y55959972D03*
X73760009Y58499972D03*
X73760009Y55959972D03*
X76300009Y58499972D03*
X76300009Y55959972D03*
X78840009Y58499972D03*
X78840009Y55959972D03*
X81380009Y58499972D03*
X81380009Y55959972D03*
X83920009Y58499972D03*
X83920009Y55959972D03*
X86460009Y58499972D03*
X86460009Y55959972D03*
%TD*%
D22*
%TO.C,R56*%
X57262011Y37350000D03*
X57262011Y39000000D03*
%TD*%
D47*
%TO.C,C19*%
X92125010Y12525000D03*
X90575010Y12525000D03*
%TD*%
D48*
%TO.C,C51*%
X86350010Y51025000D03*
X83400010Y51025000D03*
%TD*%
D22*
%TO.C,R15*%
X55350010Y37350000D03*
X55350010Y39000000D03*
%TD*%
D49*
%TO.C,C12*%
X43850010Y18300000D03*
X43850010Y21250000D03*
%TD*%
D38*
%TO.C,J8*%
X85850010Y15025000D03*
X85850010Y17525000D03*
X85850010Y20025000D03*
D40*
X87190010Y18775000D03*
%TD*%
D43*
%TO.C,R71*%
X70300010Y50350000D03*
X70300010Y48700000D03*
%TD*%
D50*
%TO.C,C3*%
X65550010Y25000D03*
X67100010Y25000D03*
%TD*%
D51*
%TO.C,R29*%
X83387510Y53275000D03*
X86312510Y53275000D03*
%TD*%
D52*
%TO.C,U17*%
X80600010Y35550000D03*
X81250010Y35550000D03*
X81900010Y35550000D03*
X82550010Y35550000D03*
X83200010Y35550000D03*
X83850010Y35550000D03*
X84500010Y35550000D03*
X85150010Y35550000D03*
X85150010Y29825000D03*
X84500010Y29825000D03*
X83850010Y29825000D03*
X83200010Y29825000D03*
X82550010Y29825000D03*
X81900010Y29825000D03*
X81250010Y29825000D03*
X80600010Y29825000D03*
%TD*%
D53*
%TO.C,J9*%
X30350010Y4645000D03*
X27810010Y3375000D03*
X30350010Y2105000D03*
X27810010Y835000D03*
X30350010Y-435000D03*
X27810010Y-1705000D03*
X30350010Y-2975000D03*
D17*
X27810010Y-4245000D03*
D54*
X21460010Y5915000D03*
X21460010Y-5515000D03*
%TD*%
D32*
%TO.C,R68*%
X43925010Y15775000D03*
X42275010Y15775000D03*
%TD*%
D50*
%TO.C,C64*%
X40325010Y47775000D03*
X41875010Y47775000D03*
%TD*%
D22*
%TO.C,R63*%
X74100010Y18450000D03*
X74100010Y20100000D03*
%TD*%
D29*
%TO.C,TP11*%
X17850010Y10775000D03*
%TD*%
D18*
%TO.C,Q21*%
X80800010Y18320000D03*
X80800010Y20230000D03*
X82900010Y19275000D03*
%TD*%
D37*
%TO.C,C16*%
X17850010Y32500000D03*
X17850010Y34050000D03*
%TD*%
D55*
%TO.C,L2*%
X68600010Y2225000D03*
X68600010Y5025000D03*
%TD*%
D56*
%TO.C,J1*%
X23300010Y42925000D03*
X23300010Y47125000D03*
X17800010Y42925000D03*
D57*
X17800010Y47125000D03*
D58*
X22840010Y51825000D03*
X22840010Y38225000D03*
%TD*%
D43*
%TO.C,R77*%
X77800010Y50350000D03*
X77800010Y48700000D03*
%TD*%
D37*
%TO.C,C73*%
X58350010Y8750000D03*
X58350010Y10300000D03*
%TD*%
D22*
%TO.C,R54*%
X62950011Y37350000D03*
X62950011Y39000000D03*
%TD*%
%TO.C,R2*%
X53600010Y51950000D03*
X53600010Y53600000D03*
%TD*%
D32*
%TO.C,R24*%
X5200010Y18295000D03*
X3550010Y18295000D03*
%TD*%
D43*
%TO.C,R48*%
X41075010Y2600000D03*
X41075010Y950000D03*
%TD*%
D22*
%TO.C,R72*%
X86100010Y42450000D03*
X86100010Y44100000D03*
%TD*%
D59*
%TO.C,Y1*%
X45850010Y50275000D03*
X45850010Y52775000D03*
%TD*%
D37*
%TO.C,C79*%
X78350010Y29775000D03*
X78350010Y31325000D03*
%TD*%
D60*
%TO.C,J6*%
X45269988Y-3514999D03*
X33430012Y-3514999D03*
D61*
X43100010Y-5725000D03*
X40600010Y-5725000D03*
X38100010Y-5725000D03*
X35600010Y-5725000D03*
X43100010Y-3225000D03*
X40600010Y-3225000D03*
X38100010Y-3225000D03*
D62*
X35600010Y-3225000D03*
D63*
X39350010Y-1885000D03*
%TD*%
D23*
%TO.C,X10*%
X25500010Y58500000D03*
D24*
X25500010Y55960000D03*
X28040010Y58500000D03*
X28040010Y55960000D03*
X30580010Y58500000D03*
X30580010Y55960000D03*
X33120010Y58500000D03*
X33120010Y55960000D03*
X35660010Y58500000D03*
X35660010Y55960000D03*
X38200010Y58500000D03*
X38200010Y55960000D03*
X40740010Y58500000D03*
X40740010Y55960000D03*
X43280010Y58500000D03*
X43280010Y55960000D03*
X45820010Y58500000D03*
X45820010Y55960000D03*
X48360010Y58500000D03*
X48360010Y55960000D03*
X50900010Y58500000D03*
X50900010Y55960000D03*
X53440010Y58500000D03*
X53440010Y55960000D03*
%TD*%
D50*
%TO.C,C18*%
X29075010Y41525000D03*
X30625010Y41525000D03*
%TD*%
D43*
%TO.C,R70*%
X79300010Y50350000D03*
X79300010Y48700000D03*
%TD*%
D47*
%TO.C,C15*%
X92210727Y1025000D03*
X90660727Y1025000D03*
%TD*%
D22*
%TO.C,R57*%
X78800010Y41700000D03*
X78800010Y43350000D03*
%TD*%
D64*
%TO.C,D6*%
X29600010Y18775000D03*
X29600010Y21275000D03*
%TD*%
D37*
%TO.C,C59*%
X31350010Y18750000D03*
X31350010Y20300000D03*
%TD*%
D56*
%TO.C,J10*%
X23362511Y16400000D03*
X23362511Y20600000D03*
X23362511Y24800000D03*
X23362511Y29000000D03*
X17862511Y16400000D03*
X17862511Y20600000D03*
X17862511Y24800000D03*
D57*
X17862511Y29000000D03*
D58*
X22902511Y33700000D03*
X22902511Y11700000D03*
%TD*%
D29*
%TO.C,TP4*%
X81350010Y39525000D03*
%TD*%
D16*
%TO.C,U16*%
X54375010Y7525000D03*
X54375010Y7025000D03*
X54375010Y6525000D03*
X54375010Y6025000D03*
X54375010Y5525000D03*
X54375010Y5025000D03*
X51375010Y5025000D03*
X51375010Y5525000D03*
X51375010Y6025000D03*
X51375010Y6525000D03*
X51375010Y7025000D03*
X51375010Y7525000D03*
D65*
X52875010Y6275000D03*
%TD*%
D29*
%TO.C,TP12*%
X30350010Y49775000D03*
%TD*%
D66*
%TO.C,IC2*%
X28900010Y43525000D03*
X28900010Y44025000D03*
X28900010Y44525000D03*
X28900010Y45025000D03*
X28900010Y45525000D03*
X30800010Y45525000D03*
X30800010Y45025000D03*
X30800010Y44525000D03*
X30800010Y44025000D03*
X30800010Y43525000D03*
D67*
X29850010Y44525000D03*
%TD*%
D68*
%TO.C,Q12*%
X42870010Y11975000D03*
X42870010Y10075000D03*
X40850010Y11025000D03*
%TD*%
D47*
%TO.C,C76*%
X53650010Y2775000D03*
X52100010Y2775000D03*
%TD*%
D33*
%TO.C,R25*%
X3550010Y16795000D03*
X5200010Y16795000D03*
%TD*%
D32*
%TO.C,R51*%
X31875010Y16775000D03*
X30225010Y16775000D03*
%TD*%
D43*
%TO.C,R74*%
X71800010Y50350000D03*
X71800010Y48700000D03*
%TD*%
D37*
%TO.C,C74*%
X56100010Y8750000D03*
X56100010Y10300000D03*
%TD*%
D38*
%TO.C,J2*%
X67190010Y-6155000D03*
X67190010Y-3655000D03*
X64690010Y-6155000D03*
X64690010Y-3655000D03*
D40*
X65940010Y-2315000D03*
%TD*%
D43*
%TO.C,R55*%
X72000010Y12500000D03*
X72000010Y10850000D03*
%TD*%
%TO.C,R50*%
X64450011Y39000000D03*
X64450011Y37350000D03*
%TD*%
D28*
%TO.C,C61*%
X72000010Y8900000D03*
X72000010Y7350000D03*
%TD*%
D69*
%TO.C,U6*%
X59500010Y37275001D03*
D12*
X59500010Y37925000D03*
X59500010Y38574999D03*
X61400012Y38574999D03*
X61400012Y37925000D03*
X61400012Y37275001D03*
%TD*%
D70*
%TO.C,X5*%
X38Y4D03*
D24*
X2540038Y4D03*
X38Y2540004D03*
X2540038Y2540004D03*
%TD*%
D32*
%TO.C,R20*%
X92250010Y4275000D03*
X90600010Y4275000D03*
%TD*%
D71*
%TO.C,Q14*%
X68090947Y12430595D03*
X68090947Y14330595D03*
X70110947Y13380595D03*
%TD*%
D28*
%TO.C,C11*%
X55012011Y34950000D03*
X55012011Y33400000D03*
%TD*%
D72*
%TO.C,RL1*%
X28850010Y26595000D03*
X28850010Y31675000D03*
X28850010Y34215000D03*
X28850010Y36755000D03*
X36090010Y36755000D03*
X36090010Y34215000D03*
X36090010Y31675000D03*
X36090010Y26595000D03*
%TD*%
D29*
%TO.C,TP1*%
X18600010Y52025000D03*
%TD*%
D32*
%TO.C,R62*%
X41931487Y46065751D03*
X40281487Y46065751D03*
%TD*%
D33*
%TO.C,R18*%
X90450010Y9275000D03*
X92100010Y9275000D03*
%TD*%
D43*
%TO.C,R76*%
X74800010Y50350000D03*
X74800010Y48700000D03*
%TD*%
D22*
%TO.C,R52*%
X27850010Y18775000D03*
X27850010Y20425000D03*
%TD*%
D73*
%TO.C,D7*%
X31200010Y24025000D03*
X34500010Y24025000D03*
%TD*%
D28*
%TO.C,C77*%
X78350010Y35575000D03*
X78350010Y34025000D03*
%TD*%
%TO.C,C56*%
X44075010Y2300000D03*
X44075010Y750000D03*
%TD*%
D32*
%TO.C,R49*%
X31850010Y15275000D03*
X30200010Y15275000D03*
%TD*%
D22*
%TO.C,R22*%
X2375010Y19909182D03*
X2375010Y21559182D03*
%TD*%
D32*
%TO.C,R19*%
X92250010Y2775000D03*
X90600010Y2775000D03*
%TD*%
D64*
%TO.C,D2*%
X4125010Y20045000D03*
X4125010Y22545000D03*
%TD*%
D47*
%TO.C,C65*%
X34100010Y49025000D03*
X32550010Y49025000D03*
%TD*%
%TO.C,C71*%
X75252481Y41330402D03*
X73702481Y41330402D03*
%TD*%
D74*
%TO.C,X16*%
X92000002Y52499976D03*
D24*
X89460002Y52499976D03*
X92000002Y49959976D03*
X89460002Y49959976D03*
X92000002Y47419976D03*
X89460002Y47419976D03*
X92000002Y44879976D03*
X89460002Y44879976D03*
X92000002Y42339976D03*
X89460002Y42339976D03*
X92000002Y39799976D03*
X89460002Y39799976D03*
X92000002Y37259976D03*
X89460002Y37259976D03*
X92000002Y34719976D03*
X89460002Y34719976D03*
X92000002Y32179976D03*
X89460002Y32179976D03*
X92000002Y29639976D03*
X89460002Y29639976D03*
X92000002Y27099976D03*
X89460002Y27099976D03*
X92000002Y24559976D03*
X89460002Y24559976D03*
%TD*%
D37*
%TO.C,C22*%
X26600010Y44000000D03*
X26600010Y45550000D03*
%TD*%
%TO.C,C17*%
X5875010Y19959182D03*
X5875010Y21509182D03*
%TD*%
D47*
%TO.C,C4*%
X64650010Y6025000D03*
X63100010Y6025000D03*
%TD*%
D22*
%TO.C,R44*%
X48100010Y14200000D03*
X48100010Y15850000D03*
%TD*%
D61*
%TO.C,J7*%
X84600010Y4275000D03*
X84600010Y6775000D03*
X84600010Y9275000D03*
X87100010Y4275000D03*
X87100010Y6775000D03*
X87100010Y9275000D03*
%TD*%
D75*
%TO.C,U4*%
X39083108Y4101343D03*
X39083108Y5371343D03*
X39083108Y6641343D03*
X39083108Y7911343D03*
X44033108Y7911343D03*
X44033108Y6641343D03*
X44033108Y5371343D03*
X44033108Y4101343D03*
%TD*%
D76*
%TO.C,L1*%
X56625010Y4962500D03*
X56625010Y7087500D03*
%TD*%
D28*
%TO.C,C20*%
X66850010Y50725000D03*
X66850010Y52275000D03*
%TD*%
D37*
%TO.C,C2*%
X85100010Y46950000D03*
X85100010Y48500000D03*
%TD*%
D29*
%TO.C,TP9*%
X22100010Y56275000D03*
%TD*%
D50*
%TO.C,C67*%
X40325010Y53525000D03*
X41875010Y53525000D03*
%TD*%
D29*
%TO.C,TP2*%
X34600010Y775000D03*
%TD*%
D37*
%TO.C,C80*%
X48350010Y8750000D03*
X48350010Y10300000D03*
%TD*%
D77*
%TO.C,J11*%
X69400010Y26400000D03*
D78*
X69400010Y25150000D03*
%TD*%
D79*
%TO.C,Q19*%
X80850010Y48785000D03*
X82750010Y48785000D03*
X81800010Y46765000D03*
%TD*%
D43*
%TO.C,R73*%
X81100010Y45425000D03*
X81100010Y43775000D03*
%TD*%
D80*
%TO.C,U10*%
X43250010Y51775000D03*
X43250010Y51275000D03*
X43250010Y50775000D03*
X43250010Y50275000D03*
X43250010Y49775000D03*
X38850010Y49775000D03*
X38850010Y50275000D03*
X38850010Y50775000D03*
X38850010Y51275000D03*
X38850010Y51775000D03*
%TD*%
D28*
%TO.C,C1*%
X86600010Y48550000D03*
X86600010Y47000000D03*
%TD*%
D22*
%TO.C,R53*%
X66100010Y13700000D03*
X66100010Y15350000D03*
%TD*%
D46*
%TO.C,Q8*%
X1300010Y16015000D03*
X-599990Y16015000D03*
X350010Y18035000D03*
%TD*%
D71*
%TO.C,Q20*%
X76330010Y18325000D03*
X76330010Y20225000D03*
X78350010Y19275000D03*
%TD*%
D29*
%TO.C,TP10*%
X27350010Y53275000D03*
%TD*%
D37*
%TO.C,C26*%
X83100010Y21250000D03*
X83100010Y22800000D03*
%TD*%
D28*
%TO.C,C75*%
X58375010Y6825000D03*
X58375010Y5275000D03*
%TD*%
D22*
%TO.C,R1*%
X30350010Y52200000D03*
X30350010Y53850000D03*
%TD*%
D70*
%TO.C,JP1*%
X35100010Y4500000D03*
D24*
X35100010Y7040000D03*
%TD*%
M02*
